G04 #@! TF.GenerationSoftware,KiCad,Pcbnew,(5.1.0-0)*
G04 #@! TF.CreationDate,2019-05-15T23:46:39-04:00*
G04 #@! TF.ProjectId,phone-hw,70686f6e-652d-4687-972e-6b696361645f,rev?*
G04 #@! TF.SameCoordinates,Original*
G04 #@! TF.FileFunction,Legend,Top*
G04 #@! TF.FilePolarity,Positive*
%FSLAX46Y46*%
G04 Gerber Fmt 4.6, Leading zero omitted, Abs format (unit mm)*
G04 Created by KiCad (PCBNEW (5.1.0-0)) date 2019-05-15 23:46:39*
%MOMM*%
%LPD*%
G04 APERTURE LIST*
%ADD10C,0.150000*%
%ADD11C,0.120000*%
G04 APERTURE END LIST*
D10*
X33452380Y-31500000D02*
X32452380Y-31500000D01*
X32452380Y-30833333D02*
X32452380Y-30642857D01*
X32500000Y-30547619D01*
X32595238Y-30452380D01*
X32785714Y-30404761D01*
X33119047Y-30404761D01*
X33309523Y-30452380D01*
X33404761Y-30547619D01*
X33452380Y-30642857D01*
X33452380Y-30833333D01*
X33404761Y-30928571D01*
X33309523Y-31023809D01*
X33119047Y-31071428D01*
X32785714Y-31071428D01*
X32595238Y-31023809D01*
X32500000Y-30928571D01*
X32452380Y-30833333D01*
X32452380Y-29785714D02*
X32452380Y-29690476D01*
X32500000Y-29595238D01*
X32547619Y-29547619D01*
X32642857Y-29500000D01*
X32833333Y-29452380D01*
X33071428Y-29452380D01*
X33261904Y-29500000D01*
X33357142Y-29547619D01*
X33404761Y-29595238D01*
X33452380Y-29690476D01*
X33452380Y-29785714D01*
X33404761Y-29880952D01*
X33357142Y-29928571D01*
X33261904Y-29976190D01*
X33071428Y-30023809D01*
X32833333Y-30023809D01*
X32642857Y-29976190D01*
X32547619Y-29928571D01*
X32500000Y-29880952D01*
X32452380Y-29785714D01*
X33452380Y-25738095D02*
X32976190Y-26071428D01*
X33452380Y-26309523D02*
X32452380Y-26309523D01*
X32452380Y-25928571D01*
X32500000Y-25833333D01*
X32547619Y-25785714D01*
X32642857Y-25738095D01*
X32785714Y-25738095D01*
X32880952Y-25785714D01*
X32928571Y-25833333D01*
X32976190Y-25928571D01*
X32976190Y-26309523D01*
X33404761Y-24928571D02*
X33452380Y-25023809D01*
X33452380Y-25214285D01*
X33404761Y-25309523D01*
X33309523Y-25357142D01*
X32928571Y-25357142D01*
X32833333Y-25309523D01*
X32785714Y-25214285D01*
X32785714Y-25023809D01*
X32833333Y-24928571D01*
X32928571Y-24880952D01*
X33023809Y-24880952D01*
X33119047Y-25357142D01*
X33404761Y-24500000D02*
X33452380Y-24404761D01*
X33452380Y-24214285D01*
X33404761Y-24119047D01*
X33309523Y-24071428D01*
X33261904Y-24071428D01*
X33166666Y-24119047D01*
X33119047Y-24214285D01*
X33119047Y-24357142D01*
X33071428Y-24452380D01*
X32976190Y-24500000D01*
X32928571Y-24500000D01*
X32833333Y-24452380D01*
X32785714Y-24357142D01*
X32785714Y-24214285D01*
X32833333Y-24119047D01*
X33404761Y-23261904D02*
X33452380Y-23357142D01*
X33452380Y-23547619D01*
X33404761Y-23642857D01*
X33309523Y-23690476D01*
X32928571Y-23690476D01*
X32833333Y-23642857D01*
X32785714Y-23547619D01*
X32785714Y-23357142D01*
X32833333Y-23261904D01*
X32928571Y-23214285D01*
X33023809Y-23214285D01*
X33119047Y-23690476D01*
X32785714Y-22928571D02*
X32785714Y-22547619D01*
X32452380Y-22785714D02*
X33309523Y-22785714D01*
X33404761Y-22738095D01*
X33452380Y-22642857D01*
X33452380Y-22547619D01*
D11*
X69300000Y-66620000D02*
X69300000Y-67120000D01*
X67900000Y-66620000D02*
X67900000Y-67120000D01*
X67900000Y-66620000D02*
X67300000Y-66620000D01*
X67300000Y-66620000D02*
X67100000Y-66420000D01*
X70100000Y-66420000D02*
X70100000Y-66620000D01*
X70100000Y-66620000D02*
X69300000Y-66620000D01*
X69300000Y-63620000D02*
X70100000Y-63620000D01*
X70100000Y-63620000D02*
X70100000Y-63820000D01*
X67100000Y-63820000D02*
X67100000Y-63620000D01*
X67100000Y-63620000D02*
X67900000Y-63620000D01*
X42828733Y-112510000D02*
X43171267Y-112510000D01*
X42828733Y-111490000D02*
X43171267Y-111490000D01*
X42828733Y-110510000D02*
X43171267Y-110510000D01*
X42828733Y-109490000D02*
X43171267Y-109490000D01*
X43171267Y-108510000D02*
X42828733Y-108510000D01*
X43171267Y-107490000D02*
X42828733Y-107490000D01*
X29921267Y-55490000D02*
X29578733Y-55490000D01*
X29921267Y-56510000D02*
X29578733Y-56510000D01*
X24921267Y-85260000D02*
X24578733Y-85260000D01*
X24921267Y-84240000D02*
X24578733Y-84240000D01*
X42828733Y-100990000D02*
X43171267Y-100990000D01*
X42828733Y-102010000D02*
X43171267Y-102010000D01*
X44750000Y-96990000D02*
X40365000Y-96990000D01*
X40365000Y-96990000D02*
X40365000Y-100010000D01*
X40365000Y-100010000D02*
X44750000Y-100010000D01*
X24671267Y-73740000D02*
X24328733Y-73740000D01*
X24671267Y-74760000D02*
X24328733Y-74760000D01*
X49171267Y-31510000D02*
X48828733Y-31510000D01*
X49171267Y-30490000D02*
X48828733Y-30490000D01*
X62010000Y-29671267D02*
X62010000Y-29328733D01*
X60990000Y-29671267D02*
X60990000Y-29328733D01*
X64010000Y-34328733D02*
X64010000Y-34671267D01*
X62990000Y-34328733D02*
X62990000Y-34671267D01*
X64010000Y-29671267D02*
X64010000Y-29328733D01*
X62990000Y-29671267D02*
X62990000Y-29328733D01*
X76240000Y-112921267D02*
X76240000Y-112578733D01*
X77260000Y-112921267D02*
X77260000Y-112578733D01*
X68028733Y-111890000D02*
X68371267Y-111890000D01*
X68028733Y-112910000D02*
X68371267Y-112910000D01*
X53240000Y-107828733D02*
X53240000Y-108171267D01*
X54260000Y-107828733D02*
X54260000Y-108171267D01*
X79171267Y-67990000D02*
X78828733Y-67990000D01*
X79171267Y-69010000D02*
X78828733Y-69010000D01*
X64510000Y-83635000D02*
X64510000Y-79250000D01*
X61490000Y-83635000D02*
X64510000Y-83635000D01*
X61490000Y-79250000D02*
X61490000Y-83635000D01*
X59490000Y-81171267D02*
X59490000Y-80828733D01*
X60510000Y-81171267D02*
X60510000Y-80828733D01*
X58510000Y-81171267D02*
X58510000Y-80828733D01*
X57490000Y-81171267D02*
X57490000Y-80828733D01*
X55490000Y-81171267D02*
X55490000Y-80828733D01*
X56510000Y-81171267D02*
X56510000Y-80828733D01*
X52510000Y-96828733D02*
X52510000Y-97171267D01*
X51490000Y-96828733D02*
X51490000Y-97171267D01*
X53490000Y-97828733D02*
X53490000Y-98171267D01*
X54510000Y-97828733D02*
X54510000Y-98171267D01*
X83328733Y-92260000D02*
X83671267Y-92260000D01*
X83328733Y-91240000D02*
X83671267Y-91240000D01*
X74348733Y-91360000D02*
X74691267Y-91360000D01*
X74348733Y-92380000D02*
X74691267Y-92380000D01*
X83671267Y-90260000D02*
X83328733Y-90260000D01*
X83671267Y-89240000D02*
X83328733Y-89240000D01*
D10*
X57000000Y-110660000D02*
X85690000Y-110660000D01*
X85690000Y-107660000D02*
X85690000Y-110660000D01*
X80690000Y-107660000D02*
X85690000Y-107660000D01*
X80690000Y-107660000D02*
X80690000Y-97620000D01*
X57000000Y-93620000D02*
X84690000Y-93620000D01*
X85690000Y-94620000D02*
X85690000Y-97620000D01*
X85690000Y-97620000D02*
X80690000Y-97620000D01*
X85690000Y-94620000D02*
X84690000Y-93620000D01*
X57000000Y-93620000D02*
X57000000Y-110660000D01*
D11*
X47760000Y-28580000D02*
X46300000Y-28580000D01*
X47760000Y-25420000D02*
X44600000Y-25420000D01*
X47760000Y-25420000D02*
X47760000Y-26350000D01*
X47760000Y-28580000D02*
X47760000Y-27650000D01*
X57760000Y-28580000D02*
X57760000Y-27650000D01*
X57760000Y-25420000D02*
X57760000Y-26350000D01*
X57760000Y-25420000D02*
X54600000Y-25420000D01*
X57760000Y-28580000D02*
X56300000Y-28580000D01*
D10*
X78125000Y-117825000D02*
X78225000Y-117825000D01*
X78125000Y-113175000D02*
X78325000Y-113175000D01*
X81375000Y-113175000D02*
X81175000Y-113175000D01*
X81375000Y-117825000D02*
X81175000Y-117825000D01*
X78125000Y-117825000D02*
X78125000Y-113175000D01*
X81375000Y-117825000D02*
X81375000Y-113175000D01*
X78225000Y-117825000D02*
X78225000Y-119175000D01*
D11*
X21490000Y-25671267D02*
X21490000Y-25328733D01*
X22510000Y-25671267D02*
X22510000Y-25328733D01*
X50490000Y-117828733D02*
X50490000Y-118171267D01*
X51510000Y-117828733D02*
X51510000Y-118171267D01*
X55010000Y-117828733D02*
X55010000Y-118171267D01*
X53990000Y-117828733D02*
X53990000Y-118171267D01*
X30078733Y-68760000D02*
X30421267Y-68760000D01*
X30078733Y-67740000D02*
X30421267Y-67740000D01*
X33171267Y-67010000D02*
X32828733Y-67010000D01*
X33171267Y-65990000D02*
X32828733Y-65990000D01*
X31421267Y-85260000D02*
X31078733Y-85260000D01*
X31421267Y-84240000D02*
X31078733Y-84240000D01*
X30671267Y-86240000D02*
X30328733Y-86240000D01*
X30671267Y-87260000D02*
X30328733Y-87260000D01*
X26328733Y-87260000D02*
X26671267Y-87260000D01*
X26328733Y-86240000D02*
X26671267Y-86240000D01*
X25828733Y-71990000D02*
X26171267Y-71990000D01*
X25828733Y-73010000D02*
X26171267Y-73010000D01*
X29578733Y-73010000D02*
X29921267Y-73010000D01*
X29578733Y-71990000D02*
X29921267Y-71990000D01*
X53171267Y-31510000D02*
X52828733Y-31510000D01*
X53171267Y-30490000D02*
X52828733Y-30490000D01*
X31578733Y-73740000D02*
X31921267Y-73740000D01*
X31578733Y-74760000D02*
X31921267Y-74760000D01*
X85010000Y-29078733D02*
X85010000Y-29421267D01*
X83990000Y-29078733D02*
X83990000Y-29421267D01*
X42171267Y-25490000D02*
X41828733Y-25490000D01*
X42171267Y-26510000D02*
X41828733Y-26510000D01*
X52171267Y-26490000D02*
X51828733Y-26490000D01*
X52171267Y-27510000D02*
X51828733Y-27510000D01*
X74010000Y-112578733D02*
X74010000Y-112921267D01*
X72990000Y-112578733D02*
X72990000Y-112921267D01*
X70521267Y-118290000D02*
X70178733Y-118290000D01*
X70521267Y-119310000D02*
X70178733Y-119310000D01*
X58990000Y-116578733D02*
X58990000Y-116921267D01*
X60010000Y-116578733D02*
X60010000Y-116921267D01*
X58990000Y-112921267D02*
X58990000Y-112578733D01*
X60010000Y-112921267D02*
X60010000Y-112578733D01*
X79510000Y-91171267D02*
X79510000Y-90828733D01*
X78490000Y-91171267D02*
X78490000Y-90828733D01*
X80240000Y-91171267D02*
X80240000Y-90828733D01*
X81260000Y-91171267D02*
X81260000Y-90828733D01*
X77760000Y-91171267D02*
X77760000Y-90828733D01*
X76740000Y-91171267D02*
X76740000Y-90828733D01*
X24400000Y-26350000D02*
X30600000Y-26350000D01*
X30600000Y-22650000D02*
X24400000Y-22650000D01*
X24400000Y-22650000D02*
X24400000Y-23300000D01*
X24400000Y-25700000D02*
X24400000Y-26350000D01*
X30600000Y-26350000D02*
X30600000Y-25700000D01*
X30600000Y-22650000D02*
X30600000Y-23300000D01*
X30600000Y-28650000D02*
X30600000Y-29300000D01*
X30600000Y-32350000D02*
X30600000Y-31700000D01*
X24400000Y-31700000D02*
X24400000Y-32350000D01*
X24400000Y-28650000D02*
X24400000Y-29300000D01*
X30600000Y-28650000D02*
X24400000Y-28650000D01*
X24400000Y-32350000D02*
X30600000Y-32350000D01*
X39120000Y-89700000D02*
X39120000Y-88920000D01*
X39120000Y-88920000D02*
X38120000Y-88920000D01*
X20880000Y-89700000D02*
X20880000Y-88920000D01*
X20880000Y-88920000D02*
X21880000Y-88920000D01*
X39120000Y-119865000D02*
X20880000Y-119865000D01*
X20880000Y-119865000D02*
X20880000Y-113445000D01*
X39120000Y-119865000D02*
X39120000Y-113445000D01*
X39120000Y-113445000D02*
X39500000Y-113445000D01*
D10*
X39750000Y-113750000D02*
X44250000Y-113750000D01*
X44250000Y-113750000D02*
X44250000Y-125000000D01*
X44250000Y-125000000D02*
X15750000Y-125000000D01*
X15750000Y-125000000D02*
X15750000Y-113750000D01*
X15750000Y-113750000D02*
X20250000Y-113750000D01*
X32525000Y-63825000D02*
X32500000Y-63825000D01*
X24475000Y-63825000D02*
X24500000Y-63825000D01*
X24475000Y-59175000D02*
X24500000Y-59175000D01*
X32575000Y-58100000D02*
X32575000Y-63825000D01*
X24475000Y-59175000D02*
X24475000Y-63825000D01*
D11*
X43900000Y-102890000D02*
X42100000Y-102890000D01*
X42100000Y-106110000D02*
X44550000Y-106110000D01*
D10*
X31700000Y-81725000D02*
X31700000Y-77275000D01*
X24800000Y-83250000D02*
X24800000Y-77275000D01*
X60500000Y-56600000D02*
X60500000Y-54300000D01*
X45500000Y-56600000D02*
X45500000Y-54300000D01*
X64790000Y-42100000D02*
X59750000Y-42100000D01*
X64790000Y-54300000D02*
X60500000Y-54300000D01*
X64790000Y-54300000D02*
X64790000Y-42100000D01*
X41210000Y-54300000D02*
X41210000Y-42100000D01*
X45500000Y-54300000D02*
X41210000Y-54300000D01*
X59750000Y-42100000D02*
X59750000Y-35600000D01*
X46250000Y-42100000D02*
X46250000Y-35600000D01*
X46250000Y-42100000D02*
X41210000Y-42100000D01*
X59750000Y-40100000D02*
X46250000Y-40100000D01*
X59750000Y-35600000D02*
X46250000Y-35600000D01*
X82000000Y-21000000D02*
X66000000Y-21000000D01*
X82000000Y-37000000D02*
X66000000Y-37000000D01*
X82000000Y-37000000D02*
X82000000Y-21000000D01*
X66000000Y-37000000D02*
X66000000Y-21000000D01*
X65750000Y-20500000D02*
G75*
G03X65750000Y-20500000I-250000J0D01*
G01*
D11*
X59750000Y-32000000D02*
X59750000Y-30000000D01*
X59750000Y-30000000D02*
X55850000Y-30000000D01*
X59750000Y-32000000D02*
X55850000Y-32000000D01*
X74600000Y-118110000D02*
X76400000Y-118110000D01*
X76400000Y-114890000D02*
X73950000Y-114890000D01*
X64750000Y-118925000D02*
X66700000Y-118925000D01*
X64750000Y-118925000D02*
X62800000Y-118925000D01*
X64750000Y-113805000D02*
X66700000Y-113805000D01*
X64750000Y-113805000D02*
X61300000Y-113805000D01*
D10*
X51075000Y-112325000D02*
X51075000Y-112300000D01*
X46925000Y-112325000D02*
X46925000Y-112220000D01*
X46925000Y-102175000D02*
X46925000Y-102280000D01*
X51075000Y-102175000D02*
X51075000Y-102280000D01*
X51075000Y-112325000D02*
X46925000Y-112325000D01*
X51075000Y-102175000D02*
X46925000Y-102175000D01*
X51075000Y-112300000D02*
X52450000Y-112300000D01*
X66400000Y-87050000D02*
X66400000Y-71250000D01*
X84100000Y-87050000D02*
X66400000Y-87050000D01*
X84100000Y-87050000D02*
X84100000Y-71250000D01*
X84100000Y-71250000D02*
X66400000Y-71250000D01*
X80450000Y-74900000D02*
G75*
G03X80450000Y-74900000I-1750000J0D01*
G01*
X71850000Y-74900000D02*
G75*
G03X71850000Y-74900000I-1750000J0D01*
G01*
D11*
X23970000Y-52090000D02*
X24200000Y-52090000D01*
X20300000Y-52610000D02*
X20300000Y-44890000D01*
X20300000Y-44890000D02*
X24200000Y-44890000D01*
X27310000Y-52610000D02*
X27310000Y-52090000D01*
X20300000Y-52610000D02*
X24200000Y-52610000D01*
X23970000Y-45410000D02*
X24200000Y-45410000D01*
X26800000Y-52090000D02*
X27310000Y-52090000D01*
X26800000Y-52610000D02*
X27310000Y-52610000D01*
X23970000Y-45950000D02*
X23970000Y-45410000D01*
X26800000Y-45410000D02*
X27310000Y-45410000D01*
X27310000Y-45410000D02*
X27310000Y-44890000D01*
X26800000Y-44890000D02*
X27310000Y-44890000D01*
X23970000Y-52090000D02*
X23970000Y-51550000D01*
X23970000Y-50450000D02*
X23970000Y-47050000D01*
X82030000Y-50910000D02*
X81800000Y-50910000D01*
X85700000Y-50390000D02*
X85700000Y-58110000D01*
X85700000Y-58110000D02*
X81800000Y-58110000D01*
X78690000Y-50390000D02*
X78690000Y-50910000D01*
X85700000Y-50390000D02*
X81800000Y-50390000D01*
X82030000Y-57590000D02*
X81800000Y-57590000D01*
X79200000Y-50910000D02*
X78690000Y-50910000D01*
X79200000Y-50390000D02*
X78690000Y-50390000D01*
X82030000Y-57050000D02*
X82030000Y-57590000D01*
X79200000Y-57590000D02*
X78690000Y-57590000D01*
X78690000Y-57590000D02*
X78690000Y-58110000D01*
X79200000Y-58110000D02*
X78690000Y-58110000D01*
X82030000Y-50910000D02*
X82030000Y-51450000D01*
X82030000Y-52550000D02*
X82030000Y-55950000D01*
X82030000Y-40550000D02*
X82030000Y-43950000D01*
X82030000Y-38910000D02*
X82030000Y-39450000D01*
X79200000Y-46110000D02*
X78690000Y-46110000D01*
X78690000Y-45590000D02*
X78690000Y-46110000D01*
X79200000Y-45590000D02*
X78690000Y-45590000D01*
X82030000Y-45050000D02*
X82030000Y-45590000D01*
X79200000Y-38390000D02*
X78690000Y-38390000D01*
X79200000Y-38910000D02*
X78690000Y-38910000D01*
X82030000Y-45590000D02*
X81800000Y-45590000D01*
X85700000Y-38390000D02*
X81800000Y-38390000D01*
X78690000Y-38390000D02*
X78690000Y-38910000D01*
X85700000Y-46110000D02*
X81800000Y-46110000D01*
X85700000Y-38390000D02*
X85700000Y-46110000D01*
X82030000Y-38910000D02*
X81800000Y-38910000D01*
X70750000Y-114470000D02*
X72080000Y-114470000D01*
X72080000Y-114470000D02*
X72080000Y-115800000D01*
X72080000Y-117010000D02*
X72080000Y-117130000D01*
X69420000Y-117010000D02*
X69420000Y-117130000D01*
X69420000Y-117130000D02*
X72080000Y-117130000D01*
X82420000Y-114580000D02*
X85080000Y-114580000D01*
X82420000Y-114460000D02*
X82420000Y-114580000D01*
X85080000Y-114460000D02*
X85080000Y-114580000D01*
X85080000Y-111920000D02*
X85080000Y-113250000D01*
X83750000Y-111920000D02*
X85080000Y-111920000D01*
X41971267Y-89710000D02*
X41628733Y-89710000D01*
X41971267Y-88690000D02*
X41628733Y-88690000D01*
D10*
X25666666Y-37252380D02*
X25333333Y-36776190D01*
X25095238Y-37252380D02*
X25095238Y-36252380D01*
X25476190Y-36252380D01*
X25571428Y-36300000D01*
X25619047Y-36347619D01*
X25666666Y-36442857D01*
X25666666Y-36585714D01*
X25619047Y-36680952D01*
X25571428Y-36728571D01*
X25476190Y-36776190D01*
X25095238Y-36776190D01*
X26095238Y-36728571D02*
X26428571Y-36728571D01*
X26571428Y-37252380D02*
X26095238Y-37252380D01*
X26095238Y-36252380D01*
X26571428Y-36252380D01*
X27333333Y-36728571D02*
X27000000Y-36728571D01*
X27000000Y-37252380D02*
X27000000Y-36252380D01*
X27476190Y-36252380D01*
X28000000Y-36252380D02*
X28000000Y-36490476D01*
X27761904Y-36395238D02*
X28000000Y-36490476D01*
X28238095Y-36395238D01*
X27857142Y-36680952D02*
X28000000Y-36490476D01*
X28142857Y-36680952D01*
X28761904Y-36252380D02*
X28761904Y-36490476D01*
X28523809Y-36395238D02*
X28761904Y-36490476D01*
X29000000Y-36395238D01*
X28619047Y-36680952D02*
X28761904Y-36490476D01*
X28904761Y-36680952D01*
X75499940Y-60419106D02*
X75166607Y-59942916D01*
X74928512Y-60419106D02*
X74928512Y-59419106D01*
X75309464Y-59419106D01*
X75404702Y-59466726D01*
X75452321Y-59514345D01*
X75499940Y-59609583D01*
X75499940Y-59752440D01*
X75452321Y-59847678D01*
X75404702Y-59895297D01*
X75309464Y-59942916D01*
X74928512Y-59942916D01*
X75928512Y-59895297D02*
X76261845Y-59895297D01*
X76404702Y-60419106D02*
X75928512Y-60419106D01*
X75928512Y-59419106D01*
X76404702Y-59419106D01*
X77166607Y-59895297D02*
X76833274Y-59895297D01*
X76833274Y-60419106D02*
X76833274Y-59419106D01*
X77309464Y-59419106D01*
X77833274Y-59419106D02*
X77833274Y-59657202D01*
X77595178Y-59561964D02*
X77833274Y-59657202D01*
X78071369Y-59561964D01*
X77690416Y-59847678D02*
X77833274Y-59657202D01*
X77976131Y-59847678D01*
X78595178Y-59419106D02*
X78595178Y-59657202D01*
X78357083Y-59561964D02*
X78595178Y-59657202D01*
X78833274Y-59561964D01*
X78452321Y-59847678D02*
X78595178Y-59657202D01*
X78738035Y-59847678D01*
X67433333Y-68786666D02*
X67909523Y-68786666D01*
X67338095Y-69072380D02*
X67671428Y-68072380D01*
X68004761Y-69072380D01*
X68338095Y-68548571D02*
X68671428Y-68548571D01*
X68814285Y-69072380D02*
X68338095Y-69072380D01*
X68338095Y-68072380D01*
X68814285Y-68072380D01*
X69766666Y-69072380D02*
X69195238Y-69072380D01*
X69480952Y-69072380D02*
X69480952Y-68072380D01*
X69385714Y-68215238D01*
X69290476Y-68310476D01*
X69195238Y-68358095D01*
X40857142Y-112166666D02*
X40904761Y-112214285D01*
X40952380Y-112357142D01*
X40952380Y-112452380D01*
X40904761Y-112595238D01*
X40809523Y-112690476D01*
X40714285Y-112738095D01*
X40523809Y-112785714D01*
X40380952Y-112785714D01*
X40190476Y-112738095D01*
X40095238Y-112690476D01*
X40000000Y-112595238D01*
X39952380Y-112452380D01*
X39952380Y-112357142D01*
X40000000Y-112214285D01*
X40047619Y-112166666D01*
X40952380Y-111214285D02*
X40952380Y-111785714D01*
X40952380Y-111500000D02*
X39952380Y-111500000D01*
X40095238Y-111595238D01*
X40190476Y-111690476D01*
X40238095Y-111785714D01*
X40857142Y-110166666D02*
X40904761Y-110214285D01*
X40952380Y-110357142D01*
X40952380Y-110452380D01*
X40904761Y-110595238D01*
X40809523Y-110690476D01*
X40714285Y-110738095D01*
X40523809Y-110785714D01*
X40380952Y-110785714D01*
X40190476Y-110738095D01*
X40095238Y-110690476D01*
X40000000Y-110595238D01*
X39952380Y-110452380D01*
X39952380Y-110357142D01*
X40000000Y-110214285D01*
X40047619Y-110166666D01*
X40047619Y-109785714D02*
X40000000Y-109738095D01*
X39952380Y-109642857D01*
X39952380Y-109404761D01*
X40000000Y-109309523D01*
X40047619Y-109261904D01*
X40142857Y-109214285D01*
X40238095Y-109214285D01*
X40380952Y-109261904D01*
X40952380Y-109833333D01*
X40952380Y-109214285D01*
X40857142Y-108166666D02*
X40904761Y-108214285D01*
X40952380Y-108357142D01*
X40952380Y-108452380D01*
X40904761Y-108595238D01*
X40809523Y-108690476D01*
X40714285Y-108738095D01*
X40523809Y-108785714D01*
X40380952Y-108785714D01*
X40190476Y-108738095D01*
X40095238Y-108690476D01*
X40000000Y-108595238D01*
X39952380Y-108452380D01*
X39952380Y-108357142D01*
X40000000Y-108214285D01*
X40047619Y-108166666D01*
X39952380Y-107833333D02*
X39952380Y-107214285D01*
X40333333Y-107547619D01*
X40333333Y-107404761D01*
X40380952Y-107309523D01*
X40428571Y-107261904D01*
X40523809Y-107214285D01*
X40761904Y-107214285D01*
X40857142Y-107261904D01*
X40904761Y-107309523D01*
X40952380Y-107404761D01*
X40952380Y-107690476D01*
X40904761Y-107785714D01*
X40857142Y-107833333D01*
X29583333Y-54857142D02*
X29535714Y-54904761D01*
X29392857Y-54952380D01*
X29297619Y-54952380D01*
X29154761Y-54904761D01*
X29059523Y-54809523D01*
X29011904Y-54714285D01*
X28964285Y-54523809D01*
X28964285Y-54380952D01*
X29011904Y-54190476D01*
X29059523Y-54095238D01*
X29154761Y-54000000D01*
X29297619Y-53952380D01*
X29392857Y-53952380D01*
X29535714Y-54000000D01*
X29583333Y-54047619D01*
X30440476Y-54285714D02*
X30440476Y-54952380D01*
X30202380Y-53904761D02*
X29964285Y-54619047D01*
X30583333Y-54619047D01*
X21833333Y-85107142D02*
X21785714Y-85154761D01*
X21642857Y-85202380D01*
X21547619Y-85202380D01*
X21404761Y-85154761D01*
X21309523Y-85059523D01*
X21261904Y-84964285D01*
X21214285Y-84773809D01*
X21214285Y-84630952D01*
X21261904Y-84440476D01*
X21309523Y-84345238D01*
X21404761Y-84250000D01*
X21547619Y-84202380D01*
X21642857Y-84202380D01*
X21785714Y-84250000D01*
X21833333Y-84297619D01*
X22738095Y-84202380D02*
X22261904Y-84202380D01*
X22214285Y-84678571D01*
X22261904Y-84630952D01*
X22357142Y-84583333D01*
X22595238Y-84583333D01*
X22690476Y-84630952D01*
X22738095Y-84678571D01*
X22785714Y-84773809D01*
X22785714Y-85011904D01*
X22738095Y-85107142D01*
X22690476Y-85154761D01*
X22595238Y-85202380D01*
X22357142Y-85202380D01*
X22261904Y-85154761D01*
X22214285Y-85107142D01*
X40857142Y-101666666D02*
X40904761Y-101714285D01*
X40952380Y-101857142D01*
X40952380Y-101952380D01*
X40904761Y-102095238D01*
X40809523Y-102190476D01*
X40714285Y-102238095D01*
X40523809Y-102285714D01*
X40380952Y-102285714D01*
X40190476Y-102238095D01*
X40095238Y-102190476D01*
X40000000Y-102095238D01*
X39952380Y-101952380D01*
X39952380Y-101857142D01*
X40000000Y-101714285D01*
X40047619Y-101666666D01*
X39952380Y-100809523D02*
X39952380Y-101000000D01*
X40000000Y-101095238D01*
X40047619Y-101142857D01*
X40190476Y-101238095D01*
X40380952Y-101285714D01*
X40761904Y-101285714D01*
X40857142Y-101238095D01*
X40904761Y-101190476D01*
X40952380Y-101095238D01*
X40952380Y-100904761D01*
X40904761Y-100809523D01*
X40857142Y-100761904D01*
X40761904Y-100714285D01*
X40523809Y-100714285D01*
X40428571Y-100761904D01*
X40380952Y-100809523D01*
X40333333Y-100904761D01*
X40333333Y-101095238D01*
X40380952Y-101190476D01*
X40428571Y-101238095D01*
X40523809Y-101285714D01*
X42833333Y-96507142D02*
X42785714Y-96554761D01*
X42642857Y-96602380D01*
X42547619Y-96602380D01*
X42404761Y-96554761D01*
X42309523Y-96459523D01*
X42261904Y-96364285D01*
X42214285Y-96173809D01*
X42214285Y-96030952D01*
X42261904Y-95840476D01*
X42309523Y-95745238D01*
X42404761Y-95650000D01*
X42547619Y-95602380D01*
X42642857Y-95602380D01*
X42785714Y-95650000D01*
X42833333Y-95697619D01*
X43166666Y-95602380D02*
X43833333Y-95602380D01*
X43404761Y-96602380D01*
X21583333Y-74607142D02*
X21535714Y-74654761D01*
X21392857Y-74702380D01*
X21297619Y-74702380D01*
X21154761Y-74654761D01*
X21059523Y-74559523D01*
X21011904Y-74464285D01*
X20964285Y-74273809D01*
X20964285Y-74130952D01*
X21011904Y-73940476D01*
X21059523Y-73845238D01*
X21154761Y-73750000D01*
X21297619Y-73702380D01*
X21392857Y-73702380D01*
X21535714Y-73750000D01*
X21583333Y-73797619D01*
X22154761Y-74130952D02*
X22059523Y-74083333D01*
X22011904Y-74035714D01*
X21964285Y-73940476D01*
X21964285Y-73892857D01*
X22011904Y-73797619D01*
X22059523Y-73750000D01*
X22154761Y-73702380D01*
X22345238Y-73702380D01*
X22440476Y-73750000D01*
X22488095Y-73797619D01*
X22535714Y-73892857D01*
X22535714Y-73940476D01*
X22488095Y-74035714D01*
X22440476Y-74083333D01*
X22345238Y-74130952D01*
X22154761Y-74130952D01*
X22059523Y-74178571D01*
X22011904Y-74226190D01*
X21964285Y-74321428D01*
X21964285Y-74511904D01*
X22011904Y-74607142D01*
X22059523Y-74654761D01*
X22154761Y-74702380D01*
X22345238Y-74702380D01*
X22440476Y-74654761D01*
X22488095Y-74607142D01*
X22535714Y-74511904D01*
X22535714Y-74321428D01*
X22488095Y-74226190D01*
X22440476Y-74178571D01*
X22345238Y-74130952D01*
X46857142Y-31166666D02*
X46904761Y-31214285D01*
X46952380Y-31357142D01*
X46952380Y-31452380D01*
X46904761Y-31595238D01*
X46809523Y-31690476D01*
X46714285Y-31738095D01*
X46523809Y-31785714D01*
X46380952Y-31785714D01*
X46190476Y-31738095D01*
X46095238Y-31690476D01*
X46000000Y-31595238D01*
X45952380Y-31452380D01*
X45952380Y-31357142D01*
X46000000Y-31214285D01*
X46047619Y-31166666D01*
X46952380Y-30690476D02*
X46952380Y-30500000D01*
X46904761Y-30404761D01*
X46857142Y-30357142D01*
X46714285Y-30261904D01*
X46523809Y-30214285D01*
X46142857Y-30214285D01*
X46047619Y-30261904D01*
X46000000Y-30309523D01*
X45952380Y-30404761D01*
X45952380Y-30595238D01*
X46000000Y-30690476D01*
X46047619Y-30738095D01*
X46142857Y-30785714D01*
X46380952Y-30785714D01*
X46476190Y-30738095D01*
X46523809Y-30690476D01*
X46571428Y-30595238D01*
X46571428Y-30404761D01*
X46523809Y-30309523D01*
X46476190Y-30261904D01*
X46380952Y-30214285D01*
X61857142Y-26642857D02*
X61904761Y-26690476D01*
X61952380Y-26833333D01*
X61952380Y-26928571D01*
X61904761Y-27071428D01*
X61809523Y-27166666D01*
X61714285Y-27214285D01*
X61523809Y-27261904D01*
X61380952Y-27261904D01*
X61190476Y-27214285D01*
X61095238Y-27166666D01*
X61000000Y-27071428D01*
X60952380Y-26928571D01*
X60952380Y-26833333D01*
X61000000Y-26690476D01*
X61047619Y-26642857D01*
X61952380Y-25690476D02*
X61952380Y-26261904D01*
X61952380Y-25976190D02*
X60952380Y-25976190D01*
X61095238Y-26071428D01*
X61190476Y-26166666D01*
X61238095Y-26261904D01*
X60952380Y-25071428D02*
X60952380Y-24976190D01*
X61000000Y-24880952D01*
X61047619Y-24833333D01*
X61142857Y-24785714D01*
X61333333Y-24738095D01*
X61571428Y-24738095D01*
X61761904Y-24785714D01*
X61857142Y-24833333D01*
X61904761Y-24880952D01*
X61952380Y-24976190D01*
X61952380Y-25071428D01*
X61904761Y-25166666D01*
X61857142Y-25214285D01*
X61761904Y-25261904D01*
X61571428Y-25309523D01*
X61333333Y-25309523D01*
X61142857Y-25261904D01*
X61047619Y-25214285D01*
X61000000Y-25166666D01*
X60952380Y-25071428D01*
X63857142Y-38642857D02*
X63904761Y-38690476D01*
X63952380Y-38833333D01*
X63952380Y-38928571D01*
X63904761Y-39071428D01*
X63809523Y-39166666D01*
X63714285Y-39214285D01*
X63523809Y-39261904D01*
X63380952Y-39261904D01*
X63190476Y-39214285D01*
X63095238Y-39166666D01*
X63000000Y-39071428D01*
X62952380Y-38928571D01*
X62952380Y-38833333D01*
X63000000Y-38690476D01*
X63047619Y-38642857D01*
X63952380Y-37690476D02*
X63952380Y-38261904D01*
X63952380Y-37976190D02*
X62952380Y-37976190D01*
X63095238Y-38071428D01*
X63190476Y-38166666D01*
X63238095Y-38261904D01*
X63952380Y-36738095D02*
X63952380Y-37309523D01*
X63952380Y-37023809D02*
X62952380Y-37023809D01*
X63095238Y-37119047D01*
X63190476Y-37214285D01*
X63238095Y-37309523D01*
X63857142Y-26642857D02*
X63904761Y-26690476D01*
X63952380Y-26833333D01*
X63952380Y-26928571D01*
X63904761Y-27071428D01*
X63809523Y-27166666D01*
X63714285Y-27214285D01*
X63523809Y-27261904D01*
X63380952Y-27261904D01*
X63190476Y-27214285D01*
X63095238Y-27166666D01*
X63000000Y-27071428D01*
X62952380Y-26928571D01*
X62952380Y-26833333D01*
X63000000Y-26690476D01*
X63047619Y-26642857D01*
X63952380Y-25690476D02*
X63952380Y-26261904D01*
X63952380Y-25976190D02*
X62952380Y-25976190D01*
X63095238Y-26071428D01*
X63190476Y-26166666D01*
X63238095Y-26261904D01*
X63047619Y-25309523D02*
X63000000Y-25261904D01*
X62952380Y-25166666D01*
X62952380Y-24928571D01*
X63000000Y-24833333D01*
X63047619Y-24785714D01*
X63142857Y-24738095D01*
X63238095Y-24738095D01*
X63380952Y-24785714D01*
X63952380Y-25357142D01*
X63952380Y-24738095D01*
X77107142Y-109642857D02*
X77154761Y-109690476D01*
X77202380Y-109833333D01*
X77202380Y-109928571D01*
X77154761Y-110071428D01*
X77059523Y-110166666D01*
X76964285Y-110214285D01*
X76773809Y-110261904D01*
X76630952Y-110261904D01*
X76440476Y-110214285D01*
X76345238Y-110166666D01*
X76250000Y-110071428D01*
X76202380Y-109928571D01*
X76202380Y-109833333D01*
X76250000Y-109690476D01*
X76297619Y-109642857D01*
X77202380Y-108690476D02*
X77202380Y-109261904D01*
X77202380Y-108976190D02*
X76202380Y-108976190D01*
X76345238Y-109071428D01*
X76440476Y-109166666D01*
X76488095Y-109261904D01*
X76202380Y-108357142D02*
X76202380Y-107738095D01*
X76583333Y-108071428D01*
X76583333Y-107928571D01*
X76630952Y-107833333D01*
X76678571Y-107785714D01*
X76773809Y-107738095D01*
X77011904Y-107738095D01*
X77107142Y-107785714D01*
X77154761Y-107833333D01*
X77202380Y-107928571D01*
X77202380Y-108214285D01*
X77154761Y-108309523D01*
X77107142Y-108357142D01*
X67557142Y-111157142D02*
X67509523Y-111204761D01*
X67366666Y-111252380D01*
X67271428Y-111252380D01*
X67128571Y-111204761D01*
X67033333Y-111109523D01*
X66985714Y-111014285D01*
X66938095Y-110823809D01*
X66938095Y-110680952D01*
X66985714Y-110490476D01*
X67033333Y-110395238D01*
X67128571Y-110300000D01*
X67271428Y-110252380D01*
X67366666Y-110252380D01*
X67509523Y-110300000D01*
X67557142Y-110347619D01*
X68509523Y-111252380D02*
X67938095Y-111252380D01*
X68223809Y-111252380D02*
X68223809Y-110252380D01*
X68128571Y-110395238D01*
X68033333Y-110490476D01*
X67938095Y-110538095D01*
X69366666Y-110585714D02*
X69366666Y-111252380D01*
X69128571Y-110204761D02*
X68890476Y-110919047D01*
X69509523Y-110919047D01*
X55537142Y-108642857D02*
X55584761Y-108690476D01*
X55632380Y-108833333D01*
X55632380Y-108928571D01*
X55584761Y-109071428D01*
X55489523Y-109166666D01*
X55394285Y-109214285D01*
X55203809Y-109261904D01*
X55060952Y-109261904D01*
X54870476Y-109214285D01*
X54775238Y-109166666D01*
X54680000Y-109071428D01*
X54632380Y-108928571D01*
X54632380Y-108833333D01*
X54680000Y-108690476D01*
X54727619Y-108642857D01*
X55632380Y-107690476D02*
X55632380Y-108261904D01*
X55632380Y-107976190D02*
X54632380Y-107976190D01*
X54775238Y-108071428D01*
X54870476Y-108166666D01*
X54918095Y-108261904D01*
X54632380Y-106785714D02*
X54632380Y-107261904D01*
X55108571Y-107309523D01*
X55060952Y-107261904D01*
X55013333Y-107166666D01*
X55013333Y-106928571D01*
X55060952Y-106833333D01*
X55108571Y-106785714D01*
X55203809Y-106738095D01*
X55441904Y-106738095D01*
X55537142Y-106785714D01*
X55584761Y-106833333D01*
X55632380Y-106928571D01*
X55632380Y-107166666D01*
X55584761Y-107261904D01*
X55537142Y-107309523D01*
X81857142Y-68857142D02*
X81809523Y-68904761D01*
X81666666Y-68952380D01*
X81571428Y-68952380D01*
X81428571Y-68904761D01*
X81333333Y-68809523D01*
X81285714Y-68714285D01*
X81238095Y-68523809D01*
X81238095Y-68380952D01*
X81285714Y-68190476D01*
X81333333Y-68095238D01*
X81428571Y-68000000D01*
X81571428Y-67952380D01*
X81666666Y-67952380D01*
X81809523Y-68000000D01*
X81857142Y-68047619D01*
X82809523Y-68952380D02*
X82238095Y-68952380D01*
X82523809Y-68952380D02*
X82523809Y-67952380D01*
X82428571Y-68095238D01*
X82333333Y-68190476D01*
X82238095Y-68238095D01*
X83666666Y-67952380D02*
X83476190Y-67952380D01*
X83380952Y-68000000D01*
X83333333Y-68047619D01*
X83238095Y-68190476D01*
X83190476Y-68380952D01*
X83190476Y-68761904D01*
X83238095Y-68857142D01*
X83285714Y-68904761D01*
X83380952Y-68952380D01*
X83571428Y-68952380D01*
X83666666Y-68904761D01*
X83714285Y-68857142D01*
X83761904Y-68761904D01*
X83761904Y-68523809D01*
X83714285Y-68428571D01*
X83666666Y-68380952D01*
X83571428Y-68333333D01*
X83380952Y-68333333D01*
X83285714Y-68380952D01*
X83238095Y-68428571D01*
X83190476Y-68523809D01*
X63357142Y-77142857D02*
X63404761Y-77190476D01*
X63452380Y-77333333D01*
X63452380Y-77428571D01*
X63404761Y-77571428D01*
X63309523Y-77666666D01*
X63214285Y-77714285D01*
X63023809Y-77761904D01*
X62880952Y-77761904D01*
X62690476Y-77714285D01*
X62595238Y-77666666D01*
X62500000Y-77571428D01*
X62452380Y-77428571D01*
X62452380Y-77333333D01*
X62500000Y-77190476D01*
X62547619Y-77142857D01*
X63452380Y-76190476D02*
X63452380Y-76761904D01*
X63452380Y-76476190D02*
X62452380Y-76476190D01*
X62595238Y-76571428D01*
X62690476Y-76666666D01*
X62738095Y-76761904D01*
X62452380Y-75857142D02*
X62452380Y-75190476D01*
X63452380Y-75619047D01*
X60357142Y-85142857D02*
X60404761Y-85190476D01*
X60452380Y-85333333D01*
X60452380Y-85428571D01*
X60404761Y-85571428D01*
X60309523Y-85666666D01*
X60214285Y-85714285D01*
X60023809Y-85761904D01*
X59880952Y-85761904D01*
X59690476Y-85714285D01*
X59595238Y-85666666D01*
X59500000Y-85571428D01*
X59452380Y-85428571D01*
X59452380Y-85333333D01*
X59500000Y-85190476D01*
X59547619Y-85142857D01*
X60452380Y-84190476D02*
X60452380Y-84761904D01*
X60452380Y-84476190D02*
X59452380Y-84476190D01*
X59595238Y-84571428D01*
X59690476Y-84666666D01*
X59738095Y-84761904D01*
X59880952Y-83619047D02*
X59833333Y-83714285D01*
X59785714Y-83761904D01*
X59690476Y-83809523D01*
X59642857Y-83809523D01*
X59547619Y-83761904D01*
X59500000Y-83714285D01*
X59452380Y-83619047D01*
X59452380Y-83428571D01*
X59500000Y-83333333D01*
X59547619Y-83285714D01*
X59642857Y-83238095D01*
X59690476Y-83238095D01*
X59785714Y-83285714D01*
X59833333Y-83333333D01*
X59880952Y-83428571D01*
X59880952Y-83619047D01*
X59928571Y-83714285D01*
X59976190Y-83761904D01*
X60071428Y-83809523D01*
X60261904Y-83809523D01*
X60357142Y-83761904D01*
X60404761Y-83714285D01*
X60452380Y-83619047D01*
X60452380Y-83428571D01*
X60404761Y-83333333D01*
X60357142Y-83285714D01*
X60261904Y-83238095D01*
X60071428Y-83238095D01*
X59976190Y-83285714D01*
X59928571Y-83333333D01*
X59880952Y-83428571D01*
X58357142Y-78142857D02*
X58404761Y-78190476D01*
X58452380Y-78333333D01*
X58452380Y-78428571D01*
X58404761Y-78571428D01*
X58309523Y-78666666D01*
X58214285Y-78714285D01*
X58023809Y-78761904D01*
X57880952Y-78761904D01*
X57690476Y-78714285D01*
X57595238Y-78666666D01*
X57500000Y-78571428D01*
X57452380Y-78428571D01*
X57452380Y-78333333D01*
X57500000Y-78190476D01*
X57547619Y-78142857D01*
X58452380Y-77190476D02*
X58452380Y-77761904D01*
X58452380Y-77476190D02*
X57452380Y-77476190D01*
X57595238Y-77571428D01*
X57690476Y-77666666D01*
X57738095Y-77761904D01*
X58452380Y-76714285D02*
X58452380Y-76523809D01*
X58404761Y-76428571D01*
X58357142Y-76380952D01*
X58214285Y-76285714D01*
X58023809Y-76238095D01*
X57642857Y-76238095D01*
X57547619Y-76285714D01*
X57500000Y-76333333D01*
X57452380Y-76428571D01*
X57452380Y-76619047D01*
X57500000Y-76714285D01*
X57547619Y-76761904D01*
X57642857Y-76809523D01*
X57880952Y-76809523D01*
X57976190Y-76761904D01*
X58023809Y-76714285D01*
X58071428Y-76619047D01*
X58071428Y-76428571D01*
X58023809Y-76333333D01*
X57976190Y-76285714D01*
X57880952Y-76238095D01*
X56357142Y-78142857D02*
X56404761Y-78190476D01*
X56452380Y-78333333D01*
X56452380Y-78428571D01*
X56404761Y-78571428D01*
X56309523Y-78666666D01*
X56214285Y-78714285D01*
X56023809Y-78761904D01*
X55880952Y-78761904D01*
X55690476Y-78714285D01*
X55595238Y-78666666D01*
X55500000Y-78571428D01*
X55452380Y-78428571D01*
X55452380Y-78333333D01*
X55500000Y-78190476D01*
X55547619Y-78142857D01*
X55547619Y-77761904D02*
X55500000Y-77714285D01*
X55452380Y-77619047D01*
X55452380Y-77380952D01*
X55500000Y-77285714D01*
X55547619Y-77238095D01*
X55642857Y-77190476D01*
X55738095Y-77190476D01*
X55880952Y-77238095D01*
X56452380Y-77809523D01*
X56452380Y-77190476D01*
X55452380Y-76571428D02*
X55452380Y-76476190D01*
X55500000Y-76380952D01*
X55547619Y-76333333D01*
X55642857Y-76285714D01*
X55833333Y-76238095D01*
X56071428Y-76238095D01*
X56261904Y-76285714D01*
X56357142Y-76333333D01*
X56404761Y-76380952D01*
X56452380Y-76476190D01*
X56452380Y-76571428D01*
X56404761Y-76666666D01*
X56357142Y-76714285D01*
X56261904Y-76761904D01*
X56071428Y-76809523D01*
X55833333Y-76809523D01*
X55642857Y-76761904D01*
X55547619Y-76714285D01*
X55500000Y-76666666D01*
X55452380Y-76571428D01*
X52357142Y-94142857D02*
X52404761Y-94190476D01*
X52452380Y-94333333D01*
X52452380Y-94428571D01*
X52404761Y-94571428D01*
X52309523Y-94666666D01*
X52214285Y-94714285D01*
X52023809Y-94761904D01*
X51880952Y-94761904D01*
X51690476Y-94714285D01*
X51595238Y-94666666D01*
X51500000Y-94571428D01*
X51452380Y-94428571D01*
X51452380Y-94333333D01*
X51500000Y-94190476D01*
X51547619Y-94142857D01*
X51547619Y-93761904D02*
X51500000Y-93714285D01*
X51452380Y-93619047D01*
X51452380Y-93380952D01*
X51500000Y-93285714D01*
X51547619Y-93238095D01*
X51642857Y-93190476D01*
X51738095Y-93190476D01*
X51880952Y-93238095D01*
X52452380Y-93809523D01*
X52452380Y-93190476D01*
X52452380Y-92238095D02*
X52452380Y-92809523D01*
X52452380Y-92523809D02*
X51452380Y-92523809D01*
X51595238Y-92619047D01*
X51690476Y-92714285D01*
X51738095Y-92809523D01*
X54357142Y-95142857D02*
X54404761Y-95190476D01*
X54452380Y-95333333D01*
X54452380Y-95428571D01*
X54404761Y-95571428D01*
X54309523Y-95666666D01*
X54214285Y-95714285D01*
X54023809Y-95761904D01*
X53880952Y-95761904D01*
X53690476Y-95714285D01*
X53595238Y-95666666D01*
X53500000Y-95571428D01*
X53452380Y-95428571D01*
X53452380Y-95333333D01*
X53500000Y-95190476D01*
X53547619Y-95142857D01*
X53547619Y-94761904D02*
X53500000Y-94714285D01*
X53452380Y-94619047D01*
X53452380Y-94380952D01*
X53500000Y-94285714D01*
X53547619Y-94238095D01*
X53642857Y-94190476D01*
X53738095Y-94190476D01*
X53880952Y-94238095D01*
X54452380Y-94809523D01*
X54452380Y-94190476D01*
X53547619Y-93809523D02*
X53500000Y-93761904D01*
X53452380Y-93666666D01*
X53452380Y-93428571D01*
X53500000Y-93333333D01*
X53547619Y-93285714D01*
X53642857Y-93238095D01*
X53738095Y-93238095D01*
X53880952Y-93285714D01*
X54452380Y-93857142D01*
X54452380Y-93238095D01*
X82857142Y-93607142D02*
X82809523Y-93654761D01*
X82666666Y-93702380D01*
X82571428Y-93702380D01*
X82428571Y-93654761D01*
X82333333Y-93559523D01*
X82285714Y-93464285D01*
X82238095Y-93273809D01*
X82238095Y-93130952D01*
X82285714Y-92940476D01*
X82333333Y-92845238D01*
X82428571Y-92750000D01*
X82571428Y-92702380D01*
X82666666Y-92702380D01*
X82809523Y-92750000D01*
X82857142Y-92797619D01*
X83238095Y-92797619D02*
X83285714Y-92750000D01*
X83380952Y-92702380D01*
X83619047Y-92702380D01*
X83714285Y-92750000D01*
X83761904Y-92797619D01*
X83809523Y-92892857D01*
X83809523Y-92988095D01*
X83761904Y-93130952D01*
X83190476Y-93702380D01*
X83809523Y-93702380D01*
X84142857Y-92702380D02*
X84761904Y-92702380D01*
X84428571Y-93083333D01*
X84571428Y-93083333D01*
X84666666Y-93130952D01*
X84714285Y-93178571D01*
X84761904Y-93273809D01*
X84761904Y-93511904D01*
X84714285Y-93607142D01*
X84666666Y-93654761D01*
X84571428Y-93702380D01*
X84285714Y-93702380D01*
X84190476Y-93654761D01*
X84142857Y-93607142D01*
X70627142Y-92227142D02*
X70579523Y-92274761D01*
X70436666Y-92322380D01*
X70341428Y-92322380D01*
X70198571Y-92274761D01*
X70103333Y-92179523D01*
X70055714Y-92084285D01*
X70008095Y-91893809D01*
X70008095Y-91750952D01*
X70055714Y-91560476D01*
X70103333Y-91465238D01*
X70198571Y-91370000D01*
X70341428Y-91322380D01*
X70436666Y-91322380D01*
X70579523Y-91370000D01*
X70627142Y-91417619D01*
X71008095Y-91417619D02*
X71055714Y-91370000D01*
X71150952Y-91322380D01*
X71389047Y-91322380D01*
X71484285Y-91370000D01*
X71531904Y-91417619D01*
X71579523Y-91512857D01*
X71579523Y-91608095D01*
X71531904Y-91750952D01*
X70960476Y-92322380D01*
X71579523Y-92322380D01*
X72436666Y-91655714D02*
X72436666Y-92322380D01*
X72198571Y-91274761D02*
X71960476Y-91989047D01*
X72579523Y-91989047D01*
X83857142Y-88607142D02*
X83809523Y-88654761D01*
X83666666Y-88702380D01*
X83571428Y-88702380D01*
X83428571Y-88654761D01*
X83333333Y-88559523D01*
X83285714Y-88464285D01*
X83238095Y-88273809D01*
X83238095Y-88130952D01*
X83285714Y-87940476D01*
X83333333Y-87845238D01*
X83428571Y-87750000D01*
X83571428Y-87702380D01*
X83666666Y-87702380D01*
X83809523Y-87750000D01*
X83857142Y-87797619D01*
X84238095Y-87797619D02*
X84285714Y-87750000D01*
X84380952Y-87702380D01*
X84619047Y-87702380D01*
X84714285Y-87750000D01*
X84761904Y-87797619D01*
X84809523Y-87892857D01*
X84809523Y-87988095D01*
X84761904Y-88130952D01*
X84190476Y-88702380D01*
X84809523Y-88702380D01*
X85714285Y-87702380D02*
X85238095Y-87702380D01*
X85190476Y-88178571D01*
X85238095Y-88130952D01*
X85333333Y-88083333D01*
X85571428Y-88083333D01*
X85666666Y-88130952D01*
X85714285Y-88178571D01*
X85761904Y-88273809D01*
X85761904Y-88511904D01*
X85714285Y-88607142D01*
X85666666Y-88654761D01*
X85571428Y-88702380D01*
X85333333Y-88702380D01*
X85238095Y-88654761D01*
X85190476Y-88607142D01*
X84416666Y-105952380D02*
X84416666Y-106666666D01*
X84369047Y-106809523D01*
X84273809Y-106904761D01*
X84130952Y-106952380D01*
X84035714Y-106952380D01*
X85321428Y-106285714D02*
X85321428Y-106952380D01*
X85083333Y-105904761D02*
X84845238Y-106619047D01*
X85464285Y-106619047D01*
X46904761Y-25047619D02*
X46809523Y-25000000D01*
X46714285Y-24904761D01*
X46571428Y-24761904D01*
X46476190Y-24714285D01*
X46380952Y-24714285D01*
X46428571Y-24952380D02*
X46333333Y-24904761D01*
X46238095Y-24809523D01*
X46190476Y-24619047D01*
X46190476Y-24285714D01*
X46238095Y-24095238D01*
X46333333Y-24000000D01*
X46428571Y-23952380D01*
X46619047Y-23952380D01*
X46714285Y-24000000D01*
X46809523Y-24095238D01*
X46857142Y-24285714D01*
X46857142Y-24619047D01*
X46809523Y-24809523D01*
X46714285Y-24904761D01*
X46619047Y-24952380D01*
X46428571Y-24952380D01*
X47809523Y-24952380D02*
X47238095Y-24952380D01*
X47523809Y-24952380D02*
X47523809Y-23952380D01*
X47428571Y-24095238D01*
X47333333Y-24190476D01*
X47238095Y-24238095D01*
X56904761Y-25047619D02*
X56809523Y-25000000D01*
X56714285Y-24904761D01*
X56571428Y-24761904D01*
X56476190Y-24714285D01*
X56380952Y-24714285D01*
X56428571Y-24952380D02*
X56333333Y-24904761D01*
X56238095Y-24809523D01*
X56190476Y-24619047D01*
X56190476Y-24285714D01*
X56238095Y-24095238D01*
X56333333Y-24000000D01*
X56428571Y-23952380D01*
X56619047Y-23952380D01*
X56714285Y-24000000D01*
X56809523Y-24095238D01*
X56857142Y-24285714D01*
X56857142Y-24619047D01*
X56809523Y-24809523D01*
X56714285Y-24904761D01*
X56619047Y-24952380D01*
X56428571Y-24952380D01*
X57238095Y-24047619D02*
X57285714Y-24000000D01*
X57380952Y-23952380D01*
X57619047Y-23952380D01*
X57714285Y-24000000D01*
X57761904Y-24047619D01*
X57809523Y-24142857D01*
X57809523Y-24238095D01*
X57761904Y-24380952D01*
X57190476Y-24952380D01*
X57809523Y-24952380D01*
X82947619Y-116895238D02*
X82900000Y-116990476D01*
X82804761Y-117085714D01*
X82661904Y-117228571D01*
X82614285Y-117323809D01*
X82614285Y-117419047D01*
X82852380Y-117371428D02*
X82804761Y-117466666D01*
X82709523Y-117561904D01*
X82519047Y-117609523D01*
X82185714Y-117609523D01*
X81995238Y-117561904D01*
X81900000Y-117466666D01*
X81852380Y-117371428D01*
X81852380Y-117180952D01*
X81900000Y-117085714D01*
X81995238Y-116990476D01*
X82185714Y-116942857D01*
X82519047Y-116942857D01*
X82709523Y-116990476D01*
X82804761Y-117085714D01*
X82852380Y-117180952D01*
X82852380Y-117371428D01*
X81852380Y-116609523D02*
X81852380Y-115990476D01*
X82233333Y-116323809D01*
X82233333Y-116180952D01*
X82280952Y-116085714D01*
X82328571Y-116038095D01*
X82423809Y-115990476D01*
X82661904Y-115990476D01*
X82757142Y-116038095D01*
X82804761Y-116085714D01*
X82852380Y-116180952D01*
X82852380Y-116466666D01*
X82804761Y-116561904D01*
X82757142Y-116609523D01*
X22452380Y-22666666D02*
X21976190Y-23000000D01*
X22452380Y-23238095D02*
X21452380Y-23238095D01*
X21452380Y-22857142D01*
X21500000Y-22761904D01*
X21547619Y-22714285D01*
X21642857Y-22666666D01*
X21785714Y-22666666D01*
X21880952Y-22714285D01*
X21928571Y-22761904D01*
X21976190Y-22857142D01*
X21976190Y-23238095D01*
X22452380Y-21714285D02*
X22452380Y-22285714D01*
X22452380Y-22000000D02*
X21452380Y-22000000D01*
X21595238Y-22095238D01*
X21690476Y-22190476D01*
X21738095Y-22285714D01*
X52882380Y-118166666D02*
X52406190Y-118500000D01*
X52882380Y-118738095D02*
X51882380Y-118738095D01*
X51882380Y-118357142D01*
X51930000Y-118261904D01*
X51977619Y-118214285D01*
X52072857Y-118166666D01*
X52215714Y-118166666D01*
X52310952Y-118214285D01*
X52358571Y-118261904D01*
X52406190Y-118357142D01*
X52406190Y-118738095D01*
X51977619Y-117785714D02*
X51930000Y-117738095D01*
X51882380Y-117642857D01*
X51882380Y-117404761D01*
X51930000Y-117309523D01*
X51977619Y-117261904D01*
X52072857Y-117214285D01*
X52168095Y-117214285D01*
X52310952Y-117261904D01*
X52882380Y-117833333D01*
X52882380Y-117214285D01*
X56382380Y-118166666D02*
X55906190Y-118500000D01*
X56382380Y-118738095D02*
X55382380Y-118738095D01*
X55382380Y-118357142D01*
X55430000Y-118261904D01*
X55477619Y-118214285D01*
X55572857Y-118166666D01*
X55715714Y-118166666D01*
X55810952Y-118214285D01*
X55858571Y-118261904D01*
X55906190Y-118357142D01*
X55906190Y-118738095D01*
X55382380Y-117833333D02*
X55382380Y-117214285D01*
X55763333Y-117547619D01*
X55763333Y-117404761D01*
X55810952Y-117309523D01*
X55858571Y-117261904D01*
X55953809Y-117214285D01*
X56191904Y-117214285D01*
X56287142Y-117261904D01*
X56334761Y-117309523D01*
X56382380Y-117404761D01*
X56382380Y-117690476D01*
X56334761Y-117785714D01*
X56287142Y-117833333D01*
X27333333Y-68702380D02*
X27000000Y-68226190D01*
X26761904Y-68702380D02*
X26761904Y-67702380D01*
X27142857Y-67702380D01*
X27238095Y-67750000D01*
X27285714Y-67797619D01*
X27333333Y-67892857D01*
X27333333Y-68035714D01*
X27285714Y-68130952D01*
X27238095Y-68178571D01*
X27142857Y-68226190D01*
X26761904Y-68226190D01*
X28190476Y-68035714D02*
X28190476Y-68702380D01*
X27952380Y-67654761D02*
X27714285Y-68369047D01*
X28333333Y-68369047D01*
X35583333Y-66952380D02*
X35250000Y-66476190D01*
X35011904Y-66952380D02*
X35011904Y-65952380D01*
X35392857Y-65952380D01*
X35488095Y-66000000D01*
X35535714Y-66047619D01*
X35583333Y-66142857D01*
X35583333Y-66285714D01*
X35535714Y-66380952D01*
X35488095Y-66428571D01*
X35392857Y-66476190D01*
X35011904Y-66476190D01*
X36488095Y-65952380D02*
X36011904Y-65952380D01*
X35964285Y-66428571D01*
X36011904Y-66380952D01*
X36107142Y-66333333D01*
X36345238Y-66333333D01*
X36440476Y-66380952D01*
X36488095Y-66428571D01*
X36535714Y-66523809D01*
X36535714Y-66761904D01*
X36488095Y-66857142D01*
X36440476Y-66904761D01*
X36345238Y-66952380D01*
X36107142Y-66952380D01*
X36011904Y-66904761D01*
X35964285Y-66857142D01*
X33833333Y-85252380D02*
X33500000Y-84776190D01*
X33261904Y-85252380D02*
X33261904Y-84252380D01*
X33642857Y-84252380D01*
X33738095Y-84300000D01*
X33785714Y-84347619D01*
X33833333Y-84442857D01*
X33833333Y-84585714D01*
X33785714Y-84680952D01*
X33738095Y-84728571D01*
X33642857Y-84776190D01*
X33261904Y-84776190D01*
X34690476Y-84252380D02*
X34500000Y-84252380D01*
X34404761Y-84300000D01*
X34357142Y-84347619D01*
X34261904Y-84490476D01*
X34214285Y-84680952D01*
X34214285Y-85061904D01*
X34261904Y-85157142D01*
X34309523Y-85204761D01*
X34404761Y-85252380D01*
X34595238Y-85252380D01*
X34690476Y-85204761D01*
X34738095Y-85157142D01*
X34785714Y-85061904D01*
X34785714Y-84823809D01*
X34738095Y-84728571D01*
X34690476Y-84680952D01*
X34595238Y-84633333D01*
X34404761Y-84633333D01*
X34309523Y-84680952D01*
X34261904Y-84728571D01*
X34214285Y-84823809D01*
X33083333Y-87202380D02*
X32750000Y-86726190D01*
X32511904Y-87202380D02*
X32511904Y-86202380D01*
X32892857Y-86202380D01*
X32988095Y-86250000D01*
X33035714Y-86297619D01*
X33083333Y-86392857D01*
X33083333Y-86535714D01*
X33035714Y-86630952D01*
X32988095Y-86678571D01*
X32892857Y-86726190D01*
X32511904Y-86726190D01*
X33416666Y-86202380D02*
X34083333Y-86202380D01*
X33654761Y-87202380D01*
X23583333Y-87202380D02*
X23250000Y-86726190D01*
X23011904Y-87202380D02*
X23011904Y-86202380D01*
X23392857Y-86202380D01*
X23488095Y-86250000D01*
X23535714Y-86297619D01*
X23583333Y-86392857D01*
X23583333Y-86535714D01*
X23535714Y-86630952D01*
X23488095Y-86678571D01*
X23392857Y-86726190D01*
X23011904Y-86726190D01*
X24154761Y-86630952D02*
X24059523Y-86583333D01*
X24011904Y-86535714D01*
X23964285Y-86440476D01*
X23964285Y-86392857D01*
X24011904Y-86297619D01*
X24059523Y-86250000D01*
X24154761Y-86202380D01*
X24345238Y-86202380D01*
X24440476Y-86250000D01*
X24488095Y-86297619D01*
X24535714Y-86392857D01*
X24535714Y-86440476D01*
X24488095Y-86535714D01*
X24440476Y-86583333D01*
X24345238Y-86630952D01*
X24154761Y-86630952D01*
X24059523Y-86678571D01*
X24011904Y-86726190D01*
X23964285Y-86821428D01*
X23964285Y-87011904D01*
X24011904Y-87107142D01*
X24059523Y-87154761D01*
X24154761Y-87202380D01*
X24345238Y-87202380D01*
X24440476Y-87154761D01*
X24488095Y-87107142D01*
X24535714Y-87011904D01*
X24535714Y-86821428D01*
X24488095Y-86726190D01*
X24440476Y-86678571D01*
X24345238Y-86630952D01*
X23083333Y-72952380D02*
X22750000Y-72476190D01*
X22511904Y-72952380D02*
X22511904Y-71952380D01*
X22892857Y-71952380D01*
X22988095Y-72000000D01*
X23035714Y-72047619D01*
X23083333Y-72142857D01*
X23083333Y-72285714D01*
X23035714Y-72380952D01*
X22988095Y-72428571D01*
X22892857Y-72476190D01*
X22511904Y-72476190D01*
X23559523Y-72952380D02*
X23750000Y-72952380D01*
X23845238Y-72904761D01*
X23892857Y-72857142D01*
X23988095Y-72714285D01*
X24035714Y-72523809D01*
X24035714Y-72142857D01*
X23988095Y-72047619D01*
X23940476Y-72000000D01*
X23845238Y-71952380D01*
X23654761Y-71952380D01*
X23559523Y-72000000D01*
X23511904Y-72047619D01*
X23464285Y-72142857D01*
X23464285Y-72380952D01*
X23511904Y-72476190D01*
X23559523Y-72523809D01*
X23654761Y-72571428D01*
X23845238Y-72571428D01*
X23940476Y-72523809D01*
X23988095Y-72476190D01*
X24035714Y-72380952D01*
X32357142Y-72952380D02*
X32023809Y-72476190D01*
X31785714Y-72952380D02*
X31785714Y-71952380D01*
X32166666Y-71952380D01*
X32261904Y-72000000D01*
X32309523Y-72047619D01*
X32357142Y-72142857D01*
X32357142Y-72285714D01*
X32309523Y-72380952D01*
X32261904Y-72428571D01*
X32166666Y-72476190D01*
X31785714Y-72476190D01*
X33309523Y-72952380D02*
X32738095Y-72952380D01*
X33023809Y-72952380D02*
X33023809Y-71952380D01*
X32928571Y-72095238D01*
X32833333Y-72190476D01*
X32738095Y-72238095D01*
X33928571Y-71952380D02*
X34023809Y-71952380D01*
X34119047Y-72000000D01*
X34166666Y-72047619D01*
X34214285Y-72142857D01*
X34261904Y-72333333D01*
X34261904Y-72571428D01*
X34214285Y-72761904D01*
X34166666Y-72857142D01*
X34119047Y-72904761D01*
X34023809Y-72952380D01*
X33928571Y-72952380D01*
X33833333Y-72904761D01*
X33785714Y-72857142D01*
X33738095Y-72761904D01*
X33690476Y-72571428D01*
X33690476Y-72333333D01*
X33738095Y-72142857D01*
X33785714Y-72047619D01*
X33833333Y-72000000D01*
X33928571Y-71952380D01*
X52357142Y-29952380D02*
X52023809Y-29476190D01*
X51785714Y-29952380D02*
X51785714Y-28952380D01*
X52166666Y-28952380D01*
X52261904Y-29000000D01*
X52309523Y-29047619D01*
X52357142Y-29142857D01*
X52357142Y-29285714D01*
X52309523Y-29380952D01*
X52261904Y-29428571D01*
X52166666Y-29476190D01*
X51785714Y-29476190D01*
X53309523Y-29952380D02*
X52738095Y-29952380D01*
X53023809Y-29952380D02*
X53023809Y-28952380D01*
X52928571Y-29095238D01*
X52833333Y-29190476D01*
X52738095Y-29238095D01*
X54261904Y-29952380D02*
X53690476Y-29952380D01*
X53976190Y-29952380D02*
X53976190Y-28952380D01*
X53880952Y-29095238D01*
X53785714Y-29190476D01*
X53690476Y-29238095D01*
X34357142Y-74702380D02*
X34023809Y-74226190D01*
X33785714Y-74702380D02*
X33785714Y-73702380D01*
X34166666Y-73702380D01*
X34261904Y-73750000D01*
X34309523Y-73797619D01*
X34357142Y-73892857D01*
X34357142Y-74035714D01*
X34309523Y-74130952D01*
X34261904Y-74178571D01*
X34166666Y-74226190D01*
X33785714Y-74226190D01*
X35309523Y-74702380D02*
X34738095Y-74702380D01*
X35023809Y-74702380D02*
X35023809Y-73702380D01*
X34928571Y-73845238D01*
X34833333Y-73940476D01*
X34738095Y-73988095D01*
X35690476Y-73797619D02*
X35738095Y-73750000D01*
X35833333Y-73702380D01*
X36071428Y-73702380D01*
X36166666Y-73750000D01*
X36214285Y-73797619D01*
X36261904Y-73892857D01*
X36261904Y-73988095D01*
X36214285Y-74130952D01*
X35642857Y-74702380D01*
X36261904Y-74702380D01*
X84952380Y-26642857D02*
X84476190Y-26976190D01*
X84952380Y-27214285D02*
X83952380Y-27214285D01*
X83952380Y-26833333D01*
X84000000Y-26738095D01*
X84047619Y-26690476D01*
X84142857Y-26642857D01*
X84285714Y-26642857D01*
X84380952Y-26690476D01*
X84428571Y-26738095D01*
X84476190Y-26833333D01*
X84476190Y-27214285D01*
X84952380Y-25690476D02*
X84952380Y-26261904D01*
X84952380Y-25976190D02*
X83952380Y-25976190D01*
X84095238Y-26071428D01*
X84190476Y-26166666D01*
X84238095Y-26261904D01*
X83952380Y-25357142D02*
X83952380Y-24738095D01*
X84333333Y-25071428D01*
X84333333Y-24928571D01*
X84380952Y-24833333D01*
X84428571Y-24785714D01*
X84523809Y-24738095D01*
X84761904Y-24738095D01*
X84857142Y-24785714D01*
X84904761Y-24833333D01*
X84952380Y-24928571D01*
X84952380Y-25214285D01*
X84904761Y-25309523D01*
X84857142Y-25357142D01*
X41357142Y-27882380D02*
X41023809Y-27406190D01*
X40785714Y-27882380D02*
X40785714Y-26882380D01*
X41166666Y-26882380D01*
X41261904Y-26930000D01*
X41309523Y-26977619D01*
X41357142Y-27072857D01*
X41357142Y-27215714D01*
X41309523Y-27310952D01*
X41261904Y-27358571D01*
X41166666Y-27406190D01*
X40785714Y-27406190D01*
X42309523Y-27882380D02*
X41738095Y-27882380D01*
X42023809Y-27882380D02*
X42023809Y-26882380D01*
X41928571Y-27025238D01*
X41833333Y-27120476D01*
X41738095Y-27168095D01*
X43166666Y-27215714D02*
X43166666Y-27882380D01*
X42928571Y-26834761D02*
X42690476Y-27549047D01*
X43309523Y-27549047D01*
X51357142Y-25952380D02*
X51023809Y-25476190D01*
X50785714Y-25952380D02*
X50785714Y-24952380D01*
X51166666Y-24952380D01*
X51261904Y-25000000D01*
X51309523Y-25047619D01*
X51357142Y-25142857D01*
X51357142Y-25285714D01*
X51309523Y-25380952D01*
X51261904Y-25428571D01*
X51166666Y-25476190D01*
X50785714Y-25476190D01*
X52309523Y-25952380D02*
X51738095Y-25952380D01*
X52023809Y-25952380D02*
X52023809Y-24952380D01*
X51928571Y-25095238D01*
X51833333Y-25190476D01*
X51738095Y-25238095D01*
X53214285Y-24952380D02*
X52738095Y-24952380D01*
X52690476Y-25428571D01*
X52738095Y-25380952D01*
X52833333Y-25333333D01*
X53071428Y-25333333D01*
X53166666Y-25380952D01*
X53214285Y-25428571D01*
X53261904Y-25523809D01*
X53261904Y-25761904D01*
X53214285Y-25857142D01*
X53166666Y-25904761D01*
X53071428Y-25952380D01*
X52833333Y-25952380D01*
X52738095Y-25904761D01*
X52690476Y-25857142D01*
X72452380Y-112892857D02*
X71976190Y-113226190D01*
X72452380Y-113464285D02*
X71452380Y-113464285D01*
X71452380Y-113083333D01*
X71500000Y-112988095D01*
X71547619Y-112940476D01*
X71642857Y-112892857D01*
X71785714Y-112892857D01*
X71880952Y-112940476D01*
X71928571Y-112988095D01*
X71976190Y-113083333D01*
X71976190Y-113464285D01*
X72452380Y-111940476D02*
X72452380Y-112511904D01*
X72452380Y-112226190D02*
X71452380Y-112226190D01*
X71595238Y-112321428D01*
X71690476Y-112416666D01*
X71738095Y-112511904D01*
X71452380Y-111083333D02*
X71452380Y-111273809D01*
X71500000Y-111369047D01*
X71547619Y-111416666D01*
X71690476Y-111511904D01*
X71880952Y-111559523D01*
X72261904Y-111559523D01*
X72357142Y-111511904D01*
X72404761Y-111464285D01*
X72452380Y-111369047D01*
X72452380Y-111178571D01*
X72404761Y-111083333D01*
X72357142Y-111035714D01*
X72261904Y-110988095D01*
X72023809Y-110988095D01*
X71928571Y-111035714D01*
X71880952Y-111083333D01*
X71833333Y-111178571D01*
X71833333Y-111369047D01*
X71880952Y-111464285D01*
X71928571Y-111511904D01*
X72023809Y-111559523D01*
X72957142Y-120002380D02*
X72623809Y-119526190D01*
X72385714Y-120002380D02*
X72385714Y-119002380D01*
X72766666Y-119002380D01*
X72861904Y-119050000D01*
X72909523Y-119097619D01*
X72957142Y-119192857D01*
X72957142Y-119335714D01*
X72909523Y-119430952D01*
X72861904Y-119478571D01*
X72766666Y-119526190D01*
X72385714Y-119526190D01*
X73909523Y-120002380D02*
X73338095Y-120002380D01*
X73623809Y-120002380D02*
X73623809Y-119002380D01*
X73528571Y-119145238D01*
X73433333Y-119240476D01*
X73338095Y-119288095D01*
X74242857Y-119002380D02*
X74909523Y-119002380D01*
X74480952Y-120002380D01*
X58857142Y-119702380D02*
X58523809Y-119226190D01*
X58285714Y-119702380D02*
X58285714Y-118702380D01*
X58666666Y-118702380D01*
X58761904Y-118750000D01*
X58809523Y-118797619D01*
X58857142Y-118892857D01*
X58857142Y-119035714D01*
X58809523Y-119130952D01*
X58761904Y-119178571D01*
X58666666Y-119226190D01*
X58285714Y-119226190D01*
X59809523Y-119702380D02*
X59238095Y-119702380D01*
X59523809Y-119702380D02*
X59523809Y-118702380D01*
X59428571Y-118845238D01*
X59333333Y-118940476D01*
X59238095Y-118988095D01*
X60380952Y-119130952D02*
X60285714Y-119083333D01*
X60238095Y-119035714D01*
X60190476Y-118940476D01*
X60190476Y-118892857D01*
X60238095Y-118797619D01*
X60285714Y-118750000D01*
X60380952Y-118702380D01*
X60571428Y-118702380D01*
X60666666Y-118750000D01*
X60714285Y-118797619D01*
X60761904Y-118892857D01*
X60761904Y-118940476D01*
X60714285Y-119035714D01*
X60666666Y-119083333D01*
X60571428Y-119130952D01*
X60380952Y-119130952D01*
X60285714Y-119178571D01*
X60238095Y-119226190D01*
X60190476Y-119321428D01*
X60190476Y-119511904D01*
X60238095Y-119607142D01*
X60285714Y-119654761D01*
X60380952Y-119702380D01*
X60571428Y-119702380D01*
X60666666Y-119654761D01*
X60714285Y-119607142D01*
X60761904Y-119511904D01*
X60761904Y-119321428D01*
X60714285Y-119226190D01*
X60666666Y-119178571D01*
X60571428Y-119130952D01*
X58857142Y-110702380D02*
X58523809Y-110226190D01*
X58285714Y-110702380D02*
X58285714Y-109702380D01*
X58666666Y-109702380D01*
X58761904Y-109750000D01*
X58809523Y-109797619D01*
X58857142Y-109892857D01*
X58857142Y-110035714D01*
X58809523Y-110130952D01*
X58761904Y-110178571D01*
X58666666Y-110226190D01*
X58285714Y-110226190D01*
X59809523Y-110702380D02*
X59238095Y-110702380D01*
X59523809Y-110702380D02*
X59523809Y-109702380D01*
X59428571Y-109845238D01*
X59333333Y-109940476D01*
X59238095Y-109988095D01*
X60285714Y-110702380D02*
X60476190Y-110702380D01*
X60571428Y-110654761D01*
X60619047Y-110607142D01*
X60714285Y-110464285D01*
X60761904Y-110273809D01*
X60761904Y-109892857D01*
X60714285Y-109797619D01*
X60666666Y-109750000D01*
X60571428Y-109702380D01*
X60380952Y-109702380D01*
X60285714Y-109750000D01*
X60238095Y-109797619D01*
X60190476Y-109892857D01*
X60190476Y-110130952D01*
X60238095Y-110226190D01*
X60285714Y-110273809D01*
X60380952Y-110321428D01*
X60571428Y-110321428D01*
X60666666Y-110273809D01*
X60714285Y-110226190D01*
X60761904Y-110130952D01*
X38135595Y-87252380D02*
X38135595Y-88061904D01*
X38183214Y-88157142D01*
X38230833Y-88204761D01*
X38326071Y-88252380D01*
X38516547Y-88252380D01*
X38611785Y-88204761D01*
X38659404Y-88157142D01*
X38707023Y-88061904D01*
X38707023Y-87252380D01*
X39707023Y-88252380D02*
X39135595Y-88252380D01*
X39421309Y-88252380D02*
X39421309Y-87252380D01*
X39326071Y-87395238D01*
X39230833Y-87490476D01*
X39135595Y-87538095D01*
X23952380Y-123166666D02*
X24428571Y-123166666D01*
X23857142Y-123452380D02*
X24190476Y-122452380D01*
X24523809Y-123452380D01*
X24857142Y-122785714D02*
X24857142Y-123452380D01*
X24857142Y-122880952D02*
X24904761Y-122833333D01*
X25000000Y-122785714D01*
X25142857Y-122785714D01*
X25238095Y-122833333D01*
X25285714Y-122928571D01*
X25285714Y-123452380D01*
X25619047Y-122785714D02*
X26000000Y-122785714D01*
X25761904Y-122452380D02*
X25761904Y-123309523D01*
X25809523Y-123404761D01*
X25904761Y-123452380D01*
X26000000Y-123452380D01*
X26714285Y-123404761D02*
X26619047Y-123452380D01*
X26428571Y-123452380D01*
X26333333Y-123404761D01*
X26285714Y-123309523D01*
X26285714Y-122928571D01*
X26333333Y-122833333D01*
X26428571Y-122785714D01*
X26619047Y-122785714D01*
X26714285Y-122833333D01*
X26761904Y-122928571D01*
X26761904Y-123023809D01*
X26285714Y-123119047D01*
X27190476Y-122785714D02*
X27190476Y-123452380D01*
X27190476Y-122880952D02*
X27238095Y-122833333D01*
X27333333Y-122785714D01*
X27476190Y-122785714D01*
X27571428Y-122833333D01*
X27619047Y-122928571D01*
X27619047Y-123452380D01*
X28095238Y-122785714D02*
X28095238Y-123452380D01*
X28095238Y-122880952D02*
X28142857Y-122833333D01*
X28238095Y-122785714D01*
X28380952Y-122785714D01*
X28476190Y-122833333D01*
X28523809Y-122928571D01*
X28523809Y-123452380D01*
X29428571Y-123452380D02*
X29428571Y-122928571D01*
X29380952Y-122833333D01*
X29285714Y-122785714D01*
X29095238Y-122785714D01*
X29000000Y-122833333D01*
X29428571Y-123404761D02*
X29333333Y-123452380D01*
X29095238Y-123452380D01*
X29000000Y-123404761D01*
X28952380Y-123309523D01*
X28952380Y-123214285D01*
X29000000Y-123119047D01*
X29095238Y-123071428D01*
X29333333Y-123071428D01*
X29428571Y-123023809D01*
X30666666Y-123452380D02*
X30666666Y-122452380D01*
X30761904Y-123071428D02*
X31047619Y-123452380D01*
X31047619Y-122785714D02*
X30666666Y-123166666D01*
X31857142Y-123404761D02*
X31761904Y-123452380D01*
X31571428Y-123452380D01*
X31476190Y-123404761D01*
X31428571Y-123309523D01*
X31428571Y-122928571D01*
X31476190Y-122833333D01*
X31571428Y-122785714D01*
X31761904Y-122785714D01*
X31857142Y-122833333D01*
X31904761Y-122928571D01*
X31904761Y-123023809D01*
X31428571Y-123119047D01*
X32714285Y-123404761D02*
X32619047Y-123452380D01*
X32428571Y-123452380D01*
X32333333Y-123404761D01*
X32285714Y-123309523D01*
X32285714Y-122928571D01*
X32333333Y-122833333D01*
X32428571Y-122785714D01*
X32619047Y-122785714D01*
X32714285Y-122833333D01*
X32761904Y-122928571D01*
X32761904Y-123023809D01*
X32285714Y-123119047D01*
X33190476Y-122785714D02*
X33190476Y-123785714D01*
X33190476Y-122833333D02*
X33285714Y-122785714D01*
X33476190Y-122785714D01*
X33571428Y-122833333D01*
X33619047Y-122880952D01*
X33666666Y-122976190D01*
X33666666Y-123261904D01*
X33619047Y-123357142D01*
X33571428Y-123404761D01*
X33476190Y-123452380D01*
X33285714Y-123452380D01*
X33190476Y-123404761D01*
X34238095Y-123452380D02*
X34142857Y-123404761D01*
X34095238Y-123357142D01*
X34047619Y-123261904D01*
X34047619Y-122976190D01*
X34095238Y-122880952D01*
X34142857Y-122833333D01*
X34238095Y-122785714D01*
X34380952Y-122785714D01*
X34476190Y-122833333D01*
X34523809Y-122880952D01*
X34571428Y-122976190D01*
X34571428Y-123261904D01*
X34523809Y-123357142D01*
X34476190Y-123404761D01*
X34380952Y-123452380D01*
X34238095Y-123452380D01*
X35428571Y-122785714D02*
X35428571Y-123452380D01*
X35000000Y-122785714D02*
X35000000Y-123309523D01*
X35047619Y-123404761D01*
X35142857Y-123452380D01*
X35285714Y-123452380D01*
X35380952Y-123404761D01*
X35428571Y-123357142D01*
X35761904Y-122785714D02*
X36142857Y-122785714D01*
X35904761Y-122452380D02*
X35904761Y-123309523D01*
X35952380Y-123404761D01*
X36047619Y-123452380D01*
X36142857Y-123452380D01*
X27238095Y-117166666D02*
X27714285Y-117166666D01*
X27142857Y-117452380D02*
X27476190Y-116452380D01*
X27809523Y-117452380D01*
X28142857Y-116785714D02*
X28142857Y-117452380D01*
X28142857Y-116880952D02*
X28190476Y-116833333D01*
X28285714Y-116785714D01*
X28428571Y-116785714D01*
X28523809Y-116833333D01*
X28571428Y-116928571D01*
X28571428Y-117452380D01*
X28904761Y-116785714D02*
X29285714Y-116785714D01*
X29047619Y-116452380D02*
X29047619Y-117309523D01*
X29095238Y-117404761D01*
X29190476Y-117452380D01*
X29285714Y-117452380D01*
X30000000Y-117404761D02*
X29904761Y-117452380D01*
X29714285Y-117452380D01*
X29619047Y-117404761D01*
X29571428Y-117309523D01*
X29571428Y-116928571D01*
X29619047Y-116833333D01*
X29714285Y-116785714D01*
X29904761Y-116785714D01*
X30000000Y-116833333D01*
X30047619Y-116928571D01*
X30047619Y-117023809D01*
X29571428Y-117119047D01*
X30476190Y-116785714D02*
X30476190Y-117452380D01*
X30476190Y-116880952D02*
X30523809Y-116833333D01*
X30619047Y-116785714D01*
X30761904Y-116785714D01*
X30857142Y-116833333D01*
X30904761Y-116928571D01*
X30904761Y-117452380D01*
X31380952Y-116785714D02*
X31380952Y-117452380D01*
X31380952Y-116880952D02*
X31428571Y-116833333D01*
X31523809Y-116785714D01*
X31666666Y-116785714D01*
X31761904Y-116833333D01*
X31809523Y-116928571D01*
X31809523Y-117452380D01*
X32714285Y-117452380D02*
X32714285Y-116928571D01*
X32666666Y-116833333D01*
X32571428Y-116785714D01*
X32380952Y-116785714D01*
X32285714Y-116833333D01*
X32714285Y-117404761D02*
X32619047Y-117452380D01*
X32380952Y-117452380D01*
X32285714Y-117404761D01*
X32238095Y-117309523D01*
X32238095Y-117214285D01*
X32285714Y-117119047D01*
X32380952Y-117071428D01*
X32619047Y-117071428D01*
X32714285Y-117023809D01*
X32902380Y-62261904D02*
X33711904Y-62261904D01*
X33807142Y-62214285D01*
X33854761Y-62166666D01*
X33902380Y-62071428D01*
X33902380Y-61880952D01*
X33854761Y-61785714D01*
X33807142Y-61738095D01*
X33711904Y-61690476D01*
X32902380Y-61690476D01*
X32997619Y-61261904D02*
X32950000Y-61214285D01*
X32902380Y-61119047D01*
X32902380Y-60880952D01*
X32950000Y-60785714D01*
X32997619Y-60738095D01*
X33092857Y-60690476D01*
X33188095Y-60690476D01*
X33330952Y-60738095D01*
X33902380Y-61309523D01*
X33902380Y-60690476D01*
X39952380Y-105261904D02*
X40761904Y-105261904D01*
X40857142Y-105214285D01*
X40904761Y-105166666D01*
X40952380Y-105071428D01*
X40952380Y-104880952D01*
X40904761Y-104785714D01*
X40857142Y-104738095D01*
X40761904Y-104690476D01*
X39952380Y-104690476D01*
X39952380Y-104309523D02*
X39952380Y-103690476D01*
X40333333Y-104023809D01*
X40333333Y-103880952D01*
X40380952Y-103785714D01*
X40428571Y-103738095D01*
X40523809Y-103690476D01*
X40761904Y-103690476D01*
X40857142Y-103738095D01*
X40904761Y-103785714D01*
X40952380Y-103880952D01*
X40952380Y-104166666D01*
X40904761Y-104261904D01*
X40857142Y-104309523D01*
X23402380Y-80261904D02*
X24211904Y-80261904D01*
X24307142Y-80214285D01*
X24354761Y-80166666D01*
X24402380Y-80071428D01*
X24402380Y-79880952D01*
X24354761Y-79785714D01*
X24307142Y-79738095D01*
X24211904Y-79690476D01*
X23402380Y-79690476D01*
X23735714Y-78785714D02*
X24402380Y-78785714D01*
X23354761Y-79023809D02*
X24069047Y-79261904D01*
X24069047Y-78642857D01*
X73238095Y-37452380D02*
X73238095Y-38261904D01*
X73285714Y-38357142D01*
X73333333Y-38404761D01*
X73428571Y-38452380D01*
X73619047Y-38452380D01*
X73714285Y-38404761D01*
X73761904Y-38357142D01*
X73809523Y-38261904D01*
X73809523Y-37452380D01*
X74714285Y-37452380D02*
X74523809Y-37452380D01*
X74428571Y-37500000D01*
X74380952Y-37547619D01*
X74285714Y-37690476D01*
X74238095Y-37880952D01*
X74238095Y-38261904D01*
X74285714Y-38357142D01*
X74333333Y-38404761D01*
X74428571Y-38452380D01*
X74619047Y-38452380D01*
X74714285Y-38404761D01*
X74761904Y-38357142D01*
X74809523Y-38261904D01*
X74809523Y-38023809D01*
X74761904Y-37928571D01*
X74714285Y-37880952D01*
X74619047Y-37833333D01*
X74428571Y-37833333D01*
X74333333Y-37880952D01*
X74285714Y-37928571D01*
X74238095Y-38023809D01*
X60238095Y-31952380D02*
X60238095Y-32761904D01*
X60285714Y-32857142D01*
X60333333Y-32904761D01*
X60428571Y-32952380D01*
X60619047Y-32952380D01*
X60714285Y-32904761D01*
X60761904Y-32857142D01*
X60809523Y-32761904D01*
X60809523Y-31952380D01*
X61190476Y-31952380D02*
X61857142Y-31952380D01*
X61428571Y-32952380D01*
X74702380Y-114361904D02*
X75511904Y-114361904D01*
X75607142Y-114314285D01*
X75654761Y-114266666D01*
X75702380Y-114171428D01*
X75702380Y-113980952D01*
X75654761Y-113885714D01*
X75607142Y-113838095D01*
X75511904Y-113790476D01*
X74702380Y-113790476D01*
X75130952Y-113171428D02*
X75083333Y-113266666D01*
X75035714Y-113314285D01*
X74940476Y-113361904D01*
X74892857Y-113361904D01*
X74797619Y-113314285D01*
X74750000Y-113266666D01*
X74702380Y-113171428D01*
X74702380Y-112980952D01*
X74750000Y-112885714D01*
X74797619Y-112838095D01*
X74892857Y-112790476D01*
X74940476Y-112790476D01*
X75035714Y-112838095D01*
X75083333Y-112885714D01*
X75130952Y-112980952D01*
X75130952Y-113171428D01*
X75178571Y-113266666D01*
X75226190Y-113314285D01*
X75321428Y-113361904D01*
X75511904Y-113361904D01*
X75607142Y-113314285D01*
X75654761Y-113266666D01*
X75702380Y-113171428D01*
X75702380Y-112980952D01*
X75654761Y-112885714D01*
X75607142Y-112838095D01*
X75511904Y-112790476D01*
X75321428Y-112790476D01*
X75226190Y-112838095D01*
X75178571Y-112885714D01*
X75130952Y-112980952D01*
X63988095Y-112417380D02*
X63988095Y-113226904D01*
X64035714Y-113322142D01*
X64083333Y-113369761D01*
X64178571Y-113417380D01*
X64369047Y-113417380D01*
X64464285Y-113369761D01*
X64511904Y-113322142D01*
X64559523Y-113226904D01*
X64559523Y-112417380D01*
X65083333Y-113417380D02*
X65273809Y-113417380D01*
X65369047Y-113369761D01*
X65416666Y-113322142D01*
X65511904Y-113179285D01*
X65559523Y-112988809D01*
X65559523Y-112607857D01*
X65511904Y-112512619D01*
X65464285Y-112465000D01*
X65369047Y-112417380D01*
X65178571Y-112417380D01*
X65083333Y-112465000D01*
X65035714Y-112512619D01*
X64988095Y-112607857D01*
X64988095Y-112845952D01*
X65035714Y-112941190D01*
X65083333Y-112988809D01*
X65178571Y-113036428D01*
X65369047Y-113036428D01*
X65464285Y-112988809D01*
X65511904Y-112941190D01*
X65559523Y-112845952D01*
X47761904Y-112702380D02*
X47761904Y-113511904D01*
X47809523Y-113607142D01*
X47857142Y-113654761D01*
X47952380Y-113702380D01*
X48142857Y-113702380D01*
X48238095Y-113654761D01*
X48285714Y-113607142D01*
X48333333Y-113511904D01*
X48333333Y-112702380D01*
X49333333Y-113702380D02*
X48761904Y-113702380D01*
X49047619Y-113702380D02*
X49047619Y-112702380D01*
X48952380Y-112845238D01*
X48857142Y-112940476D01*
X48761904Y-112988095D01*
X49952380Y-112702380D02*
X50047619Y-112702380D01*
X50142857Y-112750000D01*
X50190476Y-112797619D01*
X50238095Y-112892857D01*
X50285714Y-113083333D01*
X50285714Y-113321428D01*
X50238095Y-113511904D01*
X50190476Y-113607142D01*
X50142857Y-113654761D01*
X50047619Y-113702380D01*
X49952380Y-113702380D01*
X49857142Y-113654761D01*
X49809523Y-113607142D01*
X49761904Y-113511904D01*
X49714285Y-113321428D01*
X49714285Y-113083333D01*
X49761904Y-112892857D01*
X49809523Y-112797619D01*
X49857142Y-112750000D01*
X49952380Y-112702380D01*
X64952380Y-87238095D02*
X65761904Y-87238095D01*
X65857142Y-87190476D01*
X65904761Y-87142857D01*
X65952380Y-87047619D01*
X65952380Y-86857142D01*
X65904761Y-86761904D01*
X65857142Y-86714285D01*
X65761904Y-86666666D01*
X64952380Y-86666666D01*
X65952380Y-85666666D02*
X65952380Y-86238095D01*
X65952380Y-85952380D02*
X64952380Y-85952380D01*
X65095238Y-86047619D01*
X65190476Y-86142857D01*
X65238095Y-86238095D01*
X65952380Y-84714285D02*
X65952380Y-85285714D01*
X65952380Y-85000000D02*
X64952380Y-85000000D01*
X65095238Y-85095238D01*
X65190476Y-85190476D01*
X65238095Y-85285714D01*
X25084761Y-50083333D02*
X25132380Y-49940476D01*
X25132380Y-49702380D01*
X25084761Y-49607142D01*
X25037142Y-49559523D01*
X24941904Y-49511904D01*
X24846666Y-49511904D01*
X24751428Y-49559523D01*
X24703809Y-49607142D01*
X24656190Y-49702380D01*
X24608571Y-49892857D01*
X24560952Y-49988095D01*
X24513333Y-50035714D01*
X24418095Y-50083333D01*
X24322857Y-50083333D01*
X24227619Y-50035714D01*
X24180000Y-49988095D01*
X24132380Y-49892857D01*
X24132380Y-49654761D01*
X24180000Y-49511904D01*
X24132380Y-49178571D02*
X25132380Y-48940476D01*
X24418095Y-48750000D01*
X25132380Y-48559523D01*
X24132380Y-48321428D01*
X24465714Y-47511904D02*
X25132380Y-47511904D01*
X24084761Y-47750000D02*
X24799047Y-47988095D01*
X24799047Y-47369047D01*
X81724761Y-55583333D02*
X81772380Y-55440476D01*
X81772380Y-55202380D01*
X81724761Y-55107142D01*
X81677142Y-55059523D01*
X81581904Y-55011904D01*
X81486666Y-55011904D01*
X81391428Y-55059523D01*
X81343809Y-55107142D01*
X81296190Y-55202380D01*
X81248571Y-55392857D01*
X81200952Y-55488095D01*
X81153333Y-55535714D01*
X81058095Y-55583333D01*
X80962857Y-55583333D01*
X80867619Y-55535714D01*
X80820000Y-55488095D01*
X80772380Y-55392857D01*
X80772380Y-55154761D01*
X80820000Y-55011904D01*
X80772380Y-54678571D02*
X81772380Y-54440476D01*
X81058095Y-54250000D01*
X81772380Y-54059523D01*
X80772380Y-53821428D01*
X80772380Y-52964285D02*
X80772380Y-53440476D01*
X81248571Y-53488095D01*
X81200952Y-53440476D01*
X81153333Y-53345238D01*
X81153333Y-53107142D01*
X81200952Y-53011904D01*
X81248571Y-52964285D01*
X81343809Y-52916666D01*
X81581904Y-52916666D01*
X81677142Y-52964285D01*
X81724761Y-53011904D01*
X81772380Y-53107142D01*
X81772380Y-53345238D01*
X81724761Y-53440476D01*
X81677142Y-53488095D01*
X81724761Y-43583333D02*
X81772380Y-43440476D01*
X81772380Y-43202380D01*
X81724761Y-43107142D01*
X81677142Y-43059523D01*
X81581904Y-43011904D01*
X81486666Y-43011904D01*
X81391428Y-43059523D01*
X81343809Y-43107142D01*
X81296190Y-43202380D01*
X81248571Y-43392857D01*
X81200952Y-43488095D01*
X81153333Y-43535714D01*
X81058095Y-43583333D01*
X80962857Y-43583333D01*
X80867619Y-43535714D01*
X80820000Y-43488095D01*
X80772380Y-43392857D01*
X80772380Y-43154761D01*
X80820000Y-43011904D01*
X80772380Y-42678571D02*
X81772380Y-42440476D01*
X81058095Y-42250000D01*
X81772380Y-42059523D01*
X80772380Y-41821428D01*
X80772380Y-41011904D02*
X80772380Y-41202380D01*
X80820000Y-41297619D01*
X80867619Y-41345238D01*
X81010476Y-41440476D01*
X81200952Y-41488095D01*
X81581904Y-41488095D01*
X81677142Y-41440476D01*
X81724761Y-41392857D01*
X81772380Y-41297619D01*
X81772380Y-41107142D01*
X81724761Y-41011904D01*
X81677142Y-40964285D01*
X81581904Y-40916666D01*
X81343809Y-40916666D01*
X81248571Y-40964285D01*
X81200952Y-41011904D01*
X81153333Y-41107142D01*
X81153333Y-41297619D01*
X81200952Y-41392857D01*
X81248571Y-41440476D01*
X81343809Y-41488095D01*
X44357142Y-89652380D02*
X44023809Y-89176190D01*
X43785714Y-89652380D02*
X43785714Y-88652380D01*
X44166666Y-88652380D01*
X44261904Y-88700000D01*
X44309523Y-88747619D01*
X44357142Y-88842857D01*
X44357142Y-88985714D01*
X44309523Y-89080952D01*
X44261904Y-89128571D01*
X44166666Y-89176190D01*
X43785714Y-89176190D01*
X44738095Y-88747619D02*
X44785714Y-88700000D01*
X44880952Y-88652380D01*
X45119047Y-88652380D01*
X45214285Y-88700000D01*
X45261904Y-88747619D01*
X45309523Y-88842857D01*
X45309523Y-88938095D01*
X45261904Y-89080952D01*
X44690476Y-89652380D01*
X45309523Y-89652380D01*
X45928571Y-88652380D02*
X46023809Y-88652380D01*
X46119047Y-88700000D01*
X46166666Y-88747619D01*
X46214285Y-88842857D01*
X46261904Y-89033333D01*
X46261904Y-89271428D01*
X46214285Y-89461904D01*
X46166666Y-89557142D01*
X46119047Y-89604761D01*
X46023809Y-89652380D01*
X45928571Y-89652380D01*
X45833333Y-89604761D01*
X45785714Y-89557142D01*
X45738095Y-89461904D01*
X45690476Y-89271428D01*
X45690476Y-89033333D01*
X45738095Y-88842857D01*
X45785714Y-88747619D01*
X45833333Y-88700000D01*
X45928571Y-88652380D01*
M02*
