G04 #@! TF.GenerationSoftware,KiCad,Pcbnew,(5.1.0-0)*
G04 #@! TF.CreationDate,2019-05-15T23:46:39-04:00*
G04 #@! TF.ProjectId,phone-hw,70686f6e-652d-4687-972e-6b696361645f,rev?*
G04 #@! TF.SameCoordinates,Original*
G04 #@! TF.FileFunction,Soldermask,Top*
G04 #@! TF.FilePolarity,Negative*
%FSLAX46Y46*%
G04 Gerber Fmt 4.6, Leading zero omitted, Abs format (unit mm)*
G04 Created by KiCad (PCBNEW (5.1.0-0)) date 2019-05-15 23:46:39*
%MOMM*%
%LPD*%
G04 APERTURE LIST*
%ADD10C,0.100000*%
G04 APERTURE END LIST*
D10*
G36*
X48788015Y-118336973D02*
G01*
X48891879Y-118368479D01*
X48919055Y-118383005D01*
X48987600Y-118419643D01*
X49071501Y-118488499D01*
X49140357Y-118572400D01*
X49166334Y-118621000D01*
X49191521Y-118668121D01*
X49223027Y-118771985D01*
X49231000Y-118852933D01*
X49231000Y-119507067D01*
X49223027Y-119588015D01*
X49191521Y-119691879D01*
X49140356Y-119787600D01*
X49071501Y-119871501D01*
X49002645Y-119928009D01*
X48987599Y-119940357D01*
X48935907Y-119967987D01*
X48891878Y-119991521D01*
X48788014Y-120023027D01*
X48680000Y-120033666D01*
X48571985Y-120023027D01*
X48468121Y-119991521D01*
X48424093Y-119967987D01*
X48372401Y-119940357D01*
X48359643Y-119929887D01*
X48288499Y-119871501D01*
X48219644Y-119787600D01*
X48168479Y-119691878D01*
X48136973Y-119588014D01*
X48129000Y-119507066D01*
X48129000Y-118852933D01*
X48136973Y-118771985D01*
X48168480Y-118668121D01*
X48193667Y-118621000D01*
X48219645Y-118572399D01*
X48288500Y-118488499D01*
X48372401Y-118419643D01*
X48440946Y-118383005D01*
X48468122Y-118368479D01*
X48571986Y-118336973D01*
X48680000Y-118326334D01*
X48788015Y-118336973D01*
X48788015Y-118336973D01*
G37*
G36*
X57428015Y-118336973D02*
G01*
X57531879Y-118368479D01*
X57559055Y-118383005D01*
X57627600Y-118419643D01*
X57711501Y-118488499D01*
X57780357Y-118572400D01*
X57806334Y-118621000D01*
X57831521Y-118668121D01*
X57863027Y-118771985D01*
X57871000Y-118852933D01*
X57871000Y-119507067D01*
X57863027Y-119588015D01*
X57831521Y-119691879D01*
X57780356Y-119787600D01*
X57711501Y-119871501D01*
X57642645Y-119928009D01*
X57627599Y-119940357D01*
X57575907Y-119967987D01*
X57531878Y-119991521D01*
X57428014Y-120023027D01*
X57320000Y-120033666D01*
X57211985Y-120023027D01*
X57108121Y-119991521D01*
X57064093Y-119967987D01*
X57012401Y-119940357D01*
X56999643Y-119929887D01*
X56928499Y-119871501D01*
X56859644Y-119787600D01*
X56808479Y-119691878D01*
X56776973Y-119588014D01*
X56769000Y-119507066D01*
X56769000Y-118852933D01*
X56776973Y-118771985D01*
X56808480Y-118668121D01*
X56833667Y-118621000D01*
X56859645Y-118572399D01*
X56928500Y-118488499D01*
X57012401Y-118419643D01*
X57080946Y-118383005D01*
X57108122Y-118368479D01*
X57211986Y-118336973D01*
X57320000Y-118326334D01*
X57428015Y-118336973D01*
X57428015Y-118336973D01*
G37*
G36*
X51364499Y-118303445D02*
G01*
X51401995Y-118314820D01*
X51436554Y-118333292D01*
X51466847Y-118358153D01*
X51491708Y-118388446D01*
X51510180Y-118423005D01*
X51521555Y-118460501D01*
X51526000Y-118505638D01*
X51526000Y-119244362D01*
X51521555Y-119289499D01*
X51510180Y-119326995D01*
X51491708Y-119361554D01*
X51466847Y-119391847D01*
X51436554Y-119416708D01*
X51401995Y-119435180D01*
X51364499Y-119446555D01*
X51319362Y-119451000D01*
X50680638Y-119451000D01*
X50635501Y-119446555D01*
X50598005Y-119435180D01*
X50563446Y-119416708D01*
X50533153Y-119391847D01*
X50508292Y-119361554D01*
X50489820Y-119326995D01*
X50478445Y-119289499D01*
X50474000Y-119244362D01*
X50474000Y-118505638D01*
X50478445Y-118460501D01*
X50489820Y-118423005D01*
X50508292Y-118388446D01*
X50533153Y-118358153D01*
X50563446Y-118333292D01*
X50598005Y-118314820D01*
X50635501Y-118303445D01*
X50680638Y-118299000D01*
X51319362Y-118299000D01*
X51364499Y-118303445D01*
X51364499Y-118303445D01*
G37*
G36*
X54864499Y-118303445D02*
G01*
X54901995Y-118314820D01*
X54936554Y-118333292D01*
X54966847Y-118358153D01*
X54991708Y-118388446D01*
X55010180Y-118423005D01*
X55021555Y-118460501D01*
X55026000Y-118505638D01*
X55026000Y-119244362D01*
X55021555Y-119289499D01*
X55010180Y-119326995D01*
X54991708Y-119361554D01*
X54966847Y-119391847D01*
X54936554Y-119416708D01*
X54901995Y-119435180D01*
X54864499Y-119446555D01*
X54819362Y-119451000D01*
X54180638Y-119451000D01*
X54135501Y-119446555D01*
X54098005Y-119435180D01*
X54063446Y-119416708D01*
X54033153Y-119391847D01*
X54008292Y-119361554D01*
X53989820Y-119326995D01*
X53978445Y-119289499D01*
X53974000Y-119244362D01*
X53974000Y-118505638D01*
X53978445Y-118460501D01*
X53989820Y-118423005D01*
X54008292Y-118388446D01*
X54033153Y-118358153D01*
X54063446Y-118333292D01*
X54098005Y-118314820D01*
X54135501Y-118303445D01*
X54180638Y-118299000D01*
X54819362Y-118299000D01*
X54864499Y-118303445D01*
X54864499Y-118303445D01*
G37*
G36*
X69889499Y-118278445D02*
G01*
X69926995Y-118289820D01*
X69961554Y-118308292D01*
X69991847Y-118333153D01*
X70016708Y-118363446D01*
X70035180Y-118398005D01*
X70046555Y-118435501D01*
X70051000Y-118480638D01*
X70051000Y-119119362D01*
X70046555Y-119164499D01*
X70035180Y-119201995D01*
X70016708Y-119236554D01*
X69991847Y-119266847D01*
X69961554Y-119291708D01*
X69926995Y-119310180D01*
X69889499Y-119321555D01*
X69844362Y-119326000D01*
X69105638Y-119326000D01*
X69060501Y-119321555D01*
X69023005Y-119310180D01*
X68988446Y-119291708D01*
X68958153Y-119266847D01*
X68933292Y-119236554D01*
X68914820Y-119201995D01*
X68903445Y-119164499D01*
X68899000Y-119119362D01*
X68899000Y-118480638D01*
X68903445Y-118435501D01*
X68914820Y-118398005D01*
X68933292Y-118363446D01*
X68958153Y-118333153D01*
X68988446Y-118308292D01*
X69023005Y-118289820D01*
X69060501Y-118278445D01*
X69105638Y-118274000D01*
X69844362Y-118274000D01*
X69889499Y-118278445D01*
X69889499Y-118278445D01*
G37*
G36*
X71639499Y-118278445D02*
G01*
X71676995Y-118289820D01*
X71711554Y-118308292D01*
X71741847Y-118333153D01*
X71766708Y-118363446D01*
X71785180Y-118398005D01*
X71796555Y-118435501D01*
X71801000Y-118480638D01*
X71801000Y-119119362D01*
X71796555Y-119164499D01*
X71785180Y-119201995D01*
X71766708Y-119236554D01*
X71741847Y-119266847D01*
X71711554Y-119291708D01*
X71676995Y-119310180D01*
X71639499Y-119321555D01*
X71594362Y-119326000D01*
X70855638Y-119326000D01*
X70810501Y-119321555D01*
X70773005Y-119310180D01*
X70738446Y-119291708D01*
X70708153Y-119266847D01*
X70683292Y-119236554D01*
X70664820Y-119201995D01*
X70653445Y-119164499D01*
X70649000Y-119119362D01*
X70649000Y-118480638D01*
X70653445Y-118435501D01*
X70664820Y-118398005D01*
X70683292Y-118363446D01*
X70708153Y-118333153D01*
X70738446Y-118308292D01*
X70773005Y-118289820D01*
X70810501Y-118278445D01*
X70855638Y-118274000D01*
X71594362Y-118274000D01*
X71639499Y-118278445D01*
X71639499Y-118278445D01*
G37*
G36*
X81001000Y-119226000D02*
G01*
X78499000Y-119226000D01*
X78499000Y-117674000D01*
X81001000Y-117674000D01*
X81001000Y-119226000D01*
X81001000Y-119226000D01*
G37*
G36*
X68159928Y-117921764D02*
G01*
X68181009Y-117928160D01*
X68200445Y-117938548D01*
X68217476Y-117952524D01*
X68231452Y-117969555D01*
X68241840Y-117988991D01*
X68248236Y-118010072D01*
X68251000Y-118038140D01*
X68251000Y-118501860D01*
X68248236Y-118529928D01*
X68241840Y-118551009D01*
X68231452Y-118570445D01*
X68217476Y-118587476D01*
X68200445Y-118601452D01*
X68181009Y-118611840D01*
X68159928Y-118618236D01*
X68131860Y-118621000D01*
X66318140Y-118621000D01*
X66290072Y-118618236D01*
X66268991Y-118611840D01*
X66249555Y-118601452D01*
X66232524Y-118587476D01*
X66218548Y-118570445D01*
X66208160Y-118551009D01*
X66201764Y-118529928D01*
X66199000Y-118501860D01*
X66199000Y-118074279D01*
X66196598Y-118049893D01*
X66189485Y-118026444D01*
X66177934Y-118004833D01*
X66171442Y-117996922D01*
X66178834Y-117994680D01*
X66200445Y-117983129D01*
X66227624Y-117958495D01*
X66232523Y-117952525D01*
X66249555Y-117938548D01*
X66268991Y-117928160D01*
X66290072Y-117921764D01*
X66318140Y-117919000D01*
X68131860Y-117919000D01*
X68159928Y-117921764D01*
X68159928Y-117921764D01*
G37*
G36*
X63209928Y-117921764D02*
G01*
X63231009Y-117928160D01*
X63250445Y-117938548D01*
X63267477Y-117952525D01*
X63272376Y-117958495D01*
X63289703Y-117975822D01*
X63310078Y-117989436D01*
X63328092Y-117996898D01*
X63315760Y-118015355D01*
X63306382Y-118037994D01*
X63301000Y-118074279D01*
X63301000Y-118501860D01*
X63298236Y-118529928D01*
X63291840Y-118551009D01*
X63281452Y-118570445D01*
X63267476Y-118587476D01*
X63250445Y-118601452D01*
X63231009Y-118611840D01*
X63209928Y-118618236D01*
X63181860Y-118621000D01*
X61368140Y-118621000D01*
X61340072Y-118618236D01*
X61318991Y-118611840D01*
X61299555Y-118601452D01*
X61282524Y-118587476D01*
X61268548Y-118570445D01*
X61258160Y-118551009D01*
X61251764Y-118529928D01*
X61249000Y-118501860D01*
X61249000Y-118038140D01*
X61251764Y-118010072D01*
X61258160Y-117988991D01*
X61268548Y-117969555D01*
X61282524Y-117952524D01*
X61299555Y-117938548D01*
X61318991Y-117928160D01*
X61340072Y-117921764D01*
X61368140Y-117919000D01*
X63181860Y-117919000D01*
X63209928Y-117921764D01*
X63209928Y-117921764D01*
G37*
G36*
X59864499Y-117053445D02*
G01*
X59901995Y-117064820D01*
X59936554Y-117083292D01*
X59966847Y-117108153D01*
X59991708Y-117138446D01*
X60010180Y-117173005D01*
X60021555Y-117210501D01*
X60026000Y-117255638D01*
X60026000Y-117994362D01*
X60021555Y-118039499D01*
X60010180Y-118076995D01*
X59991708Y-118111554D01*
X59966847Y-118141847D01*
X59936554Y-118166708D01*
X59901995Y-118185180D01*
X59864499Y-118196555D01*
X59819362Y-118201000D01*
X59180638Y-118201000D01*
X59135501Y-118196555D01*
X59098005Y-118185180D01*
X59063446Y-118166708D01*
X59033153Y-118141847D01*
X59008292Y-118111554D01*
X58989820Y-118076995D01*
X58978445Y-118039499D01*
X58974000Y-117994362D01*
X58974000Y-117255638D01*
X58978445Y-117210501D01*
X58989820Y-117173005D01*
X59008292Y-117138446D01*
X59033153Y-117108153D01*
X59063446Y-117083292D01*
X59098005Y-117064820D01*
X59135501Y-117053445D01*
X59180638Y-117049000D01*
X59819362Y-117049000D01*
X59864499Y-117053445D01*
X59864499Y-117053445D01*
G37*
G36*
X65875877Y-114667696D02*
G01*
X65906062Y-114676853D01*
X65933883Y-114691723D01*
X65958266Y-114711734D01*
X65977376Y-114735020D01*
X65994703Y-114752347D01*
X66015077Y-114765960D01*
X66033092Y-114773423D01*
X66020759Y-114791881D01*
X66011382Y-114814519D01*
X66006000Y-114850804D01*
X66006000Y-115339196D01*
X66008402Y-115363582D01*
X66015515Y-115387031D01*
X66027066Y-115408642D01*
X66042611Y-115427584D01*
X66061553Y-115443129D01*
X66083164Y-115454680D01*
X66106613Y-115461793D01*
X66130999Y-115464195D01*
X66155385Y-115461793D01*
X66178834Y-115454680D01*
X66200445Y-115443129D01*
X66227624Y-115418495D01*
X66232523Y-115412525D01*
X66249555Y-115398548D01*
X66268991Y-115388160D01*
X66290072Y-115381764D01*
X66318140Y-115379000D01*
X68131860Y-115379000D01*
X68159928Y-115381764D01*
X68181009Y-115388160D01*
X68200445Y-115398548D01*
X68217476Y-115412524D01*
X68231452Y-115429555D01*
X68241840Y-115448991D01*
X68248236Y-115470072D01*
X68251000Y-115498140D01*
X68251000Y-115961860D01*
X68248236Y-115989928D01*
X68241840Y-116011009D01*
X68231452Y-116030445D01*
X68217476Y-116047476D01*
X68200445Y-116061452D01*
X68181009Y-116071840D01*
X68159928Y-116078236D01*
X68131860Y-116081000D01*
X66318140Y-116081000D01*
X66290072Y-116078236D01*
X66268991Y-116071840D01*
X66249555Y-116061452D01*
X66232523Y-116047475D01*
X66227624Y-116041505D01*
X66210297Y-116024178D01*
X66189922Y-116010564D01*
X66167284Y-116001187D01*
X66143250Y-115996407D01*
X66118746Y-115996407D01*
X66094713Y-116001188D01*
X66072074Y-116010565D01*
X66051700Y-116024179D01*
X66034373Y-116041506D01*
X66020759Y-116061881D01*
X66011382Y-116084519D01*
X66006000Y-116120804D01*
X66006000Y-116609196D01*
X66008402Y-116633582D01*
X66015515Y-116657031D01*
X66027066Y-116678642D01*
X66042611Y-116697584D01*
X66061553Y-116713129D01*
X66083164Y-116724680D01*
X66106613Y-116731793D01*
X66130999Y-116734195D01*
X66155385Y-116731793D01*
X66178834Y-116724680D01*
X66200445Y-116713129D01*
X66227624Y-116688495D01*
X66232523Y-116682525D01*
X66249555Y-116668548D01*
X66268991Y-116658160D01*
X66290072Y-116651764D01*
X66318140Y-116649000D01*
X68131860Y-116649000D01*
X68159928Y-116651764D01*
X68181009Y-116658160D01*
X68200445Y-116668548D01*
X68217476Y-116682524D01*
X68231452Y-116699555D01*
X68241840Y-116718991D01*
X68248236Y-116740072D01*
X68251000Y-116768140D01*
X68251000Y-117231860D01*
X68248236Y-117259928D01*
X68241840Y-117281009D01*
X68231452Y-117300445D01*
X68217476Y-117317476D01*
X68200445Y-117331452D01*
X68181009Y-117341840D01*
X68159928Y-117348236D01*
X68131860Y-117351000D01*
X66318140Y-117351000D01*
X66290072Y-117348236D01*
X66268991Y-117341840D01*
X66249555Y-117331452D01*
X66232523Y-117317475D01*
X66227624Y-117311505D01*
X66210297Y-117294178D01*
X66189922Y-117280564D01*
X66167284Y-117271187D01*
X66143250Y-117266407D01*
X66118746Y-117266407D01*
X66094713Y-117271188D01*
X66072074Y-117280565D01*
X66051700Y-117294179D01*
X66034373Y-117311506D01*
X66020759Y-117331881D01*
X66011382Y-117354519D01*
X66006000Y-117390804D01*
X66006000Y-117879196D01*
X66008402Y-117903582D01*
X66015515Y-117927031D01*
X66027066Y-117948642D01*
X66033558Y-117956553D01*
X66026166Y-117958795D01*
X66004555Y-117970346D01*
X65977376Y-117994980D01*
X65958266Y-118018266D01*
X65933883Y-118038277D01*
X65906062Y-118053147D01*
X65875877Y-118062304D01*
X65838348Y-118066000D01*
X63661652Y-118066000D01*
X63624123Y-118062304D01*
X63593938Y-118053147D01*
X63566117Y-118038277D01*
X63541734Y-118018266D01*
X63522624Y-117994980D01*
X63505297Y-117977653D01*
X63484923Y-117964040D01*
X63466908Y-117956577D01*
X63479241Y-117938119D01*
X63488618Y-117915481D01*
X63494000Y-117879196D01*
X63494000Y-117390804D01*
X63491598Y-117366418D01*
X63484485Y-117342969D01*
X63472934Y-117321358D01*
X63457389Y-117302416D01*
X63438447Y-117286871D01*
X63416836Y-117275320D01*
X63393387Y-117268207D01*
X63369001Y-117265805D01*
X63344615Y-117268207D01*
X63321166Y-117275320D01*
X63299555Y-117286871D01*
X63272376Y-117311505D01*
X63267477Y-117317475D01*
X63250445Y-117331452D01*
X63231009Y-117341840D01*
X63209928Y-117348236D01*
X63181860Y-117351000D01*
X61368140Y-117351000D01*
X61340072Y-117348236D01*
X61318991Y-117341840D01*
X61299555Y-117331452D01*
X61282524Y-117317476D01*
X61268548Y-117300445D01*
X61258160Y-117281009D01*
X61251764Y-117259928D01*
X61249000Y-117231860D01*
X61249000Y-116768140D01*
X61251764Y-116740072D01*
X61258160Y-116718991D01*
X61268548Y-116699555D01*
X61282524Y-116682524D01*
X61299555Y-116668548D01*
X61318991Y-116658160D01*
X61340072Y-116651764D01*
X61368140Y-116649000D01*
X63181860Y-116649000D01*
X63209928Y-116651764D01*
X63231009Y-116658160D01*
X63250445Y-116668548D01*
X63267477Y-116682525D01*
X63272376Y-116688495D01*
X63289703Y-116705822D01*
X63310078Y-116719436D01*
X63332716Y-116728813D01*
X63356750Y-116733593D01*
X63381254Y-116733593D01*
X63405287Y-116728812D01*
X63427926Y-116719435D01*
X63448300Y-116705821D01*
X63465627Y-116688494D01*
X63479241Y-116668119D01*
X63488618Y-116645481D01*
X63494000Y-116609196D01*
X63494000Y-116120804D01*
X63491598Y-116096418D01*
X63484485Y-116072969D01*
X63472934Y-116051358D01*
X63457389Y-116032416D01*
X63438447Y-116016871D01*
X63416836Y-116005320D01*
X63393387Y-115998207D01*
X63369001Y-115995805D01*
X63344615Y-115998207D01*
X63321166Y-116005320D01*
X63299555Y-116016871D01*
X63272376Y-116041505D01*
X63267477Y-116047475D01*
X63250445Y-116061452D01*
X63231009Y-116071840D01*
X63209928Y-116078236D01*
X63181860Y-116081000D01*
X61368140Y-116081000D01*
X61340072Y-116078236D01*
X61318991Y-116071840D01*
X61299555Y-116061452D01*
X61282524Y-116047476D01*
X61268548Y-116030445D01*
X61258160Y-116011009D01*
X61251764Y-115989928D01*
X61249000Y-115961860D01*
X61249000Y-115498140D01*
X61251764Y-115470072D01*
X61258160Y-115448991D01*
X61268548Y-115429555D01*
X61282524Y-115412524D01*
X61299555Y-115398548D01*
X61318991Y-115388160D01*
X61340072Y-115381764D01*
X61368140Y-115379000D01*
X63181860Y-115379000D01*
X63209928Y-115381764D01*
X63231009Y-115388160D01*
X63250445Y-115398548D01*
X63267477Y-115412525D01*
X63272376Y-115418495D01*
X63289703Y-115435822D01*
X63310078Y-115449436D01*
X63332716Y-115458813D01*
X63356750Y-115463593D01*
X63381254Y-115463593D01*
X63405287Y-115458812D01*
X63427926Y-115449435D01*
X63448300Y-115435821D01*
X63465627Y-115418494D01*
X63479241Y-115398119D01*
X63488618Y-115375481D01*
X63494000Y-115339196D01*
X63494000Y-114850804D01*
X63491598Y-114826418D01*
X63484485Y-114802969D01*
X63472934Y-114781358D01*
X63466442Y-114773447D01*
X63473834Y-114771205D01*
X63495445Y-114759654D01*
X63522624Y-114735020D01*
X63541734Y-114711734D01*
X63566117Y-114691723D01*
X63593938Y-114676853D01*
X63624123Y-114667696D01*
X63661652Y-114664000D01*
X65838348Y-114664000D01*
X65875877Y-114667696D01*
X65875877Y-114667696D01*
G37*
G36*
X77181000Y-117826000D02*
G01*
X76019000Y-117826000D01*
X76019000Y-115174000D01*
X77181000Y-115174000D01*
X77181000Y-117826000D01*
X77181000Y-117826000D01*
G37*
G36*
X74981000Y-117826000D02*
G01*
X73819000Y-117826000D01*
X73819000Y-115174000D01*
X74981000Y-115174000D01*
X74981000Y-117826000D01*
X74981000Y-117826000D01*
G37*
G36*
X51364499Y-116553445D02*
G01*
X51401995Y-116564820D01*
X51436554Y-116583292D01*
X51466847Y-116608153D01*
X51491708Y-116638446D01*
X51510180Y-116673005D01*
X51521555Y-116710501D01*
X51526000Y-116755638D01*
X51526000Y-117494362D01*
X51521555Y-117539499D01*
X51510180Y-117576995D01*
X51491708Y-117611554D01*
X51466847Y-117641847D01*
X51436554Y-117666708D01*
X51401995Y-117685180D01*
X51364499Y-117696555D01*
X51319362Y-117701000D01*
X50680638Y-117701000D01*
X50635501Y-117696555D01*
X50598005Y-117685180D01*
X50563446Y-117666708D01*
X50533153Y-117641847D01*
X50508292Y-117611554D01*
X50489820Y-117576995D01*
X50478445Y-117539499D01*
X50474000Y-117494362D01*
X50474000Y-116755638D01*
X50478445Y-116710501D01*
X50489820Y-116673005D01*
X50508292Y-116638446D01*
X50533153Y-116608153D01*
X50563446Y-116583292D01*
X50598005Y-116564820D01*
X50635501Y-116553445D01*
X50680638Y-116549000D01*
X51319362Y-116549000D01*
X51364499Y-116553445D01*
X51364499Y-116553445D01*
G37*
G36*
X54864499Y-116553445D02*
G01*
X54901995Y-116564820D01*
X54936554Y-116583292D01*
X54966847Y-116608153D01*
X54991708Y-116638446D01*
X55010180Y-116673005D01*
X55021555Y-116710501D01*
X55026000Y-116755638D01*
X55026000Y-117494362D01*
X55021555Y-117539499D01*
X55010180Y-117576995D01*
X54991708Y-117611554D01*
X54966847Y-117641847D01*
X54936554Y-117666708D01*
X54901995Y-117685180D01*
X54864499Y-117696555D01*
X54819362Y-117701000D01*
X54180638Y-117701000D01*
X54135501Y-117696555D01*
X54098005Y-117685180D01*
X54063446Y-117666708D01*
X54033153Y-117641847D01*
X54008292Y-117611554D01*
X53989820Y-117576995D01*
X53978445Y-117539499D01*
X53974000Y-117494362D01*
X53974000Y-116755638D01*
X53978445Y-116710501D01*
X53989820Y-116673005D01*
X54008292Y-116638446D01*
X54033153Y-116608153D01*
X54063446Y-116583292D01*
X54098005Y-116564820D01*
X54135501Y-116553445D01*
X54180638Y-116549000D01*
X54819362Y-116549000D01*
X54864499Y-116553445D01*
X54864499Y-116553445D01*
G37*
G36*
X71651000Y-116701000D02*
G01*
X69849000Y-116701000D01*
X69849000Y-114899000D01*
X71651000Y-114899000D01*
X71651000Y-116701000D01*
X71651000Y-116701000D01*
G37*
G36*
X59864499Y-115303445D02*
G01*
X59901995Y-115314820D01*
X59936554Y-115333292D01*
X59966847Y-115358153D01*
X59991708Y-115388446D01*
X60010180Y-115423005D01*
X60021555Y-115460501D01*
X60026000Y-115505638D01*
X60026000Y-116244362D01*
X60021555Y-116289499D01*
X60010180Y-116326995D01*
X59991708Y-116361554D01*
X59966847Y-116391847D01*
X59936554Y-116416708D01*
X59901995Y-116435180D01*
X59864499Y-116446555D01*
X59819362Y-116451000D01*
X59180638Y-116451000D01*
X59135501Y-116446555D01*
X59098005Y-116435180D01*
X59063446Y-116416708D01*
X59033153Y-116391847D01*
X59008292Y-116361554D01*
X58989820Y-116326995D01*
X58978445Y-116289499D01*
X58974000Y-116244362D01*
X58974000Y-115505638D01*
X58978445Y-115460501D01*
X58989820Y-115423005D01*
X59008292Y-115388446D01*
X59033153Y-115358153D01*
X59063446Y-115333292D01*
X59098005Y-115314820D01*
X59135501Y-115303445D01*
X59180638Y-115299000D01*
X59819362Y-115299000D01*
X59864499Y-115303445D01*
X59864499Y-115303445D01*
G37*
G36*
X48788015Y-113906973D02*
G01*
X48891879Y-113938479D01*
X48919055Y-113953005D01*
X48987600Y-113989643D01*
X49071501Y-114058499D01*
X49140357Y-114142400D01*
X49159915Y-114178991D01*
X49191521Y-114238121D01*
X49223027Y-114341985D01*
X49231000Y-114422933D01*
X49231000Y-115577067D01*
X49223027Y-115658015D01*
X49191521Y-115761879D01*
X49140356Y-115857600D01*
X49071501Y-115941501D01*
X49046693Y-115961860D01*
X48987599Y-116010357D01*
X48951603Y-116029597D01*
X48891878Y-116061521D01*
X48788014Y-116093027D01*
X48680000Y-116103666D01*
X48571985Y-116093027D01*
X48468121Y-116061521D01*
X48424093Y-116037987D01*
X48372401Y-116010357D01*
X48347508Y-115989928D01*
X48288499Y-115941501D01*
X48219644Y-115857600D01*
X48168479Y-115761878D01*
X48136973Y-115658014D01*
X48129000Y-115577066D01*
X48129001Y-114422933D01*
X48136974Y-114341985D01*
X48168480Y-114238121D01*
X48200086Y-114178991D01*
X48219644Y-114142400D01*
X48288500Y-114058499D01*
X48372401Y-113989643D01*
X48440946Y-113953005D01*
X48468122Y-113938479D01*
X48571986Y-113906973D01*
X48680000Y-113896334D01*
X48788015Y-113906973D01*
X48788015Y-113906973D01*
G37*
G36*
X57428015Y-113906973D02*
G01*
X57531879Y-113938479D01*
X57559055Y-113953005D01*
X57627600Y-113989643D01*
X57711501Y-114058499D01*
X57780357Y-114142400D01*
X57799915Y-114178991D01*
X57831521Y-114238121D01*
X57863027Y-114341985D01*
X57871000Y-114422933D01*
X57871000Y-115577067D01*
X57863027Y-115658015D01*
X57831521Y-115761879D01*
X57780356Y-115857600D01*
X57711501Y-115941501D01*
X57686693Y-115961860D01*
X57627599Y-116010357D01*
X57591603Y-116029597D01*
X57531878Y-116061521D01*
X57428014Y-116093027D01*
X57320000Y-116103666D01*
X57211985Y-116093027D01*
X57108121Y-116061521D01*
X57064093Y-116037987D01*
X57012401Y-116010357D01*
X56987508Y-115989928D01*
X56928499Y-115941501D01*
X56859644Y-115857600D01*
X56808479Y-115761878D01*
X56776973Y-115658014D01*
X56769000Y-115577066D01*
X56769001Y-114422933D01*
X56776974Y-114341985D01*
X56808480Y-114238121D01*
X56840086Y-114178991D01*
X56859644Y-114142400D01*
X56928500Y-114058499D01*
X57012401Y-113989643D01*
X57080946Y-113953005D01*
X57108122Y-113938479D01*
X57211986Y-113906973D01*
X57320000Y-113896334D01*
X57428015Y-113906973D01*
X57428015Y-113906973D01*
G37*
G36*
X50219672Y-115168449D02*
G01*
X50219674Y-115168450D01*
X50219675Y-115168450D01*
X50288103Y-115196793D01*
X50349686Y-115237942D01*
X50402058Y-115290314D01*
X50443207Y-115351897D01*
X50470792Y-115418495D01*
X50471551Y-115420328D01*
X50486000Y-115492966D01*
X50486000Y-115567034D01*
X50484006Y-115577060D01*
X50471550Y-115639675D01*
X50443207Y-115708103D01*
X50402058Y-115769686D01*
X50349686Y-115822058D01*
X50288103Y-115863207D01*
X50219675Y-115891550D01*
X50219674Y-115891550D01*
X50219672Y-115891551D01*
X50147034Y-115906000D01*
X50072966Y-115906000D01*
X50000328Y-115891551D01*
X50000326Y-115891550D01*
X50000325Y-115891550D01*
X49931897Y-115863207D01*
X49870314Y-115822058D01*
X49817942Y-115769686D01*
X49776793Y-115708103D01*
X49748450Y-115639675D01*
X49735995Y-115577060D01*
X49734000Y-115567034D01*
X49734000Y-115492966D01*
X49748449Y-115420328D01*
X49749208Y-115418495D01*
X49776793Y-115351897D01*
X49817942Y-115290314D01*
X49870314Y-115237942D01*
X49931897Y-115196793D01*
X50000325Y-115168450D01*
X50000326Y-115168450D01*
X50000328Y-115168449D01*
X50072966Y-115154000D01*
X50147034Y-115154000D01*
X50219672Y-115168449D01*
X50219672Y-115168449D01*
G37*
G36*
X55999672Y-115168449D02*
G01*
X55999674Y-115168450D01*
X55999675Y-115168450D01*
X56068103Y-115196793D01*
X56129686Y-115237942D01*
X56182058Y-115290314D01*
X56223207Y-115351897D01*
X56250792Y-115418495D01*
X56251551Y-115420328D01*
X56266000Y-115492966D01*
X56266000Y-115567034D01*
X56264006Y-115577060D01*
X56251550Y-115639675D01*
X56223207Y-115708103D01*
X56182058Y-115769686D01*
X56129686Y-115822058D01*
X56068103Y-115863207D01*
X55999675Y-115891550D01*
X55999674Y-115891550D01*
X55999672Y-115891551D01*
X55927034Y-115906000D01*
X55852966Y-115906000D01*
X55780328Y-115891551D01*
X55780326Y-115891550D01*
X55780325Y-115891550D01*
X55711897Y-115863207D01*
X55650314Y-115822058D01*
X55597942Y-115769686D01*
X55556793Y-115708103D01*
X55528450Y-115639675D01*
X55515995Y-115577060D01*
X55514000Y-115567034D01*
X55514000Y-115492966D01*
X55528449Y-115420328D01*
X55529208Y-115418495D01*
X55556793Y-115351897D01*
X55597942Y-115290314D01*
X55650314Y-115237942D01*
X55711897Y-115196793D01*
X55780325Y-115168450D01*
X55780326Y-115168450D01*
X55780328Y-115168449D01*
X55852966Y-115154000D01*
X55927034Y-115154000D01*
X55999672Y-115168449D01*
X55999672Y-115168449D01*
G37*
G36*
X63209928Y-114111764D02*
G01*
X63231009Y-114118160D01*
X63250445Y-114128548D01*
X63267476Y-114142524D01*
X63281452Y-114159555D01*
X63291840Y-114178991D01*
X63298236Y-114200072D01*
X63301000Y-114228140D01*
X63301000Y-114655721D01*
X63303402Y-114680107D01*
X63310515Y-114703556D01*
X63322066Y-114725167D01*
X63328558Y-114733078D01*
X63321166Y-114735320D01*
X63299555Y-114746871D01*
X63272376Y-114771505D01*
X63267477Y-114777475D01*
X63250445Y-114791452D01*
X63231009Y-114801840D01*
X63209928Y-114808236D01*
X63181860Y-114811000D01*
X61368140Y-114811000D01*
X61340072Y-114808236D01*
X61318991Y-114801840D01*
X61299555Y-114791452D01*
X61282524Y-114777476D01*
X61268548Y-114760445D01*
X61258160Y-114741009D01*
X61251764Y-114719928D01*
X61249000Y-114691860D01*
X61249000Y-114228140D01*
X61251764Y-114200072D01*
X61258160Y-114178991D01*
X61268548Y-114159555D01*
X61282524Y-114142524D01*
X61299555Y-114128548D01*
X61318991Y-114118160D01*
X61340072Y-114111764D01*
X61368140Y-114109000D01*
X63181860Y-114109000D01*
X63209928Y-114111764D01*
X63209928Y-114111764D01*
G37*
G36*
X68159928Y-114111764D02*
G01*
X68181009Y-114118160D01*
X68200445Y-114128548D01*
X68217476Y-114142524D01*
X68231452Y-114159555D01*
X68241840Y-114178991D01*
X68248236Y-114200072D01*
X68251000Y-114228140D01*
X68251000Y-114691860D01*
X68248236Y-114719928D01*
X68241840Y-114741009D01*
X68231452Y-114760445D01*
X68217476Y-114777476D01*
X68200445Y-114791452D01*
X68181009Y-114801840D01*
X68159928Y-114808236D01*
X68131860Y-114811000D01*
X66318140Y-114811000D01*
X66290072Y-114808236D01*
X66268991Y-114801840D01*
X66249555Y-114791452D01*
X66232523Y-114777475D01*
X66227624Y-114771505D01*
X66210297Y-114754178D01*
X66189922Y-114740564D01*
X66171908Y-114733102D01*
X66184240Y-114714645D01*
X66193618Y-114692006D01*
X66199000Y-114655721D01*
X66199000Y-114228140D01*
X66201764Y-114200072D01*
X66208160Y-114178991D01*
X66218548Y-114159555D01*
X66232524Y-114142524D01*
X66249555Y-114128548D01*
X66268991Y-114118160D01*
X66290072Y-114111764D01*
X66318140Y-114109000D01*
X68131860Y-114109000D01*
X68159928Y-114111764D01*
X68159928Y-114111764D01*
G37*
G36*
X73864499Y-113053445D02*
G01*
X73901995Y-113064820D01*
X73936554Y-113083292D01*
X73966847Y-113108153D01*
X73991708Y-113138446D01*
X74010180Y-113173005D01*
X74021555Y-113210501D01*
X74026000Y-113255638D01*
X74026000Y-113994362D01*
X74021555Y-114039499D01*
X74010180Y-114076995D01*
X73991708Y-114111554D01*
X73966847Y-114141847D01*
X73936554Y-114166708D01*
X73901995Y-114185180D01*
X73864499Y-114196555D01*
X73819362Y-114201000D01*
X73180638Y-114201000D01*
X73135501Y-114196555D01*
X73098005Y-114185180D01*
X73063446Y-114166708D01*
X73033153Y-114141847D01*
X73008292Y-114111554D01*
X72989820Y-114076995D01*
X72978445Y-114039499D01*
X72974000Y-113994362D01*
X72974000Y-113255638D01*
X72978445Y-113210501D01*
X72989820Y-113173005D01*
X73008292Y-113138446D01*
X73033153Y-113108153D01*
X73063446Y-113083292D01*
X73098005Y-113064820D01*
X73135501Y-113053445D01*
X73180638Y-113049000D01*
X73819362Y-113049000D01*
X73864499Y-113053445D01*
X73864499Y-113053445D01*
G37*
G36*
X77114499Y-113053445D02*
G01*
X77151995Y-113064820D01*
X77186554Y-113083292D01*
X77216847Y-113108153D01*
X77241708Y-113138446D01*
X77260180Y-113173005D01*
X77271555Y-113210501D01*
X77276000Y-113255638D01*
X77276000Y-113994362D01*
X77271555Y-114039499D01*
X77260180Y-114076995D01*
X77241708Y-114111554D01*
X77216847Y-114141847D01*
X77186554Y-114166708D01*
X77151995Y-114185180D01*
X77114499Y-114196555D01*
X77069362Y-114201000D01*
X76430638Y-114201000D01*
X76385501Y-114196555D01*
X76348005Y-114185180D01*
X76313446Y-114166708D01*
X76283153Y-114141847D01*
X76258292Y-114111554D01*
X76239820Y-114076995D01*
X76228445Y-114039499D01*
X76224000Y-113994362D01*
X76224000Y-113255638D01*
X76228445Y-113210501D01*
X76239820Y-113173005D01*
X76258292Y-113138446D01*
X76283153Y-113108153D01*
X76313446Y-113083292D01*
X76348005Y-113064820D01*
X76385501Y-113053445D01*
X76430638Y-113049000D01*
X77069362Y-113049000D01*
X77114499Y-113053445D01*
X77114499Y-113053445D01*
G37*
G36*
X59864499Y-113053445D02*
G01*
X59901995Y-113064820D01*
X59936554Y-113083292D01*
X59966847Y-113108153D01*
X59991708Y-113138446D01*
X60010180Y-113173005D01*
X60021555Y-113210501D01*
X60026000Y-113255638D01*
X60026000Y-113994362D01*
X60021555Y-114039499D01*
X60010180Y-114076995D01*
X59991708Y-114111554D01*
X59966847Y-114141847D01*
X59936554Y-114166708D01*
X59901995Y-114185180D01*
X59864499Y-114196555D01*
X59819362Y-114201000D01*
X59180638Y-114201000D01*
X59135501Y-114196555D01*
X59098005Y-114185180D01*
X59063446Y-114166708D01*
X59033153Y-114141847D01*
X59008292Y-114111554D01*
X58989820Y-114076995D01*
X58978445Y-114039499D01*
X58974000Y-113994362D01*
X58974000Y-113255638D01*
X58978445Y-113210501D01*
X58989820Y-113173005D01*
X59008292Y-113138446D01*
X59033153Y-113108153D01*
X59063446Y-113083292D01*
X59098005Y-113064820D01*
X59135501Y-113053445D01*
X59180638Y-113049000D01*
X59819362Y-113049000D01*
X59864499Y-113053445D01*
X59864499Y-113053445D01*
G37*
G36*
X84651000Y-114151000D02*
G01*
X82849000Y-114151000D01*
X82849000Y-112349000D01*
X84651000Y-112349000D01*
X84651000Y-114151000D01*
X84651000Y-114151000D01*
G37*
G36*
X81001000Y-113326000D02*
G01*
X78499000Y-113326000D01*
X78499000Y-111774000D01*
X81001000Y-111774000D01*
X81001000Y-113326000D01*
X81001000Y-113326000D01*
G37*
G36*
X69489499Y-111878445D02*
G01*
X69526995Y-111889820D01*
X69561554Y-111908292D01*
X69591847Y-111933153D01*
X69616708Y-111963446D01*
X69635180Y-111998005D01*
X69646555Y-112035501D01*
X69651000Y-112080638D01*
X69651000Y-112719362D01*
X69646555Y-112764499D01*
X69635180Y-112801995D01*
X69616708Y-112836554D01*
X69591847Y-112866847D01*
X69561554Y-112891708D01*
X69526995Y-112910180D01*
X69489499Y-112921555D01*
X69444362Y-112926000D01*
X68705638Y-112926000D01*
X68660501Y-112921555D01*
X68623005Y-112910180D01*
X68588446Y-112891708D01*
X68558153Y-112866847D01*
X68533292Y-112836554D01*
X68514820Y-112801995D01*
X68503445Y-112764499D01*
X68499000Y-112719362D01*
X68499000Y-112080638D01*
X68503445Y-112035501D01*
X68514820Y-111998005D01*
X68533292Y-111963446D01*
X68558153Y-111933153D01*
X68588446Y-111908292D01*
X68623005Y-111889820D01*
X68660501Y-111878445D01*
X68705638Y-111874000D01*
X69444362Y-111874000D01*
X69489499Y-111878445D01*
X69489499Y-111878445D01*
G37*
G36*
X67739499Y-111878445D02*
G01*
X67776995Y-111889820D01*
X67811554Y-111908292D01*
X67841847Y-111933153D01*
X67866708Y-111963446D01*
X67885180Y-111998005D01*
X67896555Y-112035501D01*
X67901000Y-112080638D01*
X67901000Y-112719362D01*
X67896555Y-112764499D01*
X67885180Y-112801995D01*
X67866708Y-112836554D01*
X67841847Y-112866847D01*
X67811554Y-112891708D01*
X67776995Y-112910180D01*
X67739499Y-112921555D01*
X67694362Y-112926000D01*
X66955638Y-112926000D01*
X66910501Y-112921555D01*
X66873005Y-112910180D01*
X66838446Y-112891708D01*
X66808153Y-112866847D01*
X66783292Y-112836554D01*
X66764820Y-112801995D01*
X66753445Y-112764499D01*
X66749000Y-112719362D01*
X66749000Y-112080638D01*
X66753445Y-112035501D01*
X66764820Y-111998005D01*
X66783292Y-111963446D01*
X66808153Y-111933153D01*
X66838446Y-111908292D01*
X66873005Y-111889820D01*
X66910501Y-111878445D01*
X66955638Y-111874000D01*
X67694362Y-111874000D01*
X67739499Y-111878445D01*
X67739499Y-111878445D01*
G37*
G36*
X22551000Y-112756000D02*
G01*
X20449000Y-112756000D01*
X20449000Y-111754000D01*
X22551000Y-111754000D01*
X22551000Y-112756000D01*
X22551000Y-112756000D01*
G37*
G36*
X39551000Y-112756000D02*
G01*
X37449000Y-112756000D01*
X37449000Y-111754000D01*
X39551000Y-111754000D01*
X39551000Y-112756000D01*
X39551000Y-112756000D01*
G37*
G36*
X44289499Y-111478445D02*
G01*
X44326995Y-111489820D01*
X44361554Y-111508292D01*
X44391847Y-111533153D01*
X44416708Y-111563446D01*
X44435180Y-111598005D01*
X44446555Y-111635501D01*
X44451000Y-111680638D01*
X44451000Y-112319362D01*
X44446555Y-112364499D01*
X44435180Y-112401995D01*
X44416708Y-112436554D01*
X44391847Y-112466847D01*
X44361554Y-112491708D01*
X44326995Y-112510180D01*
X44289499Y-112521555D01*
X44244362Y-112526000D01*
X43505638Y-112526000D01*
X43460501Y-112521555D01*
X43423005Y-112510180D01*
X43388446Y-112491708D01*
X43358153Y-112466847D01*
X43333292Y-112436554D01*
X43314820Y-112401995D01*
X43303445Y-112364499D01*
X43299000Y-112319362D01*
X43299000Y-111680638D01*
X43303445Y-111635501D01*
X43314820Y-111598005D01*
X43333292Y-111563446D01*
X43358153Y-111533153D01*
X43388446Y-111508292D01*
X43423005Y-111489820D01*
X43460501Y-111478445D01*
X43505638Y-111474000D01*
X44244362Y-111474000D01*
X44289499Y-111478445D01*
X44289499Y-111478445D01*
G37*
G36*
X42539499Y-111478445D02*
G01*
X42576995Y-111489820D01*
X42611554Y-111508292D01*
X42641847Y-111533153D01*
X42666708Y-111563446D01*
X42685180Y-111598005D01*
X42696555Y-111635501D01*
X42701000Y-111680638D01*
X42701000Y-112319362D01*
X42696555Y-112364499D01*
X42685180Y-112401995D01*
X42666708Y-112436554D01*
X42641847Y-112466847D01*
X42611554Y-112491708D01*
X42576995Y-112510180D01*
X42539499Y-112521555D01*
X42494362Y-112526000D01*
X41755638Y-112526000D01*
X41710501Y-112521555D01*
X41673005Y-112510180D01*
X41638446Y-112491708D01*
X41608153Y-112466847D01*
X41583292Y-112436554D01*
X41564820Y-112401995D01*
X41553445Y-112364499D01*
X41549000Y-112319362D01*
X41549000Y-111680638D01*
X41553445Y-111635501D01*
X41564820Y-111598005D01*
X41583292Y-111563446D01*
X41608153Y-111533153D01*
X41638446Y-111508292D01*
X41673005Y-111489820D01*
X41710501Y-111478445D01*
X41755638Y-111474000D01*
X42494362Y-111474000D01*
X42539499Y-111478445D01*
X42539499Y-111478445D01*
G37*
G36*
X59864499Y-111303445D02*
G01*
X59901995Y-111314820D01*
X59936554Y-111333292D01*
X59966847Y-111358153D01*
X59991708Y-111388446D01*
X60010180Y-111423005D01*
X60021555Y-111460501D01*
X60026000Y-111505638D01*
X60026000Y-112244362D01*
X60021555Y-112289499D01*
X60010180Y-112326995D01*
X59991708Y-112361554D01*
X59966847Y-112391847D01*
X59936554Y-112416708D01*
X59901995Y-112435180D01*
X59864499Y-112446555D01*
X59819362Y-112451000D01*
X59180638Y-112451000D01*
X59135501Y-112446555D01*
X59098005Y-112435180D01*
X59063446Y-112416708D01*
X59033153Y-112391847D01*
X59008292Y-112361554D01*
X58989820Y-112326995D01*
X58978445Y-112289499D01*
X58974000Y-112244362D01*
X58974000Y-111505638D01*
X58978445Y-111460501D01*
X58989820Y-111423005D01*
X59008292Y-111388446D01*
X59033153Y-111358153D01*
X59063446Y-111333292D01*
X59098005Y-111314820D01*
X59135501Y-111303445D01*
X59180638Y-111299000D01*
X59819362Y-111299000D01*
X59864499Y-111303445D01*
X59864499Y-111303445D01*
G37*
G36*
X77114499Y-111303445D02*
G01*
X77151995Y-111314820D01*
X77186554Y-111333292D01*
X77216847Y-111358153D01*
X77241708Y-111388446D01*
X77260180Y-111423005D01*
X77271555Y-111460501D01*
X77276000Y-111505638D01*
X77276000Y-112244362D01*
X77271555Y-112289499D01*
X77260180Y-112326995D01*
X77241708Y-112361554D01*
X77216847Y-112391847D01*
X77186554Y-112416708D01*
X77151995Y-112435180D01*
X77114499Y-112446555D01*
X77069362Y-112451000D01*
X76430638Y-112451000D01*
X76385501Y-112446555D01*
X76348005Y-112435180D01*
X76313446Y-112416708D01*
X76283153Y-112391847D01*
X76258292Y-112361554D01*
X76239820Y-112326995D01*
X76228445Y-112289499D01*
X76224000Y-112244362D01*
X76224000Y-111505638D01*
X76228445Y-111460501D01*
X76239820Y-111423005D01*
X76258292Y-111388446D01*
X76283153Y-111358153D01*
X76313446Y-111333292D01*
X76348005Y-111314820D01*
X76385501Y-111303445D01*
X76430638Y-111299000D01*
X77069362Y-111299000D01*
X77114499Y-111303445D01*
X77114499Y-111303445D01*
G37*
G36*
X73864499Y-111303445D02*
G01*
X73901995Y-111314820D01*
X73936554Y-111333292D01*
X73966847Y-111358153D01*
X73991708Y-111388446D01*
X74010180Y-111423005D01*
X74021555Y-111460501D01*
X74026000Y-111505638D01*
X74026000Y-112244362D01*
X74021555Y-112289499D01*
X74010180Y-112326995D01*
X73991708Y-112361554D01*
X73966847Y-112391847D01*
X73936554Y-112416708D01*
X73901995Y-112435180D01*
X73864499Y-112446555D01*
X73819362Y-112451000D01*
X73180638Y-112451000D01*
X73135501Y-112446555D01*
X73098005Y-112435180D01*
X73063446Y-112416708D01*
X73033153Y-112391847D01*
X73008292Y-112361554D01*
X72989820Y-112326995D01*
X72978445Y-112289499D01*
X72974000Y-112244362D01*
X72974000Y-111505638D01*
X72978445Y-111460501D01*
X72989820Y-111423005D01*
X73008292Y-111388446D01*
X73033153Y-111358153D01*
X73063446Y-111333292D01*
X73098005Y-111314820D01*
X73135501Y-111303445D01*
X73180638Y-111299000D01*
X73819362Y-111299000D01*
X73864499Y-111303445D01*
X73864499Y-111303445D01*
G37*
G36*
X47101000Y-112046000D02*
G01*
X45499000Y-112046000D01*
X45499000Y-111344000D01*
X47101000Y-111344000D01*
X47101000Y-112046000D01*
X47101000Y-112046000D01*
G37*
G36*
X52501000Y-112046000D02*
G01*
X50899000Y-112046000D01*
X50899000Y-111344000D01*
X52501000Y-111344000D01*
X52501000Y-112046000D01*
X52501000Y-112046000D01*
G37*
G36*
X39551000Y-111486000D02*
G01*
X37449000Y-111486000D01*
X37449000Y-110484000D01*
X39551000Y-110484000D01*
X39551000Y-111486000D01*
X39551000Y-111486000D01*
G37*
G36*
X22551000Y-111486000D02*
G01*
X20449000Y-111486000D01*
X20449000Y-110484000D01*
X22551000Y-110484000D01*
X22551000Y-111486000D01*
X22551000Y-111486000D01*
G37*
G36*
X47101000Y-110776000D02*
G01*
X45499000Y-110776000D01*
X45499000Y-110074000D01*
X47101000Y-110074000D01*
X47101000Y-110776000D01*
X47101000Y-110776000D01*
G37*
G36*
X52501000Y-110776000D02*
G01*
X50899000Y-110776000D01*
X50899000Y-110074000D01*
X52501000Y-110074000D01*
X52501000Y-110776000D01*
X52501000Y-110776000D01*
G37*
G36*
X44289499Y-109478445D02*
G01*
X44326995Y-109489820D01*
X44361554Y-109508292D01*
X44391847Y-109533153D01*
X44416708Y-109563446D01*
X44435180Y-109598005D01*
X44446555Y-109635501D01*
X44451000Y-109680638D01*
X44451000Y-110319362D01*
X44446555Y-110364499D01*
X44435180Y-110401995D01*
X44416708Y-110436554D01*
X44391847Y-110466847D01*
X44361554Y-110491708D01*
X44326995Y-110510180D01*
X44289499Y-110521555D01*
X44244362Y-110526000D01*
X43505638Y-110526000D01*
X43460501Y-110521555D01*
X43423005Y-110510180D01*
X43388446Y-110491708D01*
X43358153Y-110466847D01*
X43333292Y-110436554D01*
X43314820Y-110401995D01*
X43303445Y-110364499D01*
X43299000Y-110319362D01*
X43299000Y-109680638D01*
X43303445Y-109635501D01*
X43314820Y-109598005D01*
X43333292Y-109563446D01*
X43358153Y-109533153D01*
X43388446Y-109508292D01*
X43423005Y-109489820D01*
X43460501Y-109478445D01*
X43505638Y-109474000D01*
X44244362Y-109474000D01*
X44289499Y-109478445D01*
X44289499Y-109478445D01*
G37*
G36*
X42539499Y-109478445D02*
G01*
X42576995Y-109489820D01*
X42611554Y-109508292D01*
X42641847Y-109533153D01*
X42666708Y-109563446D01*
X42685180Y-109598005D01*
X42696555Y-109635501D01*
X42701000Y-109680638D01*
X42701000Y-110319362D01*
X42696555Y-110364499D01*
X42685180Y-110401995D01*
X42666708Y-110436554D01*
X42641847Y-110466847D01*
X42611554Y-110491708D01*
X42576995Y-110510180D01*
X42539499Y-110521555D01*
X42494362Y-110526000D01*
X41755638Y-110526000D01*
X41710501Y-110521555D01*
X41673005Y-110510180D01*
X41638446Y-110491708D01*
X41608153Y-110466847D01*
X41583292Y-110436554D01*
X41564820Y-110401995D01*
X41553445Y-110364499D01*
X41549000Y-110319362D01*
X41549000Y-109680638D01*
X41553445Y-109635501D01*
X41564820Y-109598005D01*
X41583292Y-109563446D01*
X41608153Y-109533153D01*
X41638446Y-109508292D01*
X41673005Y-109489820D01*
X41710501Y-109478445D01*
X41755638Y-109474000D01*
X42494362Y-109474000D01*
X42539499Y-109478445D01*
X42539499Y-109478445D01*
G37*
G36*
X22551000Y-110216000D02*
G01*
X20449000Y-110216000D01*
X20449000Y-109214000D01*
X22551000Y-109214000D01*
X22551000Y-110216000D01*
X22551000Y-110216000D01*
G37*
G36*
X39551000Y-110216000D02*
G01*
X37449000Y-110216000D01*
X37449000Y-109214000D01*
X39551000Y-109214000D01*
X39551000Y-110216000D01*
X39551000Y-110216000D01*
G37*
G36*
X52501000Y-109506000D02*
G01*
X50899000Y-109506000D01*
X50899000Y-108804000D01*
X52501000Y-108804000D01*
X52501000Y-109506000D01*
X52501000Y-109506000D01*
G37*
G36*
X47101000Y-109506000D02*
G01*
X45499000Y-109506000D01*
X45499000Y-108804000D01*
X47101000Y-108804000D01*
X47101000Y-109506000D01*
X47101000Y-109506000D01*
G37*
G36*
X54114499Y-108303445D02*
G01*
X54151995Y-108314820D01*
X54186554Y-108333292D01*
X54216847Y-108358153D01*
X54241708Y-108388446D01*
X54260180Y-108423005D01*
X54271555Y-108460501D01*
X54276000Y-108505638D01*
X54276000Y-109244362D01*
X54271555Y-109289499D01*
X54260180Y-109326995D01*
X54241708Y-109361554D01*
X54216847Y-109391847D01*
X54186554Y-109416708D01*
X54151995Y-109435180D01*
X54114499Y-109446555D01*
X54069362Y-109451000D01*
X53430638Y-109451000D01*
X53385501Y-109446555D01*
X53348005Y-109435180D01*
X53313446Y-109416708D01*
X53283153Y-109391847D01*
X53258292Y-109361554D01*
X53239820Y-109326995D01*
X53228445Y-109289499D01*
X53224000Y-109244362D01*
X53224000Y-108505638D01*
X53228445Y-108460501D01*
X53239820Y-108423005D01*
X53258292Y-108388446D01*
X53283153Y-108358153D01*
X53313446Y-108333292D01*
X53348005Y-108314820D01*
X53385501Y-108303445D01*
X53430638Y-108299000D01*
X54069362Y-108299000D01*
X54114499Y-108303445D01*
X54114499Y-108303445D01*
G37*
G36*
X22551000Y-108946000D02*
G01*
X20449000Y-108946000D01*
X20449000Y-107944000D01*
X22551000Y-107944000D01*
X22551000Y-108946000D01*
X22551000Y-108946000D01*
G37*
G36*
X39551000Y-108946000D02*
G01*
X37449000Y-108946000D01*
X37449000Y-107944000D01*
X39551000Y-107944000D01*
X39551000Y-108946000D01*
X39551000Y-108946000D01*
G37*
G36*
X44289499Y-107478445D02*
G01*
X44326995Y-107489820D01*
X44361554Y-107508292D01*
X44391847Y-107533153D01*
X44416708Y-107563446D01*
X44435180Y-107598005D01*
X44446555Y-107635501D01*
X44451000Y-107680638D01*
X44451000Y-108319362D01*
X44446555Y-108364499D01*
X44435180Y-108401995D01*
X44416708Y-108436554D01*
X44391847Y-108466847D01*
X44361554Y-108491708D01*
X44326995Y-108510180D01*
X44289499Y-108521555D01*
X44244362Y-108526000D01*
X43505638Y-108526000D01*
X43460501Y-108521555D01*
X43423005Y-108510180D01*
X43388446Y-108491708D01*
X43358153Y-108466847D01*
X43333292Y-108436554D01*
X43314820Y-108401995D01*
X43303445Y-108364499D01*
X43299000Y-108319362D01*
X43299000Y-107680638D01*
X43303445Y-107635501D01*
X43314820Y-107598005D01*
X43333292Y-107563446D01*
X43358153Y-107533153D01*
X43388446Y-107508292D01*
X43423005Y-107489820D01*
X43460501Y-107478445D01*
X43505638Y-107474000D01*
X44244362Y-107474000D01*
X44289499Y-107478445D01*
X44289499Y-107478445D01*
G37*
G36*
X42539499Y-107478445D02*
G01*
X42576995Y-107489820D01*
X42611554Y-107508292D01*
X42641847Y-107533153D01*
X42666708Y-107563446D01*
X42685180Y-107598005D01*
X42696555Y-107635501D01*
X42701000Y-107680638D01*
X42701000Y-108319362D01*
X42696555Y-108364499D01*
X42685180Y-108401995D01*
X42666708Y-108436554D01*
X42641847Y-108466847D01*
X42611554Y-108491708D01*
X42576995Y-108510180D01*
X42539499Y-108521555D01*
X42494362Y-108526000D01*
X41755638Y-108526000D01*
X41710501Y-108521555D01*
X41673005Y-108510180D01*
X41638446Y-108491708D01*
X41608153Y-108466847D01*
X41583292Y-108436554D01*
X41564820Y-108401995D01*
X41553445Y-108364499D01*
X41549000Y-108319362D01*
X41549000Y-107680638D01*
X41553445Y-107635501D01*
X41564820Y-107598005D01*
X41583292Y-107563446D01*
X41608153Y-107533153D01*
X41638446Y-107508292D01*
X41673005Y-107489820D01*
X41710501Y-107478445D01*
X41755638Y-107474000D01*
X42494362Y-107474000D01*
X42539499Y-107478445D01*
X42539499Y-107478445D01*
G37*
G36*
X52501000Y-108236000D02*
G01*
X50899000Y-108236000D01*
X50899000Y-107534000D01*
X52501000Y-107534000D01*
X52501000Y-108236000D01*
X52501000Y-108236000D01*
G37*
G36*
X47101000Y-108236000D02*
G01*
X45499000Y-108236000D01*
X45499000Y-107534000D01*
X47101000Y-107534000D01*
X47101000Y-108236000D01*
X47101000Y-108236000D01*
G37*
G36*
X54114499Y-106553445D02*
G01*
X54151995Y-106564820D01*
X54186554Y-106583292D01*
X54216847Y-106608153D01*
X54241708Y-106638446D01*
X54260180Y-106673005D01*
X54271555Y-106710501D01*
X54276000Y-106755638D01*
X54276000Y-107494362D01*
X54271555Y-107539499D01*
X54260180Y-107576995D01*
X54241708Y-107611554D01*
X54216847Y-107641847D01*
X54186554Y-107666708D01*
X54151995Y-107685180D01*
X54114499Y-107696555D01*
X54069362Y-107701000D01*
X53430638Y-107701000D01*
X53385501Y-107696555D01*
X53348005Y-107685180D01*
X53313446Y-107666708D01*
X53283153Y-107641847D01*
X53258292Y-107611554D01*
X53239820Y-107576995D01*
X53228445Y-107539499D01*
X53224000Y-107494362D01*
X53224000Y-106755638D01*
X53228445Y-106710501D01*
X53239820Y-106673005D01*
X53258292Y-106638446D01*
X53283153Y-106608153D01*
X53313446Y-106583292D01*
X53348005Y-106564820D01*
X53385501Y-106553445D01*
X53430638Y-106549000D01*
X54069362Y-106549000D01*
X54114499Y-106553445D01*
X54114499Y-106553445D01*
G37*
G36*
X39551000Y-107676000D02*
G01*
X37449000Y-107676000D01*
X37449000Y-106674000D01*
X39551000Y-106674000D01*
X39551000Y-107676000D01*
X39551000Y-107676000D01*
G37*
G36*
X22551000Y-107676000D02*
G01*
X20449000Y-107676000D01*
X20449000Y-106674000D01*
X22551000Y-106674000D01*
X22551000Y-107676000D01*
X22551000Y-107676000D01*
G37*
G36*
X33551000Y-107306000D02*
G01*
X28449000Y-107306000D01*
X28449000Y-102204000D01*
X33551000Y-102204000D01*
X33551000Y-107306000D01*
X33551000Y-107306000D01*
G37*
G36*
X47101000Y-106966000D02*
G01*
X45499000Y-106966000D01*
X45499000Y-106264000D01*
X47101000Y-106264000D01*
X47101000Y-106966000D01*
X47101000Y-106966000D01*
G37*
G36*
X52501000Y-106966000D02*
G01*
X50899000Y-106966000D01*
X50899000Y-106264000D01*
X52501000Y-106264000D01*
X52501000Y-106966000D01*
X52501000Y-106966000D01*
G37*
G36*
X57051000Y-106766000D02*
G01*
X55359000Y-106766000D01*
X55359000Y-105314000D01*
X57051000Y-105314000D01*
X57051000Y-106766000D01*
X57051000Y-106766000D01*
G37*
G36*
X82641000Y-106766000D02*
G01*
X80949000Y-106766000D01*
X80949000Y-105314000D01*
X82641000Y-105314000D01*
X82641000Y-106766000D01*
X82641000Y-106766000D01*
G37*
G36*
X22551000Y-106406000D02*
G01*
X20449000Y-106406000D01*
X20449000Y-105404000D01*
X22551000Y-105404000D01*
X22551000Y-106406000D01*
X22551000Y-106406000D01*
G37*
G36*
X39551000Y-106406000D02*
G01*
X37449000Y-106406000D01*
X37449000Y-105404000D01*
X39551000Y-105404000D01*
X39551000Y-106406000D01*
X39551000Y-106406000D01*
G37*
G36*
X44681000Y-105826000D02*
G01*
X43519000Y-105826000D01*
X43519000Y-103174000D01*
X44681000Y-103174000D01*
X44681000Y-105826000D01*
X44681000Y-105826000D01*
G37*
G36*
X42481000Y-105826000D02*
G01*
X41319000Y-105826000D01*
X41319000Y-105074000D01*
X42481000Y-105074000D01*
X42481000Y-105826000D01*
X42481000Y-105826000D01*
G37*
G36*
X47101000Y-105696000D02*
G01*
X45499000Y-105696000D01*
X45499000Y-104994000D01*
X47101000Y-104994000D01*
X47101000Y-105696000D01*
X47101000Y-105696000D01*
G37*
G36*
X52501000Y-105696000D02*
G01*
X50899000Y-105696000D01*
X50899000Y-104994000D01*
X52501000Y-104994000D01*
X52501000Y-105696000D01*
X52501000Y-105696000D01*
G37*
G36*
X39551000Y-105136000D02*
G01*
X37449000Y-105136000D01*
X37449000Y-104134000D01*
X39551000Y-104134000D01*
X39551000Y-105136000D01*
X39551000Y-105136000D01*
G37*
G36*
X22551000Y-105136000D02*
G01*
X20449000Y-105136000D01*
X20449000Y-104134000D01*
X22551000Y-104134000D01*
X22551000Y-105136000D01*
X22551000Y-105136000D01*
G37*
G36*
X52501000Y-104426000D02*
G01*
X50899000Y-104426000D01*
X50899000Y-103724000D01*
X52501000Y-103724000D01*
X52501000Y-104426000D01*
X52501000Y-104426000D01*
G37*
G36*
X47101000Y-104426000D02*
G01*
X45499000Y-104426000D01*
X45499000Y-103724000D01*
X47101000Y-103724000D01*
X47101000Y-104426000D01*
X47101000Y-104426000D01*
G37*
G36*
X82641000Y-104226000D02*
G01*
X80949000Y-104226000D01*
X80949000Y-102774000D01*
X82641000Y-102774000D01*
X82641000Y-104226000D01*
X82641000Y-104226000D01*
G37*
G36*
X57051000Y-104226000D02*
G01*
X55359000Y-104226000D01*
X55359000Y-102774000D01*
X57051000Y-102774000D01*
X57051000Y-104226000D01*
X57051000Y-104226000D01*
G37*
G36*
X42481000Y-103926000D02*
G01*
X41319000Y-103926000D01*
X41319000Y-103174000D01*
X42481000Y-103174000D01*
X42481000Y-103926000D01*
X42481000Y-103926000D01*
G37*
G36*
X22551000Y-103866000D02*
G01*
X20449000Y-103866000D01*
X20449000Y-102864000D01*
X22551000Y-102864000D01*
X22551000Y-103866000D01*
X22551000Y-103866000D01*
G37*
G36*
X39551000Y-103866000D02*
G01*
X37449000Y-103866000D01*
X37449000Y-102864000D01*
X39551000Y-102864000D01*
X39551000Y-103866000D01*
X39551000Y-103866000D01*
G37*
G36*
X52501000Y-103156000D02*
G01*
X50899000Y-103156000D01*
X50899000Y-102454000D01*
X52501000Y-102454000D01*
X52501000Y-103156000D01*
X52501000Y-103156000D01*
G37*
G36*
X47101000Y-103156000D02*
G01*
X45499000Y-103156000D01*
X45499000Y-102454000D01*
X47101000Y-102454000D01*
X47101000Y-103156000D01*
X47101000Y-103156000D01*
G37*
G36*
X22551000Y-102596000D02*
G01*
X20449000Y-102596000D01*
X20449000Y-101594000D01*
X22551000Y-101594000D01*
X22551000Y-102596000D01*
X22551000Y-102596000D01*
G37*
G36*
X39551000Y-102596000D02*
G01*
X37449000Y-102596000D01*
X37449000Y-101594000D01*
X39551000Y-101594000D01*
X39551000Y-102596000D01*
X39551000Y-102596000D01*
G37*
G36*
X44289499Y-100978445D02*
G01*
X44326995Y-100989820D01*
X44361554Y-101008292D01*
X44391847Y-101033153D01*
X44416708Y-101063446D01*
X44435180Y-101098005D01*
X44446555Y-101135501D01*
X44451000Y-101180638D01*
X44451000Y-101819362D01*
X44446555Y-101864499D01*
X44435180Y-101901995D01*
X44416708Y-101936554D01*
X44391847Y-101966847D01*
X44361554Y-101991708D01*
X44326995Y-102010180D01*
X44289499Y-102021555D01*
X44244362Y-102026000D01*
X43505638Y-102026000D01*
X43460501Y-102021555D01*
X43423005Y-102010180D01*
X43388446Y-101991708D01*
X43358153Y-101966847D01*
X43333292Y-101936554D01*
X43314820Y-101901995D01*
X43303445Y-101864499D01*
X43299000Y-101819362D01*
X43299000Y-101180638D01*
X43303445Y-101135501D01*
X43314820Y-101098005D01*
X43333292Y-101063446D01*
X43358153Y-101033153D01*
X43388446Y-101008292D01*
X43423005Y-100989820D01*
X43460501Y-100978445D01*
X43505638Y-100974000D01*
X44244362Y-100974000D01*
X44289499Y-100978445D01*
X44289499Y-100978445D01*
G37*
G36*
X42539499Y-100978445D02*
G01*
X42576995Y-100989820D01*
X42611554Y-101008292D01*
X42641847Y-101033153D01*
X42666708Y-101063446D01*
X42685180Y-101098005D01*
X42696555Y-101135501D01*
X42701000Y-101180638D01*
X42701000Y-101819362D01*
X42696555Y-101864499D01*
X42685180Y-101901995D01*
X42666708Y-101936554D01*
X42641847Y-101966847D01*
X42611554Y-101991708D01*
X42576995Y-102010180D01*
X42539499Y-102021555D01*
X42494362Y-102026000D01*
X41755638Y-102026000D01*
X41710501Y-102021555D01*
X41673005Y-102010180D01*
X41638446Y-101991708D01*
X41608153Y-101966847D01*
X41583292Y-101936554D01*
X41564820Y-101901995D01*
X41553445Y-101864499D01*
X41549000Y-101819362D01*
X41549000Y-101180638D01*
X41553445Y-101135501D01*
X41564820Y-101098005D01*
X41583292Y-101063446D01*
X41608153Y-101033153D01*
X41638446Y-101008292D01*
X41673005Y-100989820D01*
X41710501Y-100978445D01*
X41755638Y-100974000D01*
X42494362Y-100974000D01*
X42539499Y-100978445D01*
X42539499Y-100978445D01*
G37*
G36*
X82641000Y-101686000D02*
G01*
X80949000Y-101686000D01*
X80949000Y-100234000D01*
X82641000Y-100234000D01*
X82641000Y-101686000D01*
X82641000Y-101686000D01*
G37*
G36*
X57051000Y-101686000D02*
G01*
X55359000Y-101686000D01*
X55359000Y-100234000D01*
X57051000Y-100234000D01*
X57051000Y-101686000D01*
X57051000Y-101686000D01*
G37*
G36*
X22551000Y-101326000D02*
G01*
X20449000Y-101326000D01*
X20449000Y-100324000D01*
X22551000Y-100324000D01*
X22551000Y-101326000D01*
X22551000Y-101326000D01*
G37*
G36*
X39551000Y-101326000D02*
G01*
X37449000Y-101326000D01*
X37449000Y-100324000D01*
X39551000Y-100324000D01*
X39551000Y-101326000D01*
X39551000Y-101326000D01*
G37*
G36*
X39551000Y-100056000D02*
G01*
X37449000Y-100056000D01*
X37449000Y-99054000D01*
X39551000Y-99054000D01*
X39551000Y-100056000D01*
X39551000Y-100056000D01*
G37*
G36*
X22551000Y-100056000D02*
G01*
X20449000Y-100056000D01*
X20449000Y-99054000D01*
X22551000Y-99054000D01*
X22551000Y-100056000D01*
X22551000Y-100056000D01*
G37*
G36*
X42028048Y-97278122D02*
G01*
X42062387Y-97288539D01*
X42094036Y-97305456D01*
X42121778Y-97328222D01*
X42144544Y-97355964D01*
X42161461Y-97387613D01*
X42171878Y-97421952D01*
X42176000Y-97463807D01*
X42176000Y-99536193D01*
X42171878Y-99578048D01*
X42161461Y-99612387D01*
X42144544Y-99644036D01*
X42121778Y-99671778D01*
X42094036Y-99694544D01*
X42062387Y-99711461D01*
X42028048Y-99721878D01*
X41986193Y-99726000D01*
X40763807Y-99726000D01*
X40721952Y-99721878D01*
X40687613Y-99711461D01*
X40655964Y-99694544D01*
X40628222Y-99671778D01*
X40605456Y-99644036D01*
X40588539Y-99612387D01*
X40578122Y-99578048D01*
X40574000Y-99536193D01*
X40574000Y-97463807D01*
X40578122Y-97421952D01*
X40588539Y-97387613D01*
X40605456Y-97355964D01*
X40628222Y-97328222D01*
X40655964Y-97305456D01*
X40687613Y-97288539D01*
X40721952Y-97278122D01*
X40763807Y-97274000D01*
X41986193Y-97274000D01*
X42028048Y-97278122D01*
X42028048Y-97278122D01*
G37*
G36*
X45278048Y-97278122D02*
G01*
X45312387Y-97288539D01*
X45344036Y-97305456D01*
X45371778Y-97328222D01*
X45394544Y-97355964D01*
X45411461Y-97387613D01*
X45421878Y-97421952D01*
X45426000Y-97463807D01*
X45426000Y-99536193D01*
X45421878Y-99578048D01*
X45411461Y-99612387D01*
X45394544Y-99644036D01*
X45371778Y-99671778D01*
X45344036Y-99694544D01*
X45312387Y-99711461D01*
X45278048Y-99721878D01*
X45236193Y-99726000D01*
X44013807Y-99726000D01*
X43971952Y-99721878D01*
X43937613Y-99711461D01*
X43905964Y-99694544D01*
X43878222Y-99671778D01*
X43855456Y-99644036D01*
X43838539Y-99612387D01*
X43828122Y-99578048D01*
X43824000Y-99536193D01*
X43824000Y-97463807D01*
X43828122Y-97421952D01*
X43838539Y-97387613D01*
X43855456Y-97355964D01*
X43878222Y-97328222D01*
X43905964Y-97305456D01*
X43937613Y-97288539D01*
X43971952Y-97278122D01*
X44013807Y-97274000D01*
X45236193Y-97274000D01*
X45278048Y-97278122D01*
X45278048Y-97278122D01*
G37*
G36*
X54364499Y-98303445D02*
G01*
X54401995Y-98314820D01*
X54436554Y-98333292D01*
X54466847Y-98358153D01*
X54491708Y-98388446D01*
X54510180Y-98423005D01*
X54521555Y-98460501D01*
X54526000Y-98505638D01*
X54526000Y-99244362D01*
X54521555Y-99289499D01*
X54510180Y-99326995D01*
X54491708Y-99361554D01*
X54466847Y-99391847D01*
X54436554Y-99416708D01*
X54401995Y-99435180D01*
X54364499Y-99446555D01*
X54319362Y-99451000D01*
X53680638Y-99451000D01*
X53635501Y-99446555D01*
X53598005Y-99435180D01*
X53563446Y-99416708D01*
X53533153Y-99391847D01*
X53508292Y-99361554D01*
X53489820Y-99326995D01*
X53478445Y-99289499D01*
X53474000Y-99244362D01*
X53474000Y-98505638D01*
X53478445Y-98460501D01*
X53489820Y-98423005D01*
X53508292Y-98388446D01*
X53533153Y-98358153D01*
X53563446Y-98333292D01*
X53598005Y-98314820D01*
X53635501Y-98303445D01*
X53680638Y-98299000D01*
X54319362Y-98299000D01*
X54364499Y-98303445D01*
X54364499Y-98303445D01*
G37*
G36*
X49604795Y-97070156D02*
G01*
X49711150Y-97091311D01*
X49811334Y-97132809D01*
X49911520Y-97174307D01*
X50091844Y-97294795D01*
X50245205Y-97448156D01*
X50365693Y-97628480D01*
X50448689Y-97828851D01*
X50491000Y-98041560D01*
X50491000Y-98258440D01*
X50471166Y-98358153D01*
X50448689Y-98471150D01*
X50432310Y-98510691D01*
X50365693Y-98671520D01*
X50245205Y-98851844D01*
X50091844Y-99005205D01*
X49911520Y-99125693D01*
X49811334Y-99167191D01*
X49711150Y-99208689D01*
X49604795Y-99229844D01*
X49498440Y-99251000D01*
X49281560Y-99251000D01*
X49175205Y-99229844D01*
X49068850Y-99208689D01*
X48968666Y-99167191D01*
X48868480Y-99125693D01*
X48688156Y-99005205D01*
X48534795Y-98851844D01*
X48414307Y-98671520D01*
X48347690Y-98510691D01*
X48331311Y-98471150D01*
X48308834Y-98358153D01*
X48289000Y-98258440D01*
X48289000Y-98041560D01*
X48331311Y-97828851D01*
X48414307Y-97628480D01*
X48534795Y-97448156D01*
X48688156Y-97294795D01*
X48868480Y-97174307D01*
X49068850Y-97091311D01*
X49175205Y-97070156D01*
X49281560Y-97049000D01*
X49498440Y-97049000D01*
X49604795Y-97070156D01*
X49604795Y-97070156D01*
G37*
G36*
X39551000Y-98786000D02*
G01*
X37449000Y-98786000D01*
X37449000Y-97784000D01*
X39551000Y-97784000D01*
X39551000Y-98786000D01*
X39551000Y-98786000D01*
G37*
G36*
X22551000Y-98786000D02*
G01*
X20449000Y-98786000D01*
X20449000Y-97784000D01*
X22551000Y-97784000D01*
X22551000Y-98786000D01*
X22551000Y-98786000D01*
G37*
G36*
X52364499Y-97303445D02*
G01*
X52401995Y-97314820D01*
X52436554Y-97333292D01*
X52466847Y-97358153D01*
X52491708Y-97388446D01*
X52510180Y-97423005D01*
X52521555Y-97460501D01*
X52526000Y-97505638D01*
X52526000Y-98244362D01*
X52521555Y-98289499D01*
X52510180Y-98326995D01*
X52491708Y-98361554D01*
X52466847Y-98391847D01*
X52436554Y-98416708D01*
X52401995Y-98435180D01*
X52364499Y-98446555D01*
X52319362Y-98451000D01*
X51680638Y-98451000D01*
X51635501Y-98446555D01*
X51598005Y-98435180D01*
X51563446Y-98416708D01*
X51533153Y-98391847D01*
X51508292Y-98361554D01*
X51489820Y-98326995D01*
X51478445Y-98289499D01*
X51474000Y-98244362D01*
X51474000Y-97505638D01*
X51478445Y-97460501D01*
X51489820Y-97423005D01*
X51508292Y-97388446D01*
X51533153Y-97358153D01*
X51563446Y-97333292D01*
X51598005Y-97314820D01*
X51635501Y-97303445D01*
X51680638Y-97299000D01*
X52319362Y-97299000D01*
X52364499Y-97303445D01*
X52364499Y-97303445D01*
G37*
G36*
X54364499Y-96553445D02*
G01*
X54401995Y-96564820D01*
X54436554Y-96583292D01*
X54466847Y-96608153D01*
X54491708Y-96638446D01*
X54510180Y-96673005D01*
X54521555Y-96710501D01*
X54526000Y-96755638D01*
X54526000Y-97494362D01*
X54521555Y-97539499D01*
X54510180Y-97576995D01*
X54491708Y-97611554D01*
X54466847Y-97641847D01*
X54436554Y-97666708D01*
X54401995Y-97685180D01*
X54364499Y-97696555D01*
X54319362Y-97701000D01*
X53680638Y-97701000D01*
X53635501Y-97696555D01*
X53598005Y-97685180D01*
X53563446Y-97666708D01*
X53533153Y-97641847D01*
X53508292Y-97611554D01*
X53489820Y-97576995D01*
X53478445Y-97539499D01*
X53474000Y-97494362D01*
X53474000Y-96755638D01*
X53478445Y-96710501D01*
X53489820Y-96673005D01*
X53508292Y-96638446D01*
X53533153Y-96608153D01*
X53563446Y-96583292D01*
X53598005Y-96564820D01*
X53635501Y-96553445D01*
X53680638Y-96549000D01*
X54319362Y-96549000D01*
X54364499Y-96553445D01*
X54364499Y-96553445D01*
G37*
G36*
X39551000Y-97516000D02*
G01*
X37449000Y-97516000D01*
X37449000Y-96514000D01*
X39551000Y-96514000D01*
X39551000Y-97516000D01*
X39551000Y-97516000D01*
G37*
G36*
X22551000Y-97516000D02*
G01*
X20449000Y-97516000D01*
X20449000Y-96514000D01*
X22551000Y-96514000D01*
X22551000Y-97516000D01*
X22551000Y-97516000D01*
G37*
G36*
X52364499Y-95553445D02*
G01*
X52401995Y-95564820D01*
X52436554Y-95583292D01*
X52466847Y-95608153D01*
X52491708Y-95638446D01*
X52510180Y-95673005D01*
X52521555Y-95710501D01*
X52526000Y-95755638D01*
X52526000Y-96494362D01*
X52521555Y-96539499D01*
X52510180Y-96576995D01*
X52491708Y-96611554D01*
X52466847Y-96641847D01*
X52436554Y-96666708D01*
X52401995Y-96685180D01*
X52364499Y-96696555D01*
X52319362Y-96701000D01*
X51680638Y-96701000D01*
X51635501Y-96696555D01*
X51598005Y-96685180D01*
X51563446Y-96666708D01*
X51533153Y-96641847D01*
X51508292Y-96611554D01*
X51489820Y-96576995D01*
X51478445Y-96539499D01*
X51474000Y-96494362D01*
X51474000Y-95755638D01*
X51478445Y-95710501D01*
X51489820Y-95673005D01*
X51508292Y-95638446D01*
X51533153Y-95608153D01*
X51563446Y-95583292D01*
X51598005Y-95564820D01*
X51635501Y-95553445D01*
X51680638Y-95549000D01*
X52319362Y-95549000D01*
X52364499Y-95553445D01*
X52364499Y-95553445D01*
G37*
G36*
X39551000Y-96246000D02*
G01*
X37449000Y-96246000D01*
X37449000Y-95244000D01*
X39551000Y-95244000D01*
X39551000Y-96246000D01*
X39551000Y-96246000D01*
G37*
G36*
X22551000Y-96246000D02*
G01*
X20449000Y-96246000D01*
X20449000Y-95244000D01*
X22551000Y-95244000D01*
X22551000Y-96246000D01*
X22551000Y-96246000D01*
G37*
G36*
X39560000Y-94976000D02*
G01*
X37458000Y-94976000D01*
X37458000Y-93974000D01*
X39560000Y-93974000D01*
X39560000Y-94976000D01*
X39560000Y-94976000D01*
G37*
G36*
X22542000Y-94976000D02*
G01*
X20440000Y-94976000D01*
X20440000Y-93974000D01*
X22542000Y-93974000D01*
X22542000Y-94976000D01*
X22542000Y-94976000D01*
G37*
G36*
X42665880Y-90369776D02*
G01*
X43046593Y-90445504D01*
X43456249Y-90615189D01*
X43824929Y-90861534D01*
X44138466Y-91175071D01*
X44384811Y-91543751D01*
X44554496Y-91953407D01*
X44641000Y-92388296D01*
X44641000Y-92831704D01*
X44554496Y-93266593D01*
X44384811Y-93676249D01*
X44138466Y-94044929D01*
X43824929Y-94358466D01*
X43456249Y-94604811D01*
X43046593Y-94774496D01*
X42665880Y-94850224D01*
X42611705Y-94861000D01*
X42168295Y-94861000D01*
X42114120Y-94850224D01*
X41733407Y-94774496D01*
X41323751Y-94604811D01*
X40955071Y-94358466D01*
X40641534Y-94044929D01*
X40395189Y-93676249D01*
X40225504Y-93266593D01*
X40139000Y-92831704D01*
X40139000Y-92388296D01*
X40225504Y-91953407D01*
X40395189Y-91543751D01*
X40641534Y-91175071D01*
X40955071Y-90861534D01*
X41323751Y-90615189D01*
X41733407Y-90445504D01*
X42114120Y-90369776D01*
X42168295Y-90359000D01*
X42611705Y-90359000D01*
X42665880Y-90369776D01*
X42665880Y-90369776D01*
G37*
G36*
X63885880Y-90369776D02*
G01*
X64266593Y-90445504D01*
X64676249Y-90615189D01*
X65044929Y-90861534D01*
X65358466Y-91175071D01*
X65604811Y-91543751D01*
X65774496Y-91953407D01*
X65861000Y-92388296D01*
X65861000Y-92831704D01*
X65774496Y-93266593D01*
X65604811Y-93676249D01*
X65358466Y-94044929D01*
X65044929Y-94358466D01*
X64676249Y-94604811D01*
X64266593Y-94774496D01*
X63885880Y-94850224D01*
X63831705Y-94861000D01*
X63388295Y-94861000D01*
X63334120Y-94850224D01*
X62953407Y-94774496D01*
X62543751Y-94604811D01*
X62175071Y-94358466D01*
X61861534Y-94044929D01*
X61615189Y-93676249D01*
X61445504Y-93266593D01*
X61359000Y-92831704D01*
X61359000Y-92388296D01*
X61445504Y-91953407D01*
X61615189Y-91543751D01*
X61861534Y-91175071D01*
X62175071Y-90861534D01*
X62543751Y-90615189D01*
X62953407Y-90445504D01*
X63334120Y-90369776D01*
X63388295Y-90359000D01*
X63831705Y-90359000D01*
X63885880Y-90369776D01*
X63885880Y-90369776D01*
G37*
G36*
X39560000Y-93706000D02*
G01*
X37458000Y-93706000D01*
X37458000Y-92704000D01*
X39560000Y-92704000D01*
X39560000Y-93706000D01*
X39560000Y-93706000D01*
G37*
G36*
X22542000Y-93706000D02*
G01*
X20440000Y-93706000D01*
X20440000Y-92704000D01*
X22542000Y-92704000D01*
X22542000Y-93706000D01*
X22542000Y-93706000D01*
G37*
G36*
X77614499Y-91303445D02*
G01*
X77651995Y-91314820D01*
X77686554Y-91333292D01*
X77716847Y-91358153D01*
X77741708Y-91388446D01*
X77760180Y-91423005D01*
X77771555Y-91460501D01*
X77776000Y-91505638D01*
X77776000Y-92244362D01*
X77771555Y-92289499D01*
X77760180Y-92326995D01*
X77741708Y-92361554D01*
X77716847Y-92391847D01*
X77686554Y-92416708D01*
X77651995Y-92435180D01*
X77614499Y-92446555D01*
X77569362Y-92451000D01*
X76930638Y-92451000D01*
X76885501Y-92446555D01*
X76848005Y-92435180D01*
X76813446Y-92416708D01*
X76783153Y-92391847D01*
X76758292Y-92361554D01*
X76739820Y-92326995D01*
X76728445Y-92289499D01*
X76724000Y-92244362D01*
X76724000Y-91505638D01*
X76728445Y-91460501D01*
X76739820Y-91423005D01*
X76758292Y-91388446D01*
X76783153Y-91358153D01*
X76813446Y-91333292D01*
X76848005Y-91314820D01*
X76885501Y-91303445D01*
X76930638Y-91299000D01*
X77569362Y-91299000D01*
X77614499Y-91303445D01*
X77614499Y-91303445D01*
G37*
G36*
X79364499Y-91303445D02*
G01*
X79401995Y-91314820D01*
X79436554Y-91333292D01*
X79466847Y-91358153D01*
X79491708Y-91388446D01*
X79510180Y-91423005D01*
X79521555Y-91460501D01*
X79526000Y-91505638D01*
X79526000Y-92244362D01*
X79521555Y-92289499D01*
X79510180Y-92326995D01*
X79491708Y-92361554D01*
X79466847Y-92391847D01*
X79436554Y-92416708D01*
X79401995Y-92435180D01*
X79364499Y-92446555D01*
X79319362Y-92451000D01*
X78680638Y-92451000D01*
X78635501Y-92446555D01*
X78598005Y-92435180D01*
X78563446Y-92416708D01*
X78533153Y-92391847D01*
X78508292Y-92361554D01*
X78489820Y-92326995D01*
X78478445Y-92289499D01*
X78474000Y-92244362D01*
X78474000Y-91505638D01*
X78478445Y-91460501D01*
X78489820Y-91423005D01*
X78508292Y-91388446D01*
X78533153Y-91358153D01*
X78563446Y-91333292D01*
X78598005Y-91314820D01*
X78635501Y-91303445D01*
X78680638Y-91299000D01*
X79319362Y-91299000D01*
X79364499Y-91303445D01*
X79364499Y-91303445D01*
G37*
G36*
X81114499Y-91303445D02*
G01*
X81151995Y-91314820D01*
X81186554Y-91333292D01*
X81216847Y-91358153D01*
X81241708Y-91388446D01*
X81260180Y-91423005D01*
X81271555Y-91460501D01*
X81276000Y-91505638D01*
X81276000Y-92244362D01*
X81271555Y-92289499D01*
X81260180Y-92326995D01*
X81241708Y-92361554D01*
X81216847Y-92391847D01*
X81186554Y-92416708D01*
X81151995Y-92435180D01*
X81114499Y-92446555D01*
X81069362Y-92451000D01*
X80430638Y-92451000D01*
X80385501Y-92446555D01*
X80348005Y-92435180D01*
X80313446Y-92416708D01*
X80283153Y-92391847D01*
X80258292Y-92361554D01*
X80239820Y-92326995D01*
X80228445Y-92289499D01*
X80224000Y-92244362D01*
X80224000Y-91505638D01*
X80228445Y-91460501D01*
X80239820Y-91423005D01*
X80258292Y-91388446D01*
X80283153Y-91358153D01*
X80313446Y-91333292D01*
X80348005Y-91314820D01*
X80385501Y-91303445D01*
X80430638Y-91299000D01*
X81069362Y-91299000D01*
X81114499Y-91303445D01*
X81114499Y-91303445D01*
G37*
G36*
X39560000Y-92436000D02*
G01*
X37458000Y-92436000D01*
X37458000Y-91434000D01*
X39560000Y-91434000D01*
X39560000Y-92436000D01*
X39560000Y-92436000D01*
G37*
G36*
X22542000Y-92436000D02*
G01*
X20440000Y-92436000D01*
X20440000Y-91434000D01*
X22542000Y-91434000D01*
X22542000Y-92436000D01*
X22542000Y-92436000D01*
G37*
G36*
X75809499Y-91348445D02*
G01*
X75846995Y-91359820D01*
X75881554Y-91378292D01*
X75911847Y-91403153D01*
X75936708Y-91433446D01*
X75955180Y-91468005D01*
X75966555Y-91505501D01*
X75971000Y-91550638D01*
X75971000Y-92189362D01*
X75966555Y-92234499D01*
X75955180Y-92271995D01*
X75936708Y-92306554D01*
X75911847Y-92336847D01*
X75881554Y-92361708D01*
X75846995Y-92380180D01*
X75809499Y-92391555D01*
X75764362Y-92396000D01*
X75025638Y-92396000D01*
X74980501Y-92391555D01*
X74943005Y-92380180D01*
X74908446Y-92361708D01*
X74878153Y-92336847D01*
X74853292Y-92306554D01*
X74834820Y-92271995D01*
X74823445Y-92234499D01*
X74819000Y-92189362D01*
X74819000Y-91550638D01*
X74823445Y-91505501D01*
X74834820Y-91468005D01*
X74853292Y-91433446D01*
X74878153Y-91403153D01*
X74908446Y-91378292D01*
X74943005Y-91359820D01*
X74980501Y-91348445D01*
X75025638Y-91344000D01*
X75764362Y-91344000D01*
X75809499Y-91348445D01*
X75809499Y-91348445D01*
G37*
G36*
X74059499Y-91348445D02*
G01*
X74096995Y-91359820D01*
X74131554Y-91378292D01*
X74161847Y-91403153D01*
X74186708Y-91433446D01*
X74205180Y-91468005D01*
X74216555Y-91505501D01*
X74221000Y-91550638D01*
X74221000Y-92189362D01*
X74216555Y-92234499D01*
X74205180Y-92271995D01*
X74186708Y-92306554D01*
X74161847Y-92336847D01*
X74131554Y-92361708D01*
X74096995Y-92380180D01*
X74059499Y-92391555D01*
X74014362Y-92396000D01*
X73275638Y-92396000D01*
X73230501Y-92391555D01*
X73193005Y-92380180D01*
X73158446Y-92361708D01*
X73128153Y-92336847D01*
X73103292Y-92306554D01*
X73084820Y-92271995D01*
X73073445Y-92234499D01*
X73069000Y-92189362D01*
X73069000Y-91550638D01*
X73073445Y-91505501D01*
X73084820Y-91468005D01*
X73103292Y-91433446D01*
X73128153Y-91403153D01*
X73158446Y-91378292D01*
X73193005Y-91359820D01*
X73230501Y-91348445D01*
X73275638Y-91344000D01*
X74014362Y-91344000D01*
X74059499Y-91348445D01*
X74059499Y-91348445D01*
G37*
G36*
X84789499Y-91228445D02*
G01*
X84826995Y-91239820D01*
X84861554Y-91258292D01*
X84891847Y-91283153D01*
X84916708Y-91313446D01*
X84935180Y-91348005D01*
X84946555Y-91385501D01*
X84951000Y-91430638D01*
X84951000Y-92069362D01*
X84946555Y-92114499D01*
X84935180Y-92151995D01*
X84916708Y-92186554D01*
X84891847Y-92216847D01*
X84861554Y-92241708D01*
X84826995Y-92260180D01*
X84789499Y-92271555D01*
X84744362Y-92276000D01*
X84005638Y-92276000D01*
X83960501Y-92271555D01*
X83923005Y-92260180D01*
X83888446Y-92241708D01*
X83858153Y-92216847D01*
X83833292Y-92186554D01*
X83814820Y-92151995D01*
X83803445Y-92114499D01*
X83799000Y-92069362D01*
X83799000Y-91430638D01*
X83803445Y-91385501D01*
X83814820Y-91348005D01*
X83833292Y-91313446D01*
X83858153Y-91283153D01*
X83888446Y-91258292D01*
X83923005Y-91239820D01*
X83960501Y-91228445D01*
X84005638Y-91224000D01*
X84744362Y-91224000D01*
X84789499Y-91228445D01*
X84789499Y-91228445D01*
G37*
G36*
X83039499Y-91228445D02*
G01*
X83076995Y-91239820D01*
X83111554Y-91258292D01*
X83141847Y-91283153D01*
X83166708Y-91313446D01*
X83185180Y-91348005D01*
X83196555Y-91385501D01*
X83201000Y-91430638D01*
X83201000Y-92069362D01*
X83196555Y-92114499D01*
X83185180Y-92151995D01*
X83166708Y-92186554D01*
X83141847Y-92216847D01*
X83111554Y-92241708D01*
X83076995Y-92260180D01*
X83039499Y-92271555D01*
X82994362Y-92276000D01*
X82255638Y-92276000D01*
X82210501Y-92271555D01*
X82173005Y-92260180D01*
X82138446Y-92241708D01*
X82108153Y-92216847D01*
X82083292Y-92186554D01*
X82064820Y-92151995D01*
X82053445Y-92114499D01*
X82049000Y-92069362D01*
X82049000Y-91430638D01*
X82053445Y-91385501D01*
X82064820Y-91348005D01*
X82083292Y-91313446D01*
X82108153Y-91283153D01*
X82138446Y-91258292D01*
X82173005Y-91239820D01*
X82210501Y-91228445D01*
X82255638Y-91224000D01*
X82994362Y-91224000D01*
X83039499Y-91228445D01*
X83039499Y-91228445D01*
G37*
G36*
X22542000Y-91166000D02*
G01*
X20440000Y-91166000D01*
X20440000Y-90164000D01*
X22542000Y-90164000D01*
X22542000Y-91166000D01*
X22542000Y-91166000D01*
G37*
G36*
X39560000Y-91166000D02*
G01*
X37458000Y-91166000D01*
X37458000Y-90164000D01*
X39560000Y-90164000D01*
X39560000Y-91166000D01*
X39560000Y-91166000D01*
G37*
G36*
X68316794Y-88670155D02*
G01*
X68423150Y-88691311D01*
X68488362Y-88718323D01*
X68623520Y-88774307D01*
X68803844Y-88894795D01*
X68957205Y-89048156D01*
X69077693Y-89228480D01*
X69086128Y-89248844D01*
X69160689Y-89428850D01*
X69162050Y-89435691D01*
X69202381Y-89638446D01*
X69203000Y-89641561D01*
X69203000Y-89858439D01*
X69160689Y-90071150D01*
X69122229Y-90164000D01*
X69077693Y-90271520D01*
X68957205Y-90451844D01*
X68803844Y-90605205D01*
X68623520Y-90725693D01*
X68523334Y-90767191D01*
X68423150Y-90808689D01*
X68316795Y-90829844D01*
X68210440Y-90851000D01*
X67993560Y-90851000D01*
X67887205Y-90829844D01*
X67780850Y-90808689D01*
X67680666Y-90767191D01*
X67580480Y-90725693D01*
X67400156Y-90605205D01*
X67246795Y-90451844D01*
X67126307Y-90271520D01*
X67081771Y-90164000D01*
X67043311Y-90071150D01*
X67001000Y-89858439D01*
X67001000Y-89641561D01*
X67001620Y-89638446D01*
X67041950Y-89435691D01*
X67043311Y-89428850D01*
X67117872Y-89248844D01*
X67126307Y-89228480D01*
X67246795Y-89048156D01*
X67400156Y-88894795D01*
X67580480Y-88774307D01*
X67715638Y-88718323D01*
X67780850Y-88691311D01*
X67887206Y-88670155D01*
X67993560Y-88649000D01*
X68210440Y-88649000D01*
X68316794Y-88670155D01*
X68316794Y-88670155D01*
G37*
G36*
X77614499Y-89553445D02*
G01*
X77651995Y-89564820D01*
X77686554Y-89583292D01*
X77716847Y-89608153D01*
X77741708Y-89638446D01*
X77760180Y-89673005D01*
X77771555Y-89710501D01*
X77776000Y-89755638D01*
X77776000Y-90494362D01*
X77771555Y-90539499D01*
X77760180Y-90576995D01*
X77741708Y-90611554D01*
X77716847Y-90641847D01*
X77686554Y-90666708D01*
X77651995Y-90685180D01*
X77614499Y-90696555D01*
X77569362Y-90701000D01*
X76930638Y-90701000D01*
X76885501Y-90696555D01*
X76848005Y-90685180D01*
X76813446Y-90666708D01*
X76783153Y-90641847D01*
X76758292Y-90611554D01*
X76739820Y-90576995D01*
X76728445Y-90539499D01*
X76724000Y-90494362D01*
X76724000Y-89755638D01*
X76728445Y-89710501D01*
X76739820Y-89673005D01*
X76758292Y-89638446D01*
X76783153Y-89608153D01*
X76813446Y-89583292D01*
X76848005Y-89564820D01*
X76885501Y-89553445D01*
X76930638Y-89549000D01*
X77569362Y-89549000D01*
X77614499Y-89553445D01*
X77614499Y-89553445D01*
G37*
G36*
X81114499Y-89553445D02*
G01*
X81151995Y-89564820D01*
X81186554Y-89583292D01*
X81216847Y-89608153D01*
X81241708Y-89638446D01*
X81260180Y-89673005D01*
X81271555Y-89710501D01*
X81276000Y-89755638D01*
X81276000Y-90494362D01*
X81271555Y-90539499D01*
X81260180Y-90576995D01*
X81241708Y-90611554D01*
X81216847Y-90641847D01*
X81186554Y-90666708D01*
X81151995Y-90685180D01*
X81114499Y-90696555D01*
X81069362Y-90701000D01*
X80430638Y-90701000D01*
X80385501Y-90696555D01*
X80348005Y-90685180D01*
X80313446Y-90666708D01*
X80283153Y-90641847D01*
X80258292Y-90611554D01*
X80239820Y-90576995D01*
X80228445Y-90539499D01*
X80224000Y-90494362D01*
X80224000Y-89755638D01*
X80228445Y-89710501D01*
X80239820Y-89673005D01*
X80258292Y-89638446D01*
X80283153Y-89608153D01*
X80313446Y-89583292D01*
X80348005Y-89564820D01*
X80385501Y-89553445D01*
X80430638Y-89549000D01*
X81069362Y-89549000D01*
X81114499Y-89553445D01*
X81114499Y-89553445D01*
G37*
G36*
X79364499Y-89553445D02*
G01*
X79401995Y-89564820D01*
X79436554Y-89583292D01*
X79466847Y-89608153D01*
X79491708Y-89638446D01*
X79510180Y-89673005D01*
X79521555Y-89710501D01*
X79526000Y-89755638D01*
X79526000Y-90494362D01*
X79521555Y-90539499D01*
X79510180Y-90576995D01*
X79491708Y-90611554D01*
X79466847Y-90641847D01*
X79436554Y-90666708D01*
X79401995Y-90685180D01*
X79364499Y-90696555D01*
X79319362Y-90701000D01*
X78680638Y-90701000D01*
X78635501Y-90696555D01*
X78598005Y-90685180D01*
X78563446Y-90666708D01*
X78533153Y-90641847D01*
X78508292Y-90611554D01*
X78489820Y-90576995D01*
X78478445Y-90539499D01*
X78474000Y-90494362D01*
X78474000Y-89755638D01*
X78478445Y-89710501D01*
X78489820Y-89673005D01*
X78508292Y-89638446D01*
X78533153Y-89608153D01*
X78563446Y-89583292D01*
X78598005Y-89564820D01*
X78635501Y-89553445D01*
X78680638Y-89549000D01*
X79319362Y-89549000D01*
X79364499Y-89553445D01*
X79364499Y-89553445D01*
G37*
G36*
X83039499Y-89228445D02*
G01*
X83076995Y-89239820D01*
X83111554Y-89258292D01*
X83141847Y-89283153D01*
X83166708Y-89313446D01*
X83185180Y-89348005D01*
X83196555Y-89385501D01*
X83201000Y-89430638D01*
X83201000Y-90069362D01*
X83196555Y-90114499D01*
X83185180Y-90151995D01*
X83166708Y-90186554D01*
X83141847Y-90216847D01*
X83111554Y-90241708D01*
X83076995Y-90260180D01*
X83039499Y-90271555D01*
X82994362Y-90276000D01*
X82255638Y-90276000D01*
X82210501Y-90271555D01*
X82173005Y-90260180D01*
X82138446Y-90241708D01*
X82108153Y-90216847D01*
X82083292Y-90186554D01*
X82064820Y-90151995D01*
X82053445Y-90114499D01*
X82049000Y-90069362D01*
X82049000Y-89430638D01*
X82053445Y-89385501D01*
X82064820Y-89348005D01*
X82083292Y-89313446D01*
X82108153Y-89283153D01*
X82138446Y-89258292D01*
X82173005Y-89239820D01*
X82210501Y-89228445D01*
X82255638Y-89224000D01*
X82994362Y-89224000D01*
X83039499Y-89228445D01*
X83039499Y-89228445D01*
G37*
G36*
X84789499Y-89228445D02*
G01*
X84826995Y-89239820D01*
X84861554Y-89258292D01*
X84891847Y-89283153D01*
X84916708Y-89313446D01*
X84935180Y-89348005D01*
X84946555Y-89385501D01*
X84951000Y-89430638D01*
X84951000Y-90069362D01*
X84946555Y-90114499D01*
X84935180Y-90151995D01*
X84916708Y-90186554D01*
X84891847Y-90216847D01*
X84861554Y-90241708D01*
X84826995Y-90260180D01*
X84789499Y-90271555D01*
X84744362Y-90276000D01*
X84005638Y-90276000D01*
X83960501Y-90271555D01*
X83923005Y-90260180D01*
X83888446Y-90241708D01*
X83858153Y-90216847D01*
X83833292Y-90186554D01*
X83814820Y-90151995D01*
X83803445Y-90114499D01*
X83799000Y-90069362D01*
X83799000Y-89430638D01*
X83803445Y-89385501D01*
X83814820Y-89348005D01*
X83833292Y-89313446D01*
X83858153Y-89283153D01*
X83888446Y-89258292D01*
X83923005Y-89239820D01*
X83960501Y-89228445D01*
X84005638Y-89224000D01*
X84744362Y-89224000D01*
X84789499Y-89228445D01*
X84789499Y-89228445D01*
G37*
G36*
X22542000Y-89896000D02*
G01*
X20440000Y-89896000D01*
X20440000Y-88894000D01*
X22542000Y-88894000D01*
X22542000Y-89896000D01*
X22542000Y-89896000D01*
G37*
G36*
X39560000Y-89896000D02*
G01*
X37458000Y-89896000D01*
X37458000Y-88894000D01*
X39560000Y-88894000D01*
X39560000Y-89896000D01*
X39560000Y-89896000D01*
G37*
G36*
X41339499Y-88678445D02*
G01*
X41376995Y-88689820D01*
X41411554Y-88708292D01*
X41441847Y-88733153D01*
X41466708Y-88763446D01*
X41485180Y-88798005D01*
X41496555Y-88835501D01*
X41501000Y-88880638D01*
X41501000Y-89519362D01*
X41496555Y-89564499D01*
X41485180Y-89601995D01*
X41466708Y-89636554D01*
X41441847Y-89666847D01*
X41411554Y-89691708D01*
X41376995Y-89710180D01*
X41339499Y-89721555D01*
X41294362Y-89726000D01*
X40555638Y-89726000D01*
X40510501Y-89721555D01*
X40473005Y-89710180D01*
X40438446Y-89691708D01*
X40408153Y-89666847D01*
X40383292Y-89636554D01*
X40364820Y-89601995D01*
X40353445Y-89564499D01*
X40349000Y-89519362D01*
X40349000Y-88880638D01*
X40353445Y-88835501D01*
X40364820Y-88798005D01*
X40383292Y-88763446D01*
X40408153Y-88733153D01*
X40438446Y-88708292D01*
X40473005Y-88689820D01*
X40510501Y-88678445D01*
X40555638Y-88674000D01*
X41294362Y-88674000D01*
X41339499Y-88678445D01*
X41339499Y-88678445D01*
G37*
G36*
X43089499Y-88678445D02*
G01*
X43126995Y-88689820D01*
X43161554Y-88708292D01*
X43191847Y-88733153D01*
X43216708Y-88763446D01*
X43235180Y-88798005D01*
X43246555Y-88835501D01*
X43251000Y-88880638D01*
X43251000Y-89519362D01*
X43246555Y-89564499D01*
X43235180Y-89601995D01*
X43216708Y-89636554D01*
X43191847Y-89666847D01*
X43161554Y-89691708D01*
X43126995Y-89710180D01*
X43089499Y-89721555D01*
X43044362Y-89726000D01*
X42305638Y-89726000D01*
X42260501Y-89721555D01*
X42223005Y-89710180D01*
X42188446Y-89691708D01*
X42158153Y-89666847D01*
X42133292Y-89636554D01*
X42114820Y-89601995D01*
X42103445Y-89564499D01*
X42099000Y-89519362D01*
X42099000Y-88880638D01*
X42103445Y-88835501D01*
X42114820Y-88798005D01*
X42133292Y-88763446D01*
X42158153Y-88733153D01*
X42188446Y-88708292D01*
X42223005Y-88689820D01*
X42260501Y-88678445D01*
X42305638Y-88674000D01*
X43044362Y-88674000D01*
X43089499Y-88678445D01*
X43089499Y-88678445D01*
G37*
G36*
X59761794Y-87467155D02*
G01*
X59868150Y-87488311D01*
X59968334Y-87529809D01*
X60068520Y-87571307D01*
X60248844Y-87691795D01*
X60402205Y-87845156D01*
X60522693Y-88025480D01*
X60522693Y-88025481D01*
X60605689Y-88225850D01*
X60648000Y-88438561D01*
X60648000Y-88655439D01*
X60605689Y-88868150D01*
X60594652Y-88894795D01*
X60522693Y-89068520D01*
X60402205Y-89248844D01*
X60248844Y-89402205D01*
X60068520Y-89522693D01*
X60005009Y-89549000D01*
X59868150Y-89605689D01*
X59850926Y-89609115D01*
X59655440Y-89648000D01*
X59438560Y-89648000D01*
X59243074Y-89609115D01*
X59225850Y-89605689D01*
X59088991Y-89549000D01*
X59025480Y-89522693D01*
X58845156Y-89402205D01*
X58691795Y-89248844D01*
X58571307Y-89068520D01*
X58499348Y-88894795D01*
X58488311Y-88868150D01*
X58446000Y-88655439D01*
X58446000Y-88438561D01*
X58488311Y-88225850D01*
X58571307Y-88025481D01*
X58571307Y-88025480D01*
X58691795Y-87845156D01*
X58845156Y-87691795D01*
X59025480Y-87571307D01*
X59225850Y-87488311D01*
X59332206Y-87467155D01*
X59438560Y-87446000D01*
X59655440Y-87446000D01*
X59761794Y-87467155D01*
X59761794Y-87467155D01*
G37*
G36*
X81151000Y-88101000D02*
G01*
X80349000Y-88101000D01*
X80349000Y-85499000D01*
X81151000Y-85499000D01*
X81151000Y-88101000D01*
X81151000Y-88101000D01*
G37*
G36*
X80051000Y-88101000D02*
G01*
X79249000Y-88101000D01*
X79249000Y-85499000D01*
X80051000Y-85499000D01*
X80051000Y-88101000D01*
X80051000Y-88101000D01*
G37*
G36*
X78951000Y-88101000D02*
G01*
X78149000Y-88101000D01*
X78149000Y-85499000D01*
X78951000Y-85499000D01*
X78951000Y-88101000D01*
X78951000Y-88101000D01*
G37*
G36*
X77851000Y-88101000D02*
G01*
X77049000Y-88101000D01*
X77049000Y-85499000D01*
X77851000Y-85499000D01*
X77851000Y-88101000D01*
X77851000Y-88101000D01*
G37*
G36*
X76751000Y-88101000D02*
G01*
X75949000Y-88101000D01*
X75949000Y-85499000D01*
X76751000Y-85499000D01*
X76751000Y-88101000D01*
X76751000Y-88101000D01*
G37*
G36*
X69051000Y-88101000D02*
G01*
X68249000Y-88101000D01*
X68249000Y-85499000D01*
X69051000Y-85499000D01*
X69051000Y-88101000D01*
X69051000Y-88101000D01*
G37*
G36*
X70151000Y-88101000D02*
G01*
X69349000Y-88101000D01*
X69349000Y-85499000D01*
X70151000Y-85499000D01*
X70151000Y-88101000D01*
X70151000Y-88101000D01*
G37*
G36*
X71251000Y-88101000D02*
G01*
X70449000Y-88101000D01*
X70449000Y-85499000D01*
X71251000Y-85499000D01*
X71251000Y-88101000D01*
X71251000Y-88101000D01*
G37*
G36*
X72351000Y-88101000D02*
G01*
X71549000Y-88101000D01*
X71549000Y-85499000D01*
X72351000Y-85499000D01*
X72351000Y-88101000D01*
X72351000Y-88101000D01*
G37*
G36*
X73451000Y-88101000D02*
G01*
X72649000Y-88101000D01*
X72649000Y-85499000D01*
X73451000Y-85499000D01*
X73451000Y-88101000D01*
X73451000Y-88101000D01*
G37*
G36*
X74551000Y-88101000D02*
G01*
X73749000Y-88101000D01*
X73749000Y-85499000D01*
X74551000Y-85499000D01*
X74551000Y-88101000D01*
X74551000Y-88101000D01*
G37*
G36*
X75651000Y-88101000D02*
G01*
X74849000Y-88101000D01*
X74849000Y-85499000D01*
X75651000Y-85499000D01*
X75651000Y-88101000D01*
X75651000Y-88101000D01*
G37*
G36*
X82251000Y-88101000D02*
G01*
X81449000Y-88101000D01*
X81449000Y-85499000D01*
X82251000Y-85499000D01*
X82251000Y-88101000D01*
X82251000Y-88101000D01*
G37*
G36*
X31789499Y-86228445D02*
G01*
X31826995Y-86239820D01*
X31861554Y-86258292D01*
X31891847Y-86283153D01*
X31916708Y-86313446D01*
X31935180Y-86348005D01*
X31946555Y-86385501D01*
X31951000Y-86430638D01*
X31951000Y-87069362D01*
X31946555Y-87114499D01*
X31935180Y-87151995D01*
X31916708Y-87186554D01*
X31891847Y-87216847D01*
X31861554Y-87241708D01*
X31826995Y-87260180D01*
X31789499Y-87271555D01*
X31744362Y-87276000D01*
X31005638Y-87276000D01*
X30960501Y-87271555D01*
X30923005Y-87260180D01*
X30888446Y-87241708D01*
X30858153Y-87216847D01*
X30833292Y-87186554D01*
X30814820Y-87151995D01*
X30803445Y-87114499D01*
X30799000Y-87069362D01*
X30799000Y-86430638D01*
X30803445Y-86385501D01*
X30814820Y-86348005D01*
X30833292Y-86313446D01*
X30858153Y-86283153D01*
X30888446Y-86258292D01*
X30923005Y-86239820D01*
X30960501Y-86228445D01*
X31005638Y-86224000D01*
X31744362Y-86224000D01*
X31789499Y-86228445D01*
X31789499Y-86228445D01*
G37*
G36*
X30039499Y-86228445D02*
G01*
X30076995Y-86239820D01*
X30111554Y-86258292D01*
X30141847Y-86283153D01*
X30166708Y-86313446D01*
X30185180Y-86348005D01*
X30196555Y-86385501D01*
X30201000Y-86430638D01*
X30201000Y-87069362D01*
X30196555Y-87114499D01*
X30185180Y-87151995D01*
X30166708Y-87186554D01*
X30141847Y-87216847D01*
X30111554Y-87241708D01*
X30076995Y-87260180D01*
X30039499Y-87271555D01*
X29994362Y-87276000D01*
X29255638Y-87276000D01*
X29210501Y-87271555D01*
X29173005Y-87260180D01*
X29138446Y-87241708D01*
X29108153Y-87216847D01*
X29083292Y-87186554D01*
X29064820Y-87151995D01*
X29053445Y-87114499D01*
X29049000Y-87069362D01*
X29049000Y-86430638D01*
X29053445Y-86385501D01*
X29064820Y-86348005D01*
X29083292Y-86313446D01*
X29108153Y-86283153D01*
X29138446Y-86258292D01*
X29173005Y-86239820D01*
X29210501Y-86228445D01*
X29255638Y-86224000D01*
X29994362Y-86224000D01*
X30039499Y-86228445D01*
X30039499Y-86228445D01*
G37*
G36*
X27789499Y-86228445D02*
G01*
X27826995Y-86239820D01*
X27861554Y-86258292D01*
X27891847Y-86283153D01*
X27916708Y-86313446D01*
X27935180Y-86348005D01*
X27946555Y-86385501D01*
X27951000Y-86430638D01*
X27951000Y-87069362D01*
X27946555Y-87114499D01*
X27935180Y-87151995D01*
X27916708Y-87186554D01*
X27891847Y-87216847D01*
X27861554Y-87241708D01*
X27826995Y-87260180D01*
X27789499Y-87271555D01*
X27744362Y-87276000D01*
X27005638Y-87276000D01*
X26960501Y-87271555D01*
X26923005Y-87260180D01*
X26888446Y-87241708D01*
X26858153Y-87216847D01*
X26833292Y-87186554D01*
X26814820Y-87151995D01*
X26803445Y-87114499D01*
X26799000Y-87069362D01*
X26799000Y-86430638D01*
X26803445Y-86385501D01*
X26814820Y-86348005D01*
X26833292Y-86313446D01*
X26858153Y-86283153D01*
X26888446Y-86258292D01*
X26923005Y-86239820D01*
X26960501Y-86228445D01*
X27005638Y-86224000D01*
X27744362Y-86224000D01*
X27789499Y-86228445D01*
X27789499Y-86228445D01*
G37*
G36*
X26039499Y-86228445D02*
G01*
X26076995Y-86239820D01*
X26111554Y-86258292D01*
X26141847Y-86283153D01*
X26166708Y-86313446D01*
X26185180Y-86348005D01*
X26196555Y-86385501D01*
X26201000Y-86430638D01*
X26201000Y-87069362D01*
X26196555Y-87114499D01*
X26185180Y-87151995D01*
X26166708Y-87186554D01*
X26141847Y-87216847D01*
X26111554Y-87241708D01*
X26076995Y-87260180D01*
X26039499Y-87271555D01*
X25994362Y-87276000D01*
X25255638Y-87276000D01*
X25210501Y-87271555D01*
X25173005Y-87260180D01*
X25138446Y-87241708D01*
X25108153Y-87216847D01*
X25083292Y-87186554D01*
X25064820Y-87151995D01*
X25053445Y-87114499D01*
X25049000Y-87069362D01*
X25049000Y-86430638D01*
X25053445Y-86385501D01*
X25064820Y-86348005D01*
X25083292Y-86313446D01*
X25108153Y-86283153D01*
X25138446Y-86258292D01*
X25173005Y-86239820D01*
X25210501Y-86228445D01*
X25255638Y-86224000D01*
X25994362Y-86224000D01*
X26039499Y-86228445D01*
X26039499Y-86228445D01*
G37*
G36*
X37135795Y-84174156D02*
G01*
X37242150Y-84195311D01*
X37280026Y-84211000D01*
X37442520Y-84278307D01*
X37622844Y-84398795D01*
X37776205Y-84552156D01*
X37896693Y-84732480D01*
X37979689Y-84932851D01*
X38022000Y-85145560D01*
X38022000Y-85362440D01*
X37979689Y-85575149D01*
X37896693Y-85775520D01*
X37776205Y-85955844D01*
X37622844Y-86109205D01*
X37442520Y-86229693D01*
X37349258Y-86268323D01*
X37242150Y-86312689D01*
X37135794Y-86333845D01*
X37029440Y-86355000D01*
X36812560Y-86355000D01*
X36706206Y-86333845D01*
X36599850Y-86312689D01*
X36492742Y-86268323D01*
X36399480Y-86229693D01*
X36219156Y-86109205D01*
X36065795Y-85955844D01*
X35945307Y-85775520D01*
X35862311Y-85575149D01*
X35820000Y-85362440D01*
X35820000Y-85145560D01*
X35862311Y-84932851D01*
X35945307Y-84732480D01*
X36065795Y-84552156D01*
X36219156Y-84398795D01*
X36399480Y-84278307D01*
X36561974Y-84211000D01*
X36599850Y-84195311D01*
X36706205Y-84174156D01*
X36812560Y-84153000D01*
X37029440Y-84153000D01*
X37135795Y-84174156D01*
X37135795Y-84174156D01*
G37*
G36*
X56488564Y-84171389D02*
G01*
X56653771Y-84239820D01*
X56679835Y-84250616D01*
X56814932Y-84340885D01*
X56851973Y-84365635D01*
X56998365Y-84512027D01*
X57113385Y-84684167D01*
X57192611Y-84875436D01*
X57233000Y-85078484D01*
X57233000Y-85285516D01*
X57192611Y-85488564D01*
X57188288Y-85499000D01*
X57113384Y-85679835D01*
X56998365Y-85851973D01*
X56851973Y-85998365D01*
X56679835Y-86113384D01*
X56679834Y-86113385D01*
X56679833Y-86113385D01*
X56488564Y-86192611D01*
X56285516Y-86233000D01*
X56078484Y-86233000D01*
X55875436Y-86192611D01*
X55684167Y-86113385D01*
X55684166Y-86113385D01*
X55684165Y-86113384D01*
X55512027Y-85998365D01*
X55365635Y-85851973D01*
X55250616Y-85679835D01*
X55175712Y-85499000D01*
X55171389Y-85488564D01*
X55131000Y-85285516D01*
X55131000Y-85078484D01*
X55171389Y-84875436D01*
X55250615Y-84684167D01*
X55365635Y-84512027D01*
X55512027Y-84365635D01*
X55549068Y-84340885D01*
X55684165Y-84250616D01*
X55710229Y-84239820D01*
X55875436Y-84171389D01*
X56078484Y-84131000D01*
X56285516Y-84131000D01*
X56488564Y-84171389D01*
X56488564Y-84171389D01*
G37*
G36*
X26039499Y-84228445D02*
G01*
X26076995Y-84239820D01*
X26111554Y-84258292D01*
X26141847Y-84283153D01*
X26166708Y-84313446D01*
X26185180Y-84348005D01*
X26196555Y-84385501D01*
X26201000Y-84430638D01*
X26201000Y-85069362D01*
X26196555Y-85114499D01*
X26185180Y-85151995D01*
X26166708Y-85186554D01*
X26141847Y-85216847D01*
X26111554Y-85241708D01*
X26076995Y-85260180D01*
X26039499Y-85271555D01*
X25994362Y-85276000D01*
X25255638Y-85276000D01*
X25210501Y-85271555D01*
X25173005Y-85260180D01*
X25138446Y-85241708D01*
X25108153Y-85216847D01*
X25083292Y-85186554D01*
X25064820Y-85151995D01*
X25053445Y-85114499D01*
X25049000Y-85069362D01*
X25049000Y-84430638D01*
X25053445Y-84385501D01*
X25064820Y-84348005D01*
X25083292Y-84313446D01*
X25108153Y-84283153D01*
X25138446Y-84258292D01*
X25173005Y-84239820D01*
X25210501Y-84228445D01*
X25255638Y-84224000D01*
X25994362Y-84224000D01*
X26039499Y-84228445D01*
X26039499Y-84228445D01*
G37*
G36*
X24289499Y-84228445D02*
G01*
X24326995Y-84239820D01*
X24361554Y-84258292D01*
X24391847Y-84283153D01*
X24416708Y-84313446D01*
X24435180Y-84348005D01*
X24446555Y-84385501D01*
X24451000Y-84430638D01*
X24451000Y-85069362D01*
X24446555Y-85114499D01*
X24435180Y-85151995D01*
X24416708Y-85186554D01*
X24391847Y-85216847D01*
X24361554Y-85241708D01*
X24326995Y-85260180D01*
X24289499Y-85271555D01*
X24244362Y-85276000D01*
X23505638Y-85276000D01*
X23460501Y-85271555D01*
X23423005Y-85260180D01*
X23388446Y-85241708D01*
X23358153Y-85216847D01*
X23333292Y-85186554D01*
X23314820Y-85151995D01*
X23303445Y-85114499D01*
X23299000Y-85069362D01*
X23299000Y-84430638D01*
X23303445Y-84385501D01*
X23314820Y-84348005D01*
X23333292Y-84313446D01*
X23358153Y-84283153D01*
X23388446Y-84258292D01*
X23423005Y-84239820D01*
X23460501Y-84228445D01*
X23505638Y-84224000D01*
X24244362Y-84224000D01*
X24289499Y-84228445D01*
X24289499Y-84228445D01*
G37*
G36*
X30789499Y-84228445D02*
G01*
X30826995Y-84239820D01*
X30861554Y-84258292D01*
X30891847Y-84283153D01*
X30916708Y-84313446D01*
X30935180Y-84348005D01*
X30946555Y-84385501D01*
X30951000Y-84430638D01*
X30951000Y-85069362D01*
X30946555Y-85114499D01*
X30935180Y-85151995D01*
X30916708Y-85186554D01*
X30891847Y-85216847D01*
X30861554Y-85241708D01*
X30826995Y-85260180D01*
X30789499Y-85271555D01*
X30744362Y-85276000D01*
X30005638Y-85276000D01*
X29960501Y-85271555D01*
X29923005Y-85260180D01*
X29888446Y-85241708D01*
X29858153Y-85216847D01*
X29833292Y-85186554D01*
X29814820Y-85151995D01*
X29803445Y-85114499D01*
X29799000Y-85069362D01*
X29799000Y-84430638D01*
X29803445Y-84385501D01*
X29814820Y-84348005D01*
X29833292Y-84313446D01*
X29858153Y-84283153D01*
X29888446Y-84258292D01*
X29923005Y-84239820D01*
X29960501Y-84228445D01*
X30005638Y-84224000D01*
X30744362Y-84224000D01*
X30789499Y-84228445D01*
X30789499Y-84228445D01*
G37*
G36*
X32539499Y-84228445D02*
G01*
X32576995Y-84239820D01*
X32611554Y-84258292D01*
X32641847Y-84283153D01*
X32666708Y-84313446D01*
X32685180Y-84348005D01*
X32696555Y-84385501D01*
X32701000Y-84430638D01*
X32701000Y-85069362D01*
X32696555Y-85114499D01*
X32685180Y-85151995D01*
X32666708Y-85186554D01*
X32641847Y-85216847D01*
X32611554Y-85241708D01*
X32576995Y-85260180D01*
X32539499Y-85271555D01*
X32494362Y-85276000D01*
X31755638Y-85276000D01*
X31710501Y-85271555D01*
X31673005Y-85260180D01*
X31638446Y-85241708D01*
X31608153Y-85216847D01*
X31583292Y-85186554D01*
X31564820Y-85151995D01*
X31553445Y-85114499D01*
X31549000Y-85069362D01*
X31549000Y-84430638D01*
X31553445Y-84385501D01*
X31564820Y-84348005D01*
X31583292Y-84313446D01*
X31608153Y-84283153D01*
X31638446Y-84258292D01*
X31673005Y-84239820D01*
X31710501Y-84228445D01*
X31755638Y-84224000D01*
X32494362Y-84224000D01*
X32539499Y-84228445D01*
X32539499Y-84228445D01*
G37*
G36*
X52104795Y-82030156D02*
G01*
X52211150Y-82051311D01*
X52306967Y-82091000D01*
X52411520Y-82134307D01*
X52591844Y-82254795D01*
X52745205Y-82408156D01*
X52865693Y-82588480D01*
X52948689Y-82788851D01*
X52991000Y-83001560D01*
X52991000Y-83218440D01*
X52948689Y-83431149D01*
X52865693Y-83631520D01*
X52745205Y-83811844D01*
X52591844Y-83965205D01*
X52411520Y-84085693D01*
X52211150Y-84168689D01*
X52104795Y-84189844D01*
X51998440Y-84211000D01*
X51781560Y-84211000D01*
X51675205Y-84189844D01*
X51568850Y-84168689D01*
X51368480Y-84085693D01*
X51188156Y-83965205D01*
X51034795Y-83811844D01*
X50914307Y-83631520D01*
X50831311Y-83431149D01*
X50789000Y-83218440D01*
X50789000Y-83001560D01*
X50831311Y-82788851D01*
X50914307Y-82588480D01*
X51034795Y-82408156D01*
X51188156Y-82254795D01*
X51368480Y-82134307D01*
X51473033Y-82091000D01*
X51568850Y-82051311D01*
X51675205Y-82030156D01*
X51781560Y-82009000D01*
X51998440Y-82009000D01*
X52104795Y-82030156D01*
X52104795Y-82030156D01*
G37*
G36*
X85151000Y-83951000D02*
G01*
X82549000Y-83951000D01*
X82549000Y-83149000D01*
X85151000Y-83149000D01*
X85151000Y-83951000D01*
X85151000Y-83951000D01*
G37*
G36*
X67951000Y-83951000D02*
G01*
X65349000Y-83951000D01*
X65349000Y-83149000D01*
X67951000Y-83149000D01*
X67951000Y-83951000D01*
X67951000Y-83951000D01*
G37*
G36*
X64078048Y-81828122D02*
G01*
X64112387Y-81838539D01*
X64144036Y-81855456D01*
X64171778Y-81878222D01*
X64194544Y-81905964D01*
X64211461Y-81937613D01*
X64221878Y-81971952D01*
X64226000Y-82013807D01*
X64226000Y-83236193D01*
X64221878Y-83278048D01*
X64211461Y-83312387D01*
X64194544Y-83344036D01*
X64171778Y-83371778D01*
X64144036Y-83394544D01*
X64112387Y-83411461D01*
X64078048Y-83421878D01*
X64036193Y-83426000D01*
X61963807Y-83426000D01*
X61921952Y-83421878D01*
X61887613Y-83411461D01*
X61855964Y-83394544D01*
X61828222Y-83371778D01*
X61805456Y-83344036D01*
X61788539Y-83312387D01*
X61778122Y-83278048D01*
X61774000Y-83236193D01*
X61774000Y-82013807D01*
X61778122Y-81971952D01*
X61788539Y-81937613D01*
X61805456Y-81905964D01*
X61828222Y-81878222D01*
X61855964Y-81855456D01*
X61887613Y-81838539D01*
X61921952Y-81828122D01*
X61963807Y-81824000D01*
X64036193Y-81824000D01*
X64078048Y-81828122D01*
X64078048Y-81828122D01*
G37*
G36*
X31451000Y-83226000D02*
G01*
X25049000Y-83226000D01*
X25049000Y-81674000D01*
X31451000Y-81674000D01*
X31451000Y-83226000D01*
X31451000Y-83226000D01*
G37*
G36*
X85151000Y-82851000D02*
G01*
X82549000Y-82851000D01*
X82549000Y-82049000D01*
X85151000Y-82049000D01*
X85151000Y-82851000D01*
X85151000Y-82851000D01*
G37*
G36*
X67951000Y-82851000D02*
G01*
X65349000Y-82851000D01*
X65349000Y-82049000D01*
X67951000Y-82049000D01*
X67951000Y-82851000D01*
X67951000Y-82851000D01*
G37*
G36*
X58364499Y-81303445D02*
G01*
X58401995Y-81314820D01*
X58436554Y-81333292D01*
X58466847Y-81358153D01*
X58491708Y-81388446D01*
X58510180Y-81423005D01*
X58521555Y-81460501D01*
X58526000Y-81505638D01*
X58526000Y-82244362D01*
X58521555Y-82289499D01*
X58510180Y-82326995D01*
X58491708Y-82361554D01*
X58466847Y-82391847D01*
X58436554Y-82416708D01*
X58401995Y-82435180D01*
X58364499Y-82446555D01*
X58319362Y-82451000D01*
X57680638Y-82451000D01*
X57635501Y-82446555D01*
X57598005Y-82435180D01*
X57563446Y-82416708D01*
X57533153Y-82391847D01*
X57508292Y-82361554D01*
X57489820Y-82326995D01*
X57478445Y-82289499D01*
X57474000Y-82244362D01*
X57474000Y-81505638D01*
X57478445Y-81460501D01*
X57489820Y-81423005D01*
X57508292Y-81388446D01*
X57533153Y-81358153D01*
X57563446Y-81333292D01*
X57598005Y-81314820D01*
X57635501Y-81303445D01*
X57680638Y-81299000D01*
X58319362Y-81299000D01*
X58364499Y-81303445D01*
X58364499Y-81303445D01*
G37*
G36*
X60364499Y-81303445D02*
G01*
X60401995Y-81314820D01*
X60436554Y-81333292D01*
X60466847Y-81358153D01*
X60491708Y-81388446D01*
X60510180Y-81423005D01*
X60521555Y-81460501D01*
X60526000Y-81505638D01*
X60526000Y-82244362D01*
X60521555Y-82289499D01*
X60510180Y-82326995D01*
X60491708Y-82361554D01*
X60466847Y-82391847D01*
X60436554Y-82416708D01*
X60401995Y-82435180D01*
X60364499Y-82446555D01*
X60319362Y-82451000D01*
X59680638Y-82451000D01*
X59635501Y-82446555D01*
X59598005Y-82435180D01*
X59563446Y-82416708D01*
X59533153Y-82391847D01*
X59508292Y-82361554D01*
X59489820Y-82326995D01*
X59478445Y-82289499D01*
X59474000Y-82244362D01*
X59474000Y-81505638D01*
X59478445Y-81460501D01*
X59489820Y-81423005D01*
X59508292Y-81388446D01*
X59533153Y-81358153D01*
X59563446Y-81333292D01*
X59598005Y-81314820D01*
X59635501Y-81303445D01*
X59680638Y-81299000D01*
X60319362Y-81299000D01*
X60364499Y-81303445D01*
X60364499Y-81303445D01*
G37*
G36*
X56364499Y-81303445D02*
G01*
X56401995Y-81314820D01*
X56436554Y-81333292D01*
X56466847Y-81358153D01*
X56491708Y-81388446D01*
X56510180Y-81423005D01*
X56521555Y-81460501D01*
X56526000Y-81505638D01*
X56526000Y-82244362D01*
X56521555Y-82289499D01*
X56510180Y-82326995D01*
X56491708Y-82361554D01*
X56466847Y-82391847D01*
X56436554Y-82416708D01*
X56401995Y-82435180D01*
X56364499Y-82446555D01*
X56319362Y-82451000D01*
X55680638Y-82451000D01*
X55635501Y-82446555D01*
X55598005Y-82435180D01*
X55563446Y-82416708D01*
X55533153Y-82391847D01*
X55508292Y-82361554D01*
X55489820Y-82326995D01*
X55478445Y-82289499D01*
X55474000Y-82244362D01*
X55474000Y-81505638D01*
X55478445Y-81460501D01*
X55489820Y-81423005D01*
X55508292Y-81388446D01*
X55533153Y-81358153D01*
X55563446Y-81333292D01*
X55598005Y-81314820D01*
X55635501Y-81303445D01*
X55680638Y-81299000D01*
X56319362Y-81299000D01*
X56364499Y-81303445D01*
X56364499Y-81303445D01*
G37*
G36*
X67951000Y-81751000D02*
G01*
X65349000Y-81751000D01*
X65349000Y-80949000D01*
X67951000Y-80949000D01*
X67951000Y-81751000D01*
X67951000Y-81751000D01*
G37*
G36*
X85151000Y-81751000D02*
G01*
X82549000Y-81751000D01*
X82549000Y-80949000D01*
X85151000Y-80949000D01*
X85151000Y-81751000D01*
X85151000Y-81751000D01*
G37*
G36*
X56364499Y-79553445D02*
G01*
X56401995Y-79564820D01*
X56436554Y-79583292D01*
X56466847Y-79608153D01*
X56491708Y-79638446D01*
X56510180Y-79673005D01*
X56521555Y-79710501D01*
X56526000Y-79755638D01*
X56526000Y-80494362D01*
X56521555Y-80539499D01*
X56510180Y-80576995D01*
X56491708Y-80611554D01*
X56466847Y-80641847D01*
X56436554Y-80666708D01*
X56401995Y-80685180D01*
X56364499Y-80696555D01*
X56319362Y-80701000D01*
X55680638Y-80701000D01*
X55635501Y-80696555D01*
X55598005Y-80685180D01*
X55563446Y-80666708D01*
X55533153Y-80641847D01*
X55508292Y-80611554D01*
X55489820Y-80576995D01*
X55478445Y-80539499D01*
X55474000Y-80494362D01*
X55474000Y-79755638D01*
X55478445Y-79710501D01*
X55489820Y-79673005D01*
X55508292Y-79638446D01*
X55533153Y-79608153D01*
X55563446Y-79583292D01*
X55598005Y-79564820D01*
X55635501Y-79553445D01*
X55680638Y-79549000D01*
X56319362Y-79549000D01*
X56364499Y-79553445D01*
X56364499Y-79553445D01*
G37*
G36*
X58364499Y-79553445D02*
G01*
X58401995Y-79564820D01*
X58436554Y-79583292D01*
X58466847Y-79608153D01*
X58491708Y-79638446D01*
X58510180Y-79673005D01*
X58521555Y-79710501D01*
X58526000Y-79755638D01*
X58526000Y-80494362D01*
X58521555Y-80539499D01*
X58510180Y-80576995D01*
X58491708Y-80611554D01*
X58466847Y-80641847D01*
X58436554Y-80666708D01*
X58401995Y-80685180D01*
X58364499Y-80696555D01*
X58319362Y-80701000D01*
X57680638Y-80701000D01*
X57635501Y-80696555D01*
X57598005Y-80685180D01*
X57563446Y-80666708D01*
X57533153Y-80641847D01*
X57508292Y-80611554D01*
X57489820Y-80576995D01*
X57478445Y-80539499D01*
X57474000Y-80494362D01*
X57474000Y-79755638D01*
X57478445Y-79710501D01*
X57489820Y-79673005D01*
X57508292Y-79638446D01*
X57533153Y-79608153D01*
X57563446Y-79583292D01*
X57598005Y-79564820D01*
X57635501Y-79553445D01*
X57680638Y-79549000D01*
X58319362Y-79549000D01*
X58364499Y-79553445D01*
X58364499Y-79553445D01*
G37*
G36*
X60364499Y-79553445D02*
G01*
X60401995Y-79564820D01*
X60436554Y-79583292D01*
X60466847Y-79608153D01*
X60491708Y-79638446D01*
X60510180Y-79673005D01*
X60521555Y-79710501D01*
X60526000Y-79755638D01*
X60526000Y-80494362D01*
X60521555Y-80539499D01*
X60510180Y-80576995D01*
X60491708Y-80611554D01*
X60466847Y-80641847D01*
X60436554Y-80666708D01*
X60401995Y-80685180D01*
X60364499Y-80696555D01*
X60319362Y-80701000D01*
X59680638Y-80701000D01*
X59635501Y-80696555D01*
X59598005Y-80685180D01*
X59563446Y-80666708D01*
X59533153Y-80641847D01*
X59508292Y-80611554D01*
X59489820Y-80576995D01*
X59478445Y-80539499D01*
X59474000Y-80494362D01*
X59474000Y-79755638D01*
X59478445Y-79710501D01*
X59489820Y-79673005D01*
X59508292Y-79638446D01*
X59533153Y-79608153D01*
X59563446Y-79583292D01*
X59598005Y-79564820D01*
X59635501Y-79553445D01*
X59680638Y-79549000D01*
X60319362Y-79549000D01*
X60364499Y-79553445D01*
X60364499Y-79553445D01*
G37*
G36*
X85151000Y-80651000D02*
G01*
X82549000Y-80651000D01*
X82549000Y-79849000D01*
X85151000Y-79849000D01*
X85151000Y-80651000D01*
X85151000Y-80651000D01*
G37*
G36*
X67951000Y-80651000D02*
G01*
X65349000Y-80651000D01*
X65349000Y-79849000D01*
X67951000Y-79849000D01*
X67951000Y-80651000D01*
X67951000Y-80651000D01*
G37*
G36*
X64078048Y-78578122D02*
G01*
X64112387Y-78588539D01*
X64144036Y-78605456D01*
X64171778Y-78628222D01*
X64194544Y-78655964D01*
X64211461Y-78687613D01*
X64221878Y-78721952D01*
X64226000Y-78763807D01*
X64226000Y-79986193D01*
X64221878Y-80028048D01*
X64211461Y-80062387D01*
X64194544Y-80094036D01*
X64171778Y-80121778D01*
X64144036Y-80144544D01*
X64112387Y-80161461D01*
X64078048Y-80171878D01*
X64036193Y-80176000D01*
X61963807Y-80176000D01*
X61921952Y-80171878D01*
X61887613Y-80161461D01*
X61855964Y-80144544D01*
X61828222Y-80121778D01*
X61805456Y-80094036D01*
X61788539Y-80062387D01*
X61778122Y-80028048D01*
X61774000Y-79986193D01*
X61774000Y-78763807D01*
X61778122Y-78721952D01*
X61788539Y-78687613D01*
X61805456Y-78655964D01*
X61828222Y-78628222D01*
X61855964Y-78605456D01*
X61887613Y-78588539D01*
X61921952Y-78578122D01*
X61963807Y-78574000D01*
X64036193Y-78574000D01*
X64078048Y-78578122D01*
X64078048Y-78578122D01*
G37*
G36*
X50124564Y-77807389D02*
G01*
X50315833Y-77886615D01*
X50315835Y-77886616D01*
X50487973Y-78001635D01*
X50634365Y-78148027D01*
X50749385Y-78320167D01*
X50828611Y-78511436D01*
X50869000Y-78714484D01*
X50869000Y-78921516D01*
X50828611Y-79124564D01*
X50749385Y-79315833D01*
X50749384Y-79315835D01*
X50634365Y-79487973D01*
X50487973Y-79634365D01*
X50315835Y-79749384D01*
X50315834Y-79749385D01*
X50315833Y-79749385D01*
X50124564Y-79828611D01*
X49921516Y-79869000D01*
X49714484Y-79869000D01*
X49511436Y-79828611D01*
X49320167Y-79749385D01*
X49320166Y-79749385D01*
X49320165Y-79749384D01*
X49148027Y-79634365D01*
X49001635Y-79487973D01*
X48886616Y-79315835D01*
X48886615Y-79315833D01*
X48807389Y-79124564D01*
X48767000Y-78921516D01*
X48767000Y-78714484D01*
X48807389Y-78511436D01*
X48886615Y-78320167D01*
X49001635Y-78148027D01*
X49148027Y-78001635D01*
X49320165Y-77886616D01*
X49320167Y-77886615D01*
X49511436Y-77807389D01*
X49714484Y-77767000D01*
X49921516Y-77767000D01*
X50124564Y-77807389D01*
X50124564Y-77807389D01*
G37*
G36*
X85151000Y-79551000D02*
G01*
X82549000Y-79551000D01*
X82549000Y-78749000D01*
X85151000Y-78749000D01*
X85151000Y-79551000D01*
X85151000Y-79551000D01*
G37*
G36*
X67951000Y-79551000D02*
G01*
X65349000Y-79551000D01*
X65349000Y-78749000D01*
X67951000Y-78749000D01*
X67951000Y-79551000D01*
X67951000Y-79551000D01*
G37*
G36*
X85151000Y-78451000D02*
G01*
X82549000Y-78451000D01*
X82549000Y-77649000D01*
X85151000Y-77649000D01*
X85151000Y-78451000D01*
X85151000Y-78451000D01*
G37*
G36*
X67951000Y-78451000D02*
G01*
X65349000Y-78451000D01*
X65349000Y-77649000D01*
X67951000Y-77649000D01*
X67951000Y-78451000D01*
X67951000Y-78451000D01*
G37*
G36*
X85151000Y-77351000D02*
G01*
X82549000Y-77351000D01*
X82549000Y-76549000D01*
X85151000Y-76549000D01*
X85151000Y-77351000D01*
X85151000Y-77351000D01*
G37*
G36*
X67951000Y-77351000D02*
G01*
X65349000Y-77351000D01*
X65349000Y-76549000D01*
X67951000Y-76549000D01*
X67951000Y-77351000D01*
X67951000Y-77351000D01*
G37*
G36*
X31451000Y-77326000D02*
G01*
X25049000Y-77326000D01*
X25049000Y-75774000D01*
X31451000Y-75774000D01*
X31451000Y-77326000D01*
X31451000Y-77326000D01*
G37*
G36*
X46667794Y-74373155D02*
G01*
X46774150Y-74394311D01*
X46874334Y-74435809D01*
X46974520Y-74477307D01*
X47154844Y-74597795D01*
X47308205Y-74751156D01*
X47428693Y-74931480D01*
X47428693Y-74931481D01*
X47511275Y-75130850D01*
X47511689Y-75131851D01*
X47554000Y-75344560D01*
X47554000Y-75561440D01*
X47511689Y-75774149D01*
X47428693Y-75974520D01*
X47308205Y-76154844D01*
X47154844Y-76308205D01*
X46974520Y-76428693D01*
X46774150Y-76511689D01*
X46667795Y-76532844D01*
X46561440Y-76554000D01*
X46344560Y-76554000D01*
X46238205Y-76532844D01*
X46131850Y-76511689D01*
X45931480Y-76428693D01*
X45751156Y-76308205D01*
X45597795Y-76154844D01*
X45477307Y-75974520D01*
X45394311Y-75774149D01*
X45352000Y-75561440D01*
X45352000Y-75344560D01*
X45394311Y-75131851D01*
X45394726Y-75130850D01*
X45477307Y-74931481D01*
X45477307Y-74931480D01*
X45597795Y-74751156D01*
X45751156Y-74597795D01*
X45931480Y-74477307D01*
X46031666Y-74435809D01*
X46131850Y-74394311D01*
X46238206Y-74373155D01*
X46344560Y-74352000D01*
X46561440Y-74352000D01*
X46667794Y-74373155D01*
X46667794Y-74373155D01*
G37*
G36*
X59762794Y-74372155D02*
G01*
X59869150Y-74393311D01*
X59969334Y-74434809D01*
X60069520Y-74476307D01*
X60249844Y-74596795D01*
X60403205Y-74750156D01*
X60523693Y-74930480D01*
X60532542Y-74951844D01*
X60606689Y-75130850D01*
X60649000Y-75343561D01*
X60649000Y-75560439D01*
X60606689Y-75773150D01*
X60565191Y-75873334D01*
X60523693Y-75973520D01*
X60403205Y-76153844D01*
X60249844Y-76307205D01*
X60069520Y-76427693D01*
X59969334Y-76469191D01*
X59869150Y-76510689D01*
X59762795Y-76531844D01*
X59656440Y-76553000D01*
X59439560Y-76553000D01*
X59333205Y-76531844D01*
X59226850Y-76510689D01*
X59126666Y-76469191D01*
X59026480Y-76427693D01*
X58846156Y-76307205D01*
X58692795Y-76153844D01*
X58572307Y-75973520D01*
X58530809Y-75873334D01*
X58489311Y-75773150D01*
X58447000Y-75560439D01*
X58447000Y-75343561D01*
X58489311Y-75130850D01*
X58563458Y-74951844D01*
X58572307Y-74930480D01*
X58692795Y-74750156D01*
X58846156Y-74596795D01*
X59026480Y-74476307D01*
X59126666Y-74434809D01*
X59226850Y-74393311D01*
X59333206Y-74372155D01*
X59439560Y-74351000D01*
X59656440Y-74351000D01*
X59762794Y-74372155D01*
X59762794Y-74372155D01*
G37*
G36*
X67951000Y-76251000D02*
G01*
X65349000Y-76251000D01*
X65349000Y-75449000D01*
X67951000Y-75449000D01*
X67951000Y-76251000D01*
X67951000Y-76251000D01*
G37*
G36*
X85151000Y-76251000D02*
G01*
X82549000Y-76251000D01*
X82549000Y-75449000D01*
X85151000Y-75449000D01*
X85151000Y-76251000D01*
X85151000Y-76251000D01*
G37*
G36*
X38112794Y-73170155D02*
G01*
X38219150Y-73191311D01*
X38419520Y-73274307D01*
X38599844Y-73394795D01*
X38753205Y-73548156D01*
X38873693Y-73728480D01*
X38886041Y-73758292D01*
X38956689Y-73928850D01*
X38999000Y-74141561D01*
X38999000Y-74358439D01*
X38956689Y-74571150D01*
X38915191Y-74671334D01*
X38873693Y-74771520D01*
X38753205Y-74951844D01*
X38599844Y-75105205D01*
X38419520Y-75225693D01*
X38319334Y-75267191D01*
X38219150Y-75308689D01*
X38112795Y-75329844D01*
X38006440Y-75351000D01*
X37789560Y-75351000D01*
X37683205Y-75329844D01*
X37576850Y-75308689D01*
X37476666Y-75267191D01*
X37376480Y-75225693D01*
X37196156Y-75105205D01*
X37042795Y-74951844D01*
X36922307Y-74771520D01*
X36880809Y-74671334D01*
X36839311Y-74571150D01*
X36797000Y-74358439D01*
X36797000Y-74141561D01*
X36839311Y-73928850D01*
X36909959Y-73758292D01*
X36922307Y-73728480D01*
X37042795Y-73548156D01*
X37196156Y-73394795D01*
X37376480Y-73274307D01*
X37576850Y-73191311D01*
X37683206Y-73170155D01*
X37789560Y-73149000D01*
X38006440Y-73149000D01*
X38112794Y-73170155D01*
X38112794Y-73170155D01*
G37*
G36*
X85151000Y-75151000D02*
G01*
X82549000Y-75151000D01*
X82549000Y-74349000D01*
X85151000Y-74349000D01*
X85151000Y-75151000D01*
X85151000Y-75151000D01*
G37*
G36*
X67951000Y-75151000D02*
G01*
X65349000Y-75151000D01*
X65349000Y-74349000D01*
X67951000Y-74349000D01*
X67951000Y-75151000D01*
X67951000Y-75151000D01*
G37*
G36*
X24039499Y-73728445D02*
G01*
X24076995Y-73739820D01*
X24111554Y-73758292D01*
X24141847Y-73783153D01*
X24166708Y-73813446D01*
X24185180Y-73848005D01*
X24196555Y-73885501D01*
X24201000Y-73930638D01*
X24201000Y-74569362D01*
X24196555Y-74614499D01*
X24185180Y-74651995D01*
X24166708Y-74686554D01*
X24141847Y-74716847D01*
X24111554Y-74741708D01*
X24076995Y-74760180D01*
X24039499Y-74771555D01*
X23994362Y-74776000D01*
X23255638Y-74776000D01*
X23210501Y-74771555D01*
X23173005Y-74760180D01*
X23138446Y-74741708D01*
X23108153Y-74716847D01*
X23083292Y-74686554D01*
X23064820Y-74651995D01*
X23053445Y-74614499D01*
X23049000Y-74569362D01*
X23049000Y-73930638D01*
X23053445Y-73885501D01*
X23064820Y-73848005D01*
X23083292Y-73813446D01*
X23108153Y-73783153D01*
X23138446Y-73758292D01*
X23173005Y-73739820D01*
X23210501Y-73728445D01*
X23255638Y-73724000D01*
X23994362Y-73724000D01*
X24039499Y-73728445D01*
X24039499Y-73728445D01*
G37*
G36*
X31289499Y-73728445D02*
G01*
X31326995Y-73739820D01*
X31361554Y-73758292D01*
X31391847Y-73783153D01*
X31416708Y-73813446D01*
X31435180Y-73848005D01*
X31446555Y-73885501D01*
X31451000Y-73930638D01*
X31451000Y-74569362D01*
X31446555Y-74614499D01*
X31435180Y-74651995D01*
X31416708Y-74686554D01*
X31391847Y-74716847D01*
X31361554Y-74741708D01*
X31326995Y-74760180D01*
X31289499Y-74771555D01*
X31244362Y-74776000D01*
X30505638Y-74776000D01*
X30460501Y-74771555D01*
X30423005Y-74760180D01*
X30388446Y-74741708D01*
X30358153Y-74716847D01*
X30333292Y-74686554D01*
X30314820Y-74651995D01*
X30303445Y-74614499D01*
X30299000Y-74569362D01*
X30299000Y-73930638D01*
X30303445Y-73885501D01*
X30314820Y-73848005D01*
X30333292Y-73813446D01*
X30358153Y-73783153D01*
X30388446Y-73758292D01*
X30423005Y-73739820D01*
X30460501Y-73728445D01*
X30505638Y-73724000D01*
X31244362Y-73724000D01*
X31289499Y-73728445D01*
X31289499Y-73728445D01*
G37*
G36*
X33039499Y-73728445D02*
G01*
X33076995Y-73739820D01*
X33111554Y-73758292D01*
X33141847Y-73783153D01*
X33166708Y-73813446D01*
X33185180Y-73848005D01*
X33196555Y-73885501D01*
X33201000Y-73930638D01*
X33201000Y-74569362D01*
X33196555Y-74614499D01*
X33185180Y-74651995D01*
X33166708Y-74686554D01*
X33141847Y-74716847D01*
X33111554Y-74741708D01*
X33076995Y-74760180D01*
X33039499Y-74771555D01*
X32994362Y-74776000D01*
X32255638Y-74776000D01*
X32210501Y-74771555D01*
X32173005Y-74760180D01*
X32138446Y-74741708D01*
X32108153Y-74716847D01*
X32083292Y-74686554D01*
X32064820Y-74651995D01*
X32053445Y-74614499D01*
X32049000Y-74569362D01*
X32049000Y-73930638D01*
X32053445Y-73885501D01*
X32064820Y-73848005D01*
X32083292Y-73813446D01*
X32108153Y-73783153D01*
X32138446Y-73758292D01*
X32173005Y-73739820D01*
X32210501Y-73728445D01*
X32255638Y-73724000D01*
X32994362Y-73724000D01*
X33039499Y-73728445D01*
X33039499Y-73728445D01*
G37*
G36*
X25789499Y-73728445D02*
G01*
X25826995Y-73739820D01*
X25861554Y-73758292D01*
X25891847Y-73783153D01*
X25916708Y-73813446D01*
X25935180Y-73848005D01*
X25946555Y-73885501D01*
X25951000Y-73930638D01*
X25951000Y-74569362D01*
X25946555Y-74614499D01*
X25935180Y-74651995D01*
X25916708Y-74686554D01*
X25891847Y-74716847D01*
X25861554Y-74741708D01*
X25826995Y-74760180D01*
X25789499Y-74771555D01*
X25744362Y-74776000D01*
X25005638Y-74776000D01*
X24960501Y-74771555D01*
X24923005Y-74760180D01*
X24888446Y-74741708D01*
X24858153Y-74716847D01*
X24833292Y-74686554D01*
X24814820Y-74651995D01*
X24803445Y-74614499D01*
X24799000Y-74569362D01*
X24799000Y-73930638D01*
X24803445Y-73885501D01*
X24814820Y-73848005D01*
X24833292Y-73813446D01*
X24858153Y-73783153D01*
X24888446Y-73758292D01*
X24923005Y-73739820D01*
X24960501Y-73728445D01*
X25005638Y-73724000D01*
X25744362Y-73724000D01*
X25789499Y-73728445D01*
X25789499Y-73728445D01*
G37*
G36*
X63885880Y-69149776D02*
G01*
X64266593Y-69225504D01*
X64676249Y-69395189D01*
X65044929Y-69641534D01*
X65358466Y-69955071D01*
X65604811Y-70323751D01*
X65774496Y-70733407D01*
X65861000Y-71168296D01*
X65861000Y-71611704D01*
X65774496Y-72046593D01*
X65604811Y-72456249D01*
X65358466Y-72824929D01*
X65044929Y-73138466D01*
X64676249Y-73384811D01*
X64266593Y-73554496D01*
X63885880Y-73630224D01*
X63831705Y-73641000D01*
X63388295Y-73641000D01*
X63334120Y-73630224D01*
X62953407Y-73554496D01*
X62543751Y-73384811D01*
X62175071Y-73138466D01*
X61861534Y-72824929D01*
X61615189Y-72456249D01*
X61445504Y-72046593D01*
X61359000Y-71611704D01*
X61359000Y-71168296D01*
X61445504Y-70733407D01*
X61615189Y-70323751D01*
X61861534Y-69955071D01*
X62175071Y-69641534D01*
X62543751Y-69395189D01*
X62953407Y-69225504D01*
X63334120Y-69149776D01*
X63388295Y-69139000D01*
X63831705Y-69139000D01*
X63885880Y-69149776D01*
X63885880Y-69149776D01*
G37*
G36*
X42665880Y-69149776D02*
G01*
X43046593Y-69225504D01*
X43456249Y-69395189D01*
X43824929Y-69641534D01*
X44138466Y-69955071D01*
X44384811Y-70323751D01*
X44554496Y-70733407D01*
X44641000Y-71168296D01*
X44641000Y-71611704D01*
X44554496Y-72046593D01*
X44384811Y-72456249D01*
X44138466Y-72824929D01*
X43824929Y-73138466D01*
X43456249Y-73384811D01*
X43046593Y-73554496D01*
X42665880Y-73630224D01*
X42611705Y-73641000D01*
X42168295Y-73641000D01*
X42114120Y-73630224D01*
X41733407Y-73554496D01*
X41323751Y-73384811D01*
X40955071Y-73138466D01*
X40641534Y-72824929D01*
X40395189Y-72456249D01*
X40225504Y-72046593D01*
X40139000Y-71611704D01*
X40139000Y-71168296D01*
X40225504Y-70733407D01*
X40395189Y-70323751D01*
X40641534Y-69955071D01*
X40955071Y-69641534D01*
X41323751Y-69395189D01*
X41733407Y-69225504D01*
X42114120Y-69149776D01*
X42168295Y-69139000D01*
X42611705Y-69139000D01*
X42665880Y-69149776D01*
X42665880Y-69149776D01*
G37*
G36*
X29289499Y-71978445D02*
G01*
X29326995Y-71989820D01*
X29361554Y-72008292D01*
X29391847Y-72033153D01*
X29416708Y-72063446D01*
X29435180Y-72098005D01*
X29446555Y-72135501D01*
X29451000Y-72180638D01*
X29451000Y-72819362D01*
X29446555Y-72864499D01*
X29435180Y-72901995D01*
X29416708Y-72936554D01*
X29391847Y-72966847D01*
X29361554Y-72991708D01*
X29326995Y-73010180D01*
X29289499Y-73021555D01*
X29244362Y-73026000D01*
X28505638Y-73026000D01*
X28460501Y-73021555D01*
X28423005Y-73010180D01*
X28388446Y-72991708D01*
X28358153Y-72966847D01*
X28333292Y-72936554D01*
X28314820Y-72901995D01*
X28303445Y-72864499D01*
X28299000Y-72819362D01*
X28299000Y-72180638D01*
X28303445Y-72135501D01*
X28314820Y-72098005D01*
X28333292Y-72063446D01*
X28358153Y-72033153D01*
X28388446Y-72008292D01*
X28423005Y-71989820D01*
X28460501Y-71978445D01*
X28505638Y-71974000D01*
X29244362Y-71974000D01*
X29289499Y-71978445D01*
X29289499Y-71978445D01*
G37*
G36*
X31039499Y-71978445D02*
G01*
X31076995Y-71989820D01*
X31111554Y-72008292D01*
X31141847Y-72033153D01*
X31166708Y-72063446D01*
X31185180Y-72098005D01*
X31196555Y-72135501D01*
X31201000Y-72180638D01*
X31201000Y-72819362D01*
X31196555Y-72864499D01*
X31185180Y-72901995D01*
X31166708Y-72936554D01*
X31141847Y-72966847D01*
X31111554Y-72991708D01*
X31076995Y-73010180D01*
X31039499Y-73021555D01*
X30994362Y-73026000D01*
X30255638Y-73026000D01*
X30210501Y-73021555D01*
X30173005Y-73010180D01*
X30138446Y-72991708D01*
X30108153Y-72966847D01*
X30083292Y-72936554D01*
X30064820Y-72901995D01*
X30053445Y-72864499D01*
X30049000Y-72819362D01*
X30049000Y-72180638D01*
X30053445Y-72135501D01*
X30064820Y-72098005D01*
X30083292Y-72063446D01*
X30108153Y-72033153D01*
X30138446Y-72008292D01*
X30173005Y-71989820D01*
X30210501Y-71978445D01*
X30255638Y-71974000D01*
X30994362Y-71974000D01*
X31039499Y-71978445D01*
X31039499Y-71978445D01*
G37*
G36*
X27289499Y-71978445D02*
G01*
X27326995Y-71989820D01*
X27361554Y-72008292D01*
X27391847Y-72033153D01*
X27416708Y-72063446D01*
X27435180Y-72098005D01*
X27446555Y-72135501D01*
X27451000Y-72180638D01*
X27451000Y-72819362D01*
X27446555Y-72864499D01*
X27435180Y-72901995D01*
X27416708Y-72936554D01*
X27391847Y-72966847D01*
X27361554Y-72991708D01*
X27326995Y-73010180D01*
X27289499Y-73021555D01*
X27244362Y-73026000D01*
X26505638Y-73026000D01*
X26460501Y-73021555D01*
X26423005Y-73010180D01*
X26388446Y-72991708D01*
X26358153Y-72966847D01*
X26333292Y-72936554D01*
X26314820Y-72901995D01*
X26303445Y-72864499D01*
X26299000Y-72819362D01*
X26299000Y-72180638D01*
X26303445Y-72135501D01*
X26314820Y-72098005D01*
X26333292Y-72063446D01*
X26358153Y-72033153D01*
X26388446Y-72008292D01*
X26423005Y-71989820D01*
X26460501Y-71978445D01*
X26505638Y-71974000D01*
X27244362Y-71974000D01*
X27289499Y-71978445D01*
X27289499Y-71978445D01*
G37*
G36*
X25539499Y-71978445D02*
G01*
X25576995Y-71989820D01*
X25611554Y-72008292D01*
X25641847Y-72033153D01*
X25666708Y-72063446D01*
X25685180Y-72098005D01*
X25696555Y-72135501D01*
X25701000Y-72180638D01*
X25701000Y-72819362D01*
X25696555Y-72864499D01*
X25685180Y-72901995D01*
X25666708Y-72936554D01*
X25641847Y-72966847D01*
X25611554Y-72991708D01*
X25576995Y-73010180D01*
X25539499Y-73021555D01*
X25494362Y-73026000D01*
X24755638Y-73026000D01*
X24710501Y-73021555D01*
X24673005Y-73010180D01*
X24638446Y-72991708D01*
X24608153Y-72966847D01*
X24583292Y-72936554D01*
X24564820Y-72901995D01*
X24553445Y-72864499D01*
X24549000Y-72819362D01*
X24549000Y-72180638D01*
X24553445Y-72135501D01*
X24564820Y-72098005D01*
X24583292Y-72063446D01*
X24608153Y-72033153D01*
X24638446Y-72008292D01*
X24673005Y-71989820D01*
X24710501Y-71978445D01*
X24755638Y-71974000D01*
X25494362Y-71974000D01*
X25539499Y-71978445D01*
X25539499Y-71978445D01*
G37*
G36*
X82251000Y-72801000D02*
G01*
X81449000Y-72801000D01*
X81449000Y-70199000D01*
X82251000Y-70199000D01*
X82251000Y-72801000D01*
X82251000Y-72801000D01*
G37*
G36*
X81151000Y-72801000D02*
G01*
X80349000Y-72801000D01*
X80349000Y-70199000D01*
X81151000Y-70199000D01*
X81151000Y-72801000D01*
X81151000Y-72801000D01*
G37*
G36*
X69051000Y-72801000D02*
G01*
X68249000Y-72801000D01*
X68249000Y-70199000D01*
X69051000Y-70199000D01*
X69051000Y-72801000D01*
X69051000Y-72801000D01*
G37*
G36*
X70151000Y-72801000D02*
G01*
X69349000Y-72801000D01*
X69349000Y-70199000D01*
X70151000Y-70199000D01*
X70151000Y-72801000D01*
X70151000Y-72801000D01*
G37*
G36*
X71251000Y-72801000D02*
G01*
X70449000Y-72801000D01*
X70449000Y-70199000D01*
X71251000Y-70199000D01*
X71251000Y-72801000D01*
X71251000Y-72801000D01*
G37*
G36*
X75651000Y-72801000D02*
G01*
X74849000Y-72801000D01*
X74849000Y-70199000D01*
X75651000Y-70199000D01*
X75651000Y-72801000D01*
X75651000Y-72801000D01*
G37*
G36*
X72351000Y-72801000D02*
G01*
X71549000Y-72801000D01*
X71549000Y-70199000D01*
X72351000Y-70199000D01*
X72351000Y-72801000D01*
X72351000Y-72801000D01*
G37*
G36*
X76751000Y-72801000D02*
G01*
X75949000Y-72801000D01*
X75949000Y-70199000D01*
X76751000Y-70199000D01*
X76751000Y-72801000D01*
X76751000Y-72801000D01*
G37*
G36*
X73451000Y-72801000D02*
G01*
X72649000Y-72801000D01*
X72649000Y-70199000D01*
X73451000Y-70199000D01*
X73451000Y-72801000D01*
X73451000Y-72801000D01*
G37*
G36*
X77851000Y-72801000D02*
G01*
X77049000Y-72801000D01*
X77049000Y-70199000D01*
X77851000Y-70199000D01*
X77851000Y-72801000D01*
X77851000Y-72801000D01*
G37*
G36*
X78951000Y-72801000D02*
G01*
X78149000Y-72801000D01*
X78149000Y-70199000D01*
X78951000Y-70199000D01*
X78951000Y-72801000D01*
X78951000Y-72801000D01*
G37*
G36*
X80051000Y-72801000D02*
G01*
X79249000Y-72801000D01*
X79249000Y-70199000D01*
X80051000Y-70199000D01*
X80051000Y-72801000D01*
X80051000Y-72801000D01*
G37*
G36*
X74551000Y-72801000D02*
G01*
X73749000Y-72801000D01*
X73749000Y-70199000D01*
X74551000Y-70199000D01*
X74551000Y-72801000D01*
X74551000Y-72801000D01*
G37*
G36*
X80289499Y-67978445D02*
G01*
X80326995Y-67989820D01*
X80361554Y-68008292D01*
X80391847Y-68033153D01*
X80416708Y-68063446D01*
X80435180Y-68098005D01*
X80446555Y-68135501D01*
X80451000Y-68180638D01*
X80451000Y-68819362D01*
X80446555Y-68864499D01*
X80435180Y-68901995D01*
X80416708Y-68936554D01*
X80391847Y-68966847D01*
X80361554Y-68991708D01*
X80326995Y-69010180D01*
X80289499Y-69021555D01*
X80244362Y-69026000D01*
X79505638Y-69026000D01*
X79460501Y-69021555D01*
X79423005Y-69010180D01*
X79388446Y-68991708D01*
X79358153Y-68966847D01*
X79333292Y-68936554D01*
X79314820Y-68901995D01*
X79303445Y-68864499D01*
X79299000Y-68819362D01*
X79299000Y-68180638D01*
X79303445Y-68135501D01*
X79314820Y-68098005D01*
X79333292Y-68063446D01*
X79358153Y-68033153D01*
X79388446Y-68008292D01*
X79423005Y-67989820D01*
X79460501Y-67978445D01*
X79505638Y-67974000D01*
X80244362Y-67974000D01*
X80289499Y-67978445D01*
X80289499Y-67978445D01*
G37*
G36*
X78539499Y-67978445D02*
G01*
X78576995Y-67989820D01*
X78611554Y-68008292D01*
X78641847Y-68033153D01*
X78666708Y-68063446D01*
X78685180Y-68098005D01*
X78696555Y-68135501D01*
X78701000Y-68180638D01*
X78701000Y-68819362D01*
X78696555Y-68864499D01*
X78685180Y-68901995D01*
X78666708Y-68936554D01*
X78641847Y-68966847D01*
X78611554Y-68991708D01*
X78576995Y-69010180D01*
X78539499Y-69021555D01*
X78494362Y-69026000D01*
X77755638Y-69026000D01*
X77710501Y-69021555D01*
X77673005Y-69010180D01*
X77638446Y-68991708D01*
X77608153Y-68966847D01*
X77583292Y-68936554D01*
X77564820Y-68901995D01*
X77553445Y-68864499D01*
X77549000Y-68819362D01*
X77549000Y-68180638D01*
X77553445Y-68135501D01*
X77564820Y-68098005D01*
X77583292Y-68063446D01*
X77608153Y-68033153D01*
X77638446Y-68008292D01*
X77673005Y-67989820D01*
X77710501Y-67978445D01*
X77755638Y-67974000D01*
X78494362Y-67974000D01*
X78539499Y-67978445D01*
X78539499Y-67978445D01*
G37*
G36*
X29789499Y-67728445D02*
G01*
X29826995Y-67739820D01*
X29861554Y-67758292D01*
X29891847Y-67783153D01*
X29916708Y-67813446D01*
X29935180Y-67848005D01*
X29946555Y-67885501D01*
X29951000Y-67930638D01*
X29951000Y-68569362D01*
X29946555Y-68614499D01*
X29935180Y-68651995D01*
X29916708Y-68686554D01*
X29891847Y-68716847D01*
X29861554Y-68741708D01*
X29826995Y-68760180D01*
X29789499Y-68771555D01*
X29744362Y-68776000D01*
X29005638Y-68776000D01*
X28960501Y-68771555D01*
X28923005Y-68760180D01*
X28888446Y-68741708D01*
X28858153Y-68716847D01*
X28833292Y-68686554D01*
X28814820Y-68651995D01*
X28803445Y-68614499D01*
X28799000Y-68569362D01*
X28799000Y-67930638D01*
X28803445Y-67885501D01*
X28814820Y-67848005D01*
X28833292Y-67813446D01*
X28858153Y-67783153D01*
X28888446Y-67758292D01*
X28923005Y-67739820D01*
X28960501Y-67728445D01*
X29005638Y-67724000D01*
X29744362Y-67724000D01*
X29789499Y-67728445D01*
X29789499Y-67728445D01*
G37*
G36*
X31539499Y-67728445D02*
G01*
X31576995Y-67739820D01*
X31611554Y-67758292D01*
X31641847Y-67783153D01*
X31666708Y-67813446D01*
X31685180Y-67848005D01*
X31696555Y-67885501D01*
X31701000Y-67930638D01*
X31701000Y-68569362D01*
X31696555Y-68614499D01*
X31685180Y-68651995D01*
X31666708Y-68686554D01*
X31641847Y-68716847D01*
X31611554Y-68741708D01*
X31576995Y-68760180D01*
X31539499Y-68771555D01*
X31494362Y-68776000D01*
X30755638Y-68776000D01*
X30710501Y-68771555D01*
X30673005Y-68760180D01*
X30638446Y-68741708D01*
X30608153Y-68716847D01*
X30583292Y-68686554D01*
X30564820Y-68651995D01*
X30553445Y-68614499D01*
X30549000Y-68569362D01*
X30549000Y-67930638D01*
X30553445Y-67885501D01*
X30564820Y-67848005D01*
X30583292Y-67813446D01*
X30608153Y-67783153D01*
X30638446Y-67758292D01*
X30673005Y-67739820D01*
X30710501Y-67728445D01*
X30755638Y-67724000D01*
X31494362Y-67724000D01*
X31539499Y-67728445D01*
X31539499Y-67728445D01*
G37*
G36*
X69151000Y-67171000D02*
G01*
X68049000Y-67171000D01*
X68049000Y-66069000D01*
X69151000Y-66069000D01*
X69151000Y-67171000D01*
X69151000Y-67171000D01*
G37*
G36*
X34289499Y-65978445D02*
G01*
X34326995Y-65989820D01*
X34361554Y-66008292D01*
X34391847Y-66033153D01*
X34416708Y-66063446D01*
X34435180Y-66098005D01*
X34446555Y-66135501D01*
X34451000Y-66180638D01*
X34451000Y-66819362D01*
X34446555Y-66864499D01*
X34435180Y-66901995D01*
X34416708Y-66936554D01*
X34391847Y-66966847D01*
X34361554Y-66991708D01*
X34326995Y-67010180D01*
X34289499Y-67021555D01*
X34244362Y-67026000D01*
X33505638Y-67026000D01*
X33460501Y-67021555D01*
X33423005Y-67010180D01*
X33388446Y-66991708D01*
X33358153Y-66966847D01*
X33333292Y-66936554D01*
X33314820Y-66901995D01*
X33303445Y-66864499D01*
X33299000Y-66819362D01*
X33299000Y-66180638D01*
X33303445Y-66135501D01*
X33314820Y-66098005D01*
X33333292Y-66063446D01*
X33358153Y-66033153D01*
X33388446Y-66008292D01*
X33423005Y-65989820D01*
X33460501Y-65978445D01*
X33505638Y-65974000D01*
X34244362Y-65974000D01*
X34289499Y-65978445D01*
X34289499Y-65978445D01*
G37*
G36*
X32539499Y-65978445D02*
G01*
X32576995Y-65989820D01*
X32611554Y-66008292D01*
X32641847Y-66033153D01*
X32666708Y-66063446D01*
X32685180Y-66098005D01*
X32696555Y-66135501D01*
X32701000Y-66180638D01*
X32701000Y-66819362D01*
X32696555Y-66864499D01*
X32685180Y-66901995D01*
X32666708Y-66936554D01*
X32641847Y-66966847D01*
X32611554Y-66991708D01*
X32576995Y-67010180D01*
X32539499Y-67021555D01*
X32494362Y-67026000D01*
X31755638Y-67026000D01*
X31710501Y-67021555D01*
X31673005Y-67010180D01*
X31638446Y-66991708D01*
X31608153Y-66966847D01*
X31583292Y-66936554D01*
X31564820Y-66901995D01*
X31553445Y-66864499D01*
X31549000Y-66819362D01*
X31549000Y-66180638D01*
X31553445Y-66135501D01*
X31564820Y-66098005D01*
X31583292Y-66063446D01*
X31608153Y-66033153D01*
X31638446Y-66008292D01*
X31673005Y-65989820D01*
X31710501Y-65978445D01*
X31755638Y-65974000D01*
X32494362Y-65974000D01*
X32539499Y-65978445D01*
X32539499Y-65978445D01*
G37*
G36*
X56824795Y-64770156D02*
G01*
X56931150Y-64791311D01*
X57031334Y-64832809D01*
X57131520Y-64874307D01*
X57311844Y-64994795D01*
X57465205Y-65148156D01*
X57585693Y-65328480D01*
X57668689Y-65528851D01*
X57711000Y-65741560D01*
X57711000Y-65958440D01*
X57668689Y-66171149D01*
X57585693Y-66371520D01*
X57465205Y-66551844D01*
X57311844Y-66705205D01*
X57131520Y-66825693D01*
X57039893Y-66863646D01*
X56931150Y-66908689D01*
X56824794Y-66929845D01*
X56718440Y-66951000D01*
X56501560Y-66951000D01*
X56395206Y-66929845D01*
X56288850Y-66908689D01*
X56180107Y-66863646D01*
X56088480Y-66825693D01*
X55908156Y-66705205D01*
X55754795Y-66551844D01*
X55634307Y-66371520D01*
X55551311Y-66171149D01*
X55509000Y-65958440D01*
X55509000Y-65741560D01*
X55551311Y-65528851D01*
X55634307Y-65328480D01*
X55754795Y-65148156D01*
X55908156Y-64994795D01*
X56088480Y-64874307D01*
X56188666Y-64832809D01*
X56288850Y-64791311D01*
X56395205Y-64770156D01*
X56501560Y-64749000D01*
X56718440Y-64749000D01*
X56824795Y-64770156D01*
X56824795Y-64770156D01*
G37*
G36*
X70651000Y-66271000D02*
G01*
X69499000Y-66271000D01*
X69499000Y-63969000D01*
X70651000Y-63969000D01*
X70651000Y-66271000D01*
X70651000Y-66271000D01*
G37*
G36*
X67701000Y-66271000D02*
G01*
X66549000Y-66271000D01*
X66549000Y-63969000D01*
X67701000Y-63969000D01*
X67701000Y-66271000D01*
X67701000Y-66271000D01*
G37*
G36*
X77109154Y-60926502D02*
G01*
X77489867Y-61002230D01*
X77899523Y-61171915D01*
X78268203Y-61418260D01*
X78581740Y-61731797D01*
X78828085Y-62100477D01*
X78997770Y-62510133D01*
X79084274Y-62945022D01*
X79084274Y-63388430D01*
X78997770Y-63823319D01*
X78828085Y-64232975D01*
X78581740Y-64601655D01*
X78268203Y-64915192D01*
X77899523Y-65161537D01*
X77489867Y-65331222D01*
X77109154Y-65406950D01*
X77054979Y-65417726D01*
X76611569Y-65417726D01*
X76557394Y-65406950D01*
X76176681Y-65331222D01*
X75767025Y-65161537D01*
X75398345Y-64915192D01*
X75084808Y-64601655D01*
X74838463Y-64232975D01*
X74668778Y-63823319D01*
X74582274Y-63388430D01*
X74582274Y-62945022D01*
X74668778Y-62510133D01*
X74838463Y-62100477D01*
X75084808Y-61731797D01*
X75398345Y-61418260D01*
X75767025Y-61171915D01*
X76176681Y-61002230D01*
X76557394Y-60926502D01*
X76611569Y-60915726D01*
X77054979Y-60915726D01*
X77109154Y-60926502D01*
X77109154Y-60926502D01*
G37*
G36*
X32326000Y-64951000D02*
G01*
X24674000Y-64951000D01*
X24674000Y-63749000D01*
X32326000Y-63749000D01*
X32326000Y-64951000D01*
X32326000Y-64951000D01*
G37*
G36*
X69151000Y-64171000D02*
G01*
X68049000Y-64171000D01*
X68049000Y-63069000D01*
X69151000Y-63069000D01*
X69151000Y-64171000D01*
X69151000Y-64171000D01*
G37*
G36*
X32326000Y-59251000D02*
G01*
X24674000Y-59251000D01*
X24674000Y-58049000D01*
X32326000Y-58049000D01*
X32326000Y-59251000D01*
X32326000Y-59251000D01*
G37*
G36*
X80724795Y-56680156D02*
G01*
X80831150Y-56701311D01*
X81031520Y-56784307D01*
X81211844Y-56904795D01*
X81365205Y-57058156D01*
X81485693Y-57238480D01*
X81568689Y-57438851D01*
X81611000Y-57651560D01*
X81611000Y-57868440D01*
X81568689Y-58081149D01*
X81485693Y-58281520D01*
X81365205Y-58461844D01*
X81211844Y-58615205D01*
X81031520Y-58735693D01*
X80931334Y-58777191D01*
X80831150Y-58818689D01*
X80724794Y-58839845D01*
X80618440Y-58861000D01*
X80401560Y-58861000D01*
X80295206Y-58839845D01*
X80188850Y-58818689D01*
X80088666Y-58777191D01*
X79988480Y-58735693D01*
X79808156Y-58615205D01*
X79654795Y-58461844D01*
X79534307Y-58281520D01*
X79451311Y-58081149D01*
X79409000Y-57868440D01*
X79409000Y-57651560D01*
X79451311Y-57438851D01*
X79534307Y-57238480D01*
X79654795Y-57058156D01*
X79808156Y-56904795D01*
X79988480Y-56784307D01*
X80188850Y-56701311D01*
X80295205Y-56680156D01*
X80401560Y-56659000D01*
X80618440Y-56659000D01*
X80724795Y-56680156D01*
X80724795Y-56680156D01*
G37*
G36*
X83270104Y-55609585D02*
G01*
X83438626Y-55679389D01*
X83590291Y-55780728D01*
X83719272Y-55909709D01*
X83820611Y-56061374D01*
X83890415Y-56229896D01*
X83926000Y-56408797D01*
X83926000Y-56591203D01*
X83890415Y-56770104D01*
X83820611Y-56938626D01*
X83719272Y-57090291D01*
X83590291Y-57219272D01*
X83438626Y-57320611D01*
X83270104Y-57390415D01*
X83091203Y-57426000D01*
X82908797Y-57426000D01*
X82729896Y-57390415D01*
X82561374Y-57320611D01*
X82409709Y-57219272D01*
X82280728Y-57090291D01*
X82179389Y-56938626D01*
X82109585Y-56770104D01*
X82074000Y-56591203D01*
X82074000Y-56408797D01*
X82109585Y-56229896D01*
X82179389Y-56061374D01*
X82280728Y-55909709D01*
X82409709Y-55780728D01*
X82561374Y-55679389D01*
X82729896Y-55609585D01*
X82908797Y-55574000D01*
X83091203Y-55574000D01*
X83270104Y-55609585D01*
X83270104Y-55609585D01*
G37*
G36*
X31039499Y-55478445D02*
G01*
X31076995Y-55489820D01*
X31111554Y-55508292D01*
X31141847Y-55533153D01*
X31166708Y-55563446D01*
X31185180Y-55598005D01*
X31196555Y-55635501D01*
X31201000Y-55680638D01*
X31201000Y-56319362D01*
X31196555Y-56364499D01*
X31185180Y-56401995D01*
X31166708Y-56436554D01*
X31141847Y-56466847D01*
X31111554Y-56491708D01*
X31076995Y-56510180D01*
X31039499Y-56521555D01*
X30994362Y-56526000D01*
X30255638Y-56526000D01*
X30210501Y-56521555D01*
X30173005Y-56510180D01*
X30138446Y-56491708D01*
X30108153Y-56466847D01*
X30083292Y-56436554D01*
X30064820Y-56401995D01*
X30053445Y-56364499D01*
X30049000Y-56319362D01*
X30049000Y-55680638D01*
X30053445Y-55635501D01*
X30064820Y-55598005D01*
X30083292Y-55563446D01*
X30108153Y-55533153D01*
X30138446Y-55508292D01*
X30173005Y-55489820D01*
X30210501Y-55478445D01*
X30255638Y-55474000D01*
X30994362Y-55474000D01*
X31039499Y-55478445D01*
X31039499Y-55478445D01*
G37*
G36*
X29289499Y-55478445D02*
G01*
X29326995Y-55489820D01*
X29361554Y-55508292D01*
X29391847Y-55533153D01*
X29416708Y-55563446D01*
X29435180Y-55598005D01*
X29446555Y-55635501D01*
X29451000Y-55680638D01*
X29451000Y-56319362D01*
X29446555Y-56364499D01*
X29435180Y-56401995D01*
X29416708Y-56436554D01*
X29391847Y-56466847D01*
X29361554Y-56491708D01*
X29326995Y-56510180D01*
X29289499Y-56521555D01*
X29244362Y-56526000D01*
X28505638Y-56526000D01*
X28460501Y-56521555D01*
X28423005Y-56510180D01*
X28388446Y-56491708D01*
X28358153Y-56466847D01*
X28333292Y-56436554D01*
X28314820Y-56401995D01*
X28303445Y-56364499D01*
X28299000Y-56319362D01*
X28299000Y-55680638D01*
X28303445Y-55635501D01*
X28314820Y-55598005D01*
X28333292Y-55563446D01*
X28358153Y-55533153D01*
X28388446Y-55508292D01*
X28423005Y-55489820D01*
X28460501Y-55478445D01*
X28505638Y-55474000D01*
X29244362Y-55474000D01*
X29289499Y-55478445D01*
X29289499Y-55478445D01*
G37*
G36*
X25704794Y-51170155D02*
G01*
X25811150Y-51191311D01*
X25911334Y-51232809D01*
X26011520Y-51274307D01*
X26191844Y-51394795D01*
X26345205Y-51548156D01*
X26465693Y-51728480D01*
X26503855Y-51820611D01*
X26540383Y-51908797D01*
X26548689Y-51928851D01*
X26591000Y-52141560D01*
X26591000Y-52358440D01*
X26548689Y-52571149D01*
X26465693Y-52771520D01*
X26345205Y-52951844D01*
X26191844Y-53105205D01*
X26011520Y-53225693D01*
X25911334Y-53267191D01*
X25811150Y-53308689D01*
X25704795Y-53329844D01*
X25598440Y-53351000D01*
X25381560Y-53351000D01*
X25275205Y-53329844D01*
X25168850Y-53308689D01*
X25068666Y-53267191D01*
X24968480Y-53225693D01*
X24788156Y-53105205D01*
X24634795Y-52951844D01*
X24514307Y-52771520D01*
X24431311Y-52571149D01*
X24389000Y-52358440D01*
X24389000Y-52141560D01*
X24431311Y-51928851D01*
X24439618Y-51908797D01*
X24476145Y-51820611D01*
X24514307Y-51728480D01*
X24634795Y-51548156D01*
X24788156Y-51394795D01*
X24968480Y-51274307D01*
X25068666Y-51232809D01*
X25168850Y-51191311D01*
X25275206Y-51170155D01*
X25381560Y-51149000D01*
X25598440Y-51149000D01*
X25704794Y-51170155D01*
X25704794Y-51170155D01*
G37*
G36*
X83270104Y-51109585D02*
G01*
X83438626Y-51179389D01*
X83590291Y-51280728D01*
X83719272Y-51409709D01*
X83820611Y-51561374D01*
X83890415Y-51729896D01*
X83926000Y-51908797D01*
X83926000Y-52091203D01*
X83890415Y-52270104D01*
X83820611Y-52438626D01*
X83719272Y-52590291D01*
X83590291Y-52719272D01*
X83438626Y-52820611D01*
X83270104Y-52890415D01*
X83091203Y-52926000D01*
X82908797Y-52926000D01*
X82729896Y-52890415D01*
X82561374Y-52820611D01*
X82409709Y-52719272D01*
X82280728Y-52590291D01*
X82179389Y-52438626D01*
X82109585Y-52270104D01*
X82074000Y-52091203D01*
X82074000Y-51908797D01*
X82109585Y-51729896D01*
X82179389Y-51561374D01*
X82280728Y-51409709D01*
X82409709Y-51280728D01*
X82561374Y-51179389D01*
X82729896Y-51109585D01*
X82908797Y-51074000D01*
X83091203Y-51074000D01*
X83270104Y-51109585D01*
X83270104Y-51109585D01*
G37*
G36*
X23270104Y-50109585D02*
G01*
X23438626Y-50179389D01*
X23590291Y-50280728D01*
X23719272Y-50409709D01*
X23820611Y-50561374D01*
X23890415Y-50729896D01*
X23926000Y-50908797D01*
X23926000Y-51091203D01*
X23890415Y-51270104D01*
X23820611Y-51438626D01*
X23719272Y-51590291D01*
X23590291Y-51719272D01*
X23438626Y-51820611D01*
X23270104Y-51890415D01*
X23091203Y-51926000D01*
X22908797Y-51926000D01*
X22729896Y-51890415D01*
X22561374Y-51820611D01*
X22409709Y-51719272D01*
X22280728Y-51590291D01*
X22179389Y-51438626D01*
X22109585Y-51270104D01*
X22074000Y-51091203D01*
X22074000Y-50908797D01*
X22109585Y-50729896D01*
X22179389Y-50561374D01*
X22280728Y-50409709D01*
X22409709Y-50280728D01*
X22561374Y-50179389D01*
X22729896Y-50109585D01*
X22908797Y-50074000D01*
X23091203Y-50074000D01*
X23270104Y-50109585D01*
X23270104Y-50109585D01*
G37*
G36*
X80724794Y-49670155D02*
G01*
X80831150Y-49691311D01*
X80931334Y-49732809D01*
X81031520Y-49774307D01*
X81211844Y-49894795D01*
X81365205Y-50048156D01*
X81485693Y-50228480D01*
X81485693Y-50228481D01*
X81568689Y-50428850D01*
X81611000Y-50641561D01*
X81611000Y-50858439D01*
X81568689Y-51071150D01*
X81552768Y-51109586D01*
X81485693Y-51271520D01*
X81365205Y-51451844D01*
X81211844Y-51605205D01*
X81031520Y-51725693D01*
X80931334Y-51767191D01*
X80831150Y-51808689D01*
X80771214Y-51820611D01*
X80618440Y-51851000D01*
X80401560Y-51851000D01*
X80248786Y-51820611D01*
X80188850Y-51808689D01*
X79988480Y-51725693D01*
X79808156Y-51605205D01*
X79654795Y-51451844D01*
X79534307Y-51271520D01*
X79467232Y-51109586D01*
X79451311Y-51071150D01*
X79409000Y-50858439D01*
X79409000Y-50641561D01*
X79451311Y-50428850D01*
X79534307Y-50228481D01*
X79534307Y-50228480D01*
X79654795Y-50048156D01*
X79808156Y-49894795D01*
X79988480Y-49774307D01*
X80188850Y-49691311D01*
X80295205Y-49670156D01*
X80401560Y-49649000D01*
X80618440Y-49649000D01*
X80724794Y-49670155D01*
X80724794Y-49670155D01*
G37*
G36*
X23270104Y-45609585D02*
G01*
X23438626Y-45679389D01*
X23590291Y-45780728D01*
X23719272Y-45909709D01*
X23820611Y-46061374D01*
X23890415Y-46229896D01*
X23926000Y-46408797D01*
X23926000Y-46591203D01*
X23890415Y-46770104D01*
X23820611Y-46938626D01*
X23719272Y-47090291D01*
X23590291Y-47219272D01*
X23438626Y-47320611D01*
X23270104Y-47390415D01*
X23091203Y-47426000D01*
X22908797Y-47426000D01*
X22729896Y-47390415D01*
X22561374Y-47320611D01*
X22409709Y-47219272D01*
X22280728Y-47090291D01*
X22179389Y-46938626D01*
X22109585Y-46770104D01*
X22074000Y-46591203D01*
X22074000Y-46408797D01*
X22109585Y-46229896D01*
X22179389Y-46061374D01*
X22280728Y-45909709D01*
X22409709Y-45780728D01*
X22561374Y-45679389D01*
X22729896Y-45609585D01*
X22908797Y-45574000D01*
X23091203Y-45574000D01*
X23270104Y-45609585D01*
X23270104Y-45609585D01*
G37*
G36*
X80724794Y-44680155D02*
G01*
X80831150Y-44701311D01*
X81031520Y-44784307D01*
X81211844Y-44904795D01*
X81365205Y-45058156D01*
X81485693Y-45238480D01*
X81485693Y-45238481D01*
X81567423Y-45435793D01*
X81568689Y-45438851D01*
X81602651Y-45609585D01*
X81611000Y-45651561D01*
X81611000Y-45868439D01*
X81572623Y-46061375D01*
X81568689Y-46081149D01*
X81485693Y-46281520D01*
X81365205Y-46461844D01*
X81211844Y-46615205D01*
X81031520Y-46735693D01*
X80948444Y-46770104D01*
X80831150Y-46818689D01*
X80724794Y-46839845D01*
X80618440Y-46861000D01*
X80401560Y-46861000D01*
X80295206Y-46839845D01*
X80188850Y-46818689D01*
X80071556Y-46770104D01*
X79988480Y-46735693D01*
X79808156Y-46615205D01*
X79654795Y-46461844D01*
X79534307Y-46281520D01*
X79451311Y-46081149D01*
X79447378Y-46061375D01*
X79409000Y-45868439D01*
X79409000Y-45651561D01*
X79417350Y-45609585D01*
X79451311Y-45438851D01*
X79452578Y-45435793D01*
X79534307Y-45238481D01*
X79534307Y-45238480D01*
X79654795Y-45058156D01*
X79808156Y-44904795D01*
X79988480Y-44784307D01*
X80188850Y-44701311D01*
X80295205Y-44680156D01*
X80401560Y-44659000D01*
X80618440Y-44659000D01*
X80724794Y-44680155D01*
X80724794Y-44680155D01*
G37*
G36*
X25704794Y-44160155D02*
G01*
X25811150Y-44181311D01*
X26011520Y-44264307D01*
X26191844Y-44384795D01*
X26345205Y-44538156D01*
X26465693Y-44718480D01*
X26465693Y-44718481D01*
X26548689Y-44918850D01*
X26552623Y-44938626D01*
X26591000Y-45131560D01*
X26591000Y-45348440D01*
X26548689Y-45561149D01*
X26465693Y-45761520D01*
X26345205Y-45941844D01*
X26191844Y-46095205D01*
X26011520Y-46215693D01*
X25977228Y-46229897D01*
X25811150Y-46298689D01*
X25704795Y-46319844D01*
X25598440Y-46341000D01*
X25381560Y-46341000D01*
X25275205Y-46319844D01*
X25168850Y-46298689D01*
X25002772Y-46229897D01*
X24968480Y-46215693D01*
X24788156Y-46095205D01*
X24634795Y-45941844D01*
X24514307Y-45761520D01*
X24431311Y-45561149D01*
X24389000Y-45348440D01*
X24389000Y-45131560D01*
X24427377Y-44938626D01*
X24431311Y-44918850D01*
X24514307Y-44718481D01*
X24514307Y-44718480D01*
X24634795Y-44538156D01*
X24788156Y-44384795D01*
X24968480Y-44264307D01*
X25168850Y-44181311D01*
X25275206Y-44160155D01*
X25381560Y-44139000D01*
X25598440Y-44139000D01*
X25704794Y-44160155D01*
X25704794Y-44160155D01*
G37*
G36*
X68506032Y-41364207D02*
G01*
X68704146Y-41424305D01*
X68704149Y-41424306D01*
X68771030Y-41460055D01*
X68886729Y-41521897D01*
X69046765Y-41653235D01*
X69178103Y-41813271D01*
X69192360Y-41839945D01*
X69275694Y-41995851D01*
X69275695Y-41995854D01*
X69335793Y-42193968D01*
X69351000Y-42348370D01*
X69351000Y-44451630D01*
X69335793Y-44606032D01*
X69281713Y-44784307D01*
X69275694Y-44804149D01*
X69223939Y-44900975D01*
X69178103Y-44986729D01*
X69046765Y-45146765D01*
X68886729Y-45278103D01*
X68807201Y-45320611D01*
X68704148Y-45375694D01*
X68704145Y-45375695D01*
X68506031Y-45435793D01*
X68300000Y-45456085D01*
X68093968Y-45435793D01*
X67895854Y-45375695D01*
X67895851Y-45375694D01*
X67792798Y-45320611D01*
X67713271Y-45278103D01*
X67553235Y-45146765D01*
X67421897Y-44986729D01*
X67324307Y-44804149D01*
X67324306Y-44804148D01*
X67313979Y-44770104D01*
X67264207Y-44606031D01*
X67249000Y-44451629D01*
X67249001Y-42348370D01*
X67264208Y-42193968D01*
X67324306Y-41995854D01*
X67324307Y-41995851D01*
X67407641Y-41839945D01*
X67421898Y-41813271D01*
X67553236Y-41653235D01*
X67713272Y-41521897D01*
X67828971Y-41460055D01*
X67895852Y-41424306D01*
X67895855Y-41424305D01*
X68093969Y-41364207D01*
X68300000Y-41343915D01*
X68506032Y-41364207D01*
X68506032Y-41364207D01*
G37*
G36*
X83270104Y-43609585D02*
G01*
X83438626Y-43679389D01*
X83590291Y-43780728D01*
X83719272Y-43909709D01*
X83820611Y-44061374D01*
X83890415Y-44229896D01*
X83926000Y-44408797D01*
X83926000Y-44591203D01*
X83890415Y-44770104D01*
X83820611Y-44938626D01*
X83719272Y-45090291D01*
X83590291Y-45219272D01*
X83438626Y-45320611D01*
X83270104Y-45390415D01*
X83091203Y-45426000D01*
X82908797Y-45426000D01*
X82729896Y-45390415D01*
X82561374Y-45320611D01*
X82409709Y-45219272D01*
X82280728Y-45090291D01*
X82179389Y-44938626D01*
X82109585Y-44770104D01*
X82074000Y-44591203D01*
X82074000Y-44408797D01*
X82109585Y-44229896D01*
X82179389Y-44061374D01*
X82280728Y-43909709D01*
X82409709Y-43780728D01*
X82561374Y-43679389D01*
X82729896Y-43609585D01*
X82908797Y-43574000D01*
X83091203Y-43574000D01*
X83270104Y-43609585D01*
X83270104Y-43609585D01*
G37*
G36*
X27275880Y-37759776D02*
G01*
X27656593Y-37835504D01*
X28066249Y-38005189D01*
X28434929Y-38251534D01*
X28748466Y-38565071D01*
X28994811Y-38933751D01*
X29164496Y-39343407D01*
X29251000Y-39778296D01*
X29251000Y-40221704D01*
X29164496Y-40656593D01*
X28994811Y-41066249D01*
X28748466Y-41434929D01*
X28434929Y-41748466D01*
X28066249Y-41994811D01*
X27656593Y-42164496D01*
X27275880Y-42240224D01*
X27221705Y-42251000D01*
X26778295Y-42251000D01*
X26724120Y-42240224D01*
X26343407Y-42164496D01*
X25933751Y-41994811D01*
X25565071Y-41748466D01*
X25251534Y-41434929D01*
X25005189Y-41066249D01*
X24835504Y-40656593D01*
X24749000Y-40221704D01*
X24749000Y-39778296D01*
X24835504Y-39343407D01*
X25005189Y-38933751D01*
X25251534Y-38565071D01*
X25565071Y-38251534D01*
X25933751Y-38005189D01*
X26343407Y-37835504D01*
X26724120Y-37759776D01*
X26778295Y-37749000D01*
X27221705Y-37749000D01*
X27275880Y-37759776D01*
X27275880Y-37759776D01*
G37*
G36*
X83270104Y-39109585D02*
G01*
X83438626Y-39179389D01*
X83590291Y-39280728D01*
X83719272Y-39409709D01*
X83820611Y-39561374D01*
X83890415Y-39729896D01*
X83926000Y-39908797D01*
X83926000Y-40091203D01*
X83890415Y-40270104D01*
X83820611Y-40438626D01*
X83719272Y-40590291D01*
X83590291Y-40719272D01*
X83438626Y-40820611D01*
X83270104Y-40890415D01*
X83091203Y-40926000D01*
X82908797Y-40926000D01*
X82729896Y-40890415D01*
X82561374Y-40820611D01*
X82409709Y-40719272D01*
X82280728Y-40590291D01*
X82179389Y-40438626D01*
X82109585Y-40270104D01*
X82074000Y-40091203D01*
X82074000Y-39908797D01*
X82109585Y-39729896D01*
X82179389Y-39561374D01*
X82280728Y-39409709D01*
X82409709Y-39280728D01*
X82561374Y-39179389D01*
X82729896Y-39109585D01*
X82908797Y-39074000D01*
X83091203Y-39074000D01*
X83270104Y-39109585D01*
X83270104Y-39109585D01*
G37*
G36*
X80724794Y-37670155D02*
G01*
X80831150Y-37691311D01*
X80931334Y-37732809D01*
X81031520Y-37774307D01*
X81211844Y-37894795D01*
X81365205Y-38048156D01*
X81485693Y-38228480D01*
X81485693Y-38228481D01*
X81552388Y-38389495D01*
X81568689Y-38428851D01*
X81611000Y-38641560D01*
X81611000Y-38858440D01*
X81596019Y-38933754D01*
X81568689Y-39071150D01*
X81552768Y-39109586D01*
X81485693Y-39271520D01*
X81365205Y-39451844D01*
X81211844Y-39605205D01*
X81031520Y-39725693D01*
X80986410Y-39744378D01*
X80831150Y-39808689D01*
X80724795Y-39829844D01*
X80618440Y-39851000D01*
X80401560Y-39851000D01*
X80295205Y-39829844D01*
X80188850Y-39808689D01*
X80033590Y-39744378D01*
X79988480Y-39725693D01*
X79808156Y-39605205D01*
X79654795Y-39451844D01*
X79534307Y-39271520D01*
X79467232Y-39109586D01*
X79451311Y-39071150D01*
X79423981Y-38933754D01*
X79409000Y-38858440D01*
X79409000Y-38641560D01*
X79451311Y-38428851D01*
X79467613Y-38389495D01*
X79534307Y-38228481D01*
X79534307Y-38228480D01*
X79654795Y-38048156D01*
X79808156Y-37894795D01*
X79988480Y-37774307D01*
X80088666Y-37732809D01*
X80188850Y-37691311D01*
X80295206Y-37670155D01*
X80401560Y-37649000D01*
X80618440Y-37649000D01*
X80724794Y-37670155D01*
X80724794Y-37670155D01*
G37*
G36*
X61841000Y-37876000D02*
G01*
X59739000Y-37876000D01*
X59739000Y-34774000D01*
X61841000Y-34774000D01*
X61841000Y-37876000D01*
X61841000Y-37876000D01*
G37*
G36*
X46261000Y-37876000D02*
G01*
X44159000Y-37876000D01*
X44159000Y-34774000D01*
X46261000Y-34774000D01*
X46261000Y-37876000D01*
X46261000Y-37876000D01*
G37*
G36*
X83051000Y-36401000D02*
G01*
X80449000Y-36401000D01*
X80449000Y-35299000D01*
X83051000Y-35299000D01*
X83051000Y-36401000D01*
X83051000Y-36401000D01*
G37*
G36*
X67551000Y-36401000D02*
G01*
X64949000Y-36401000D01*
X64949000Y-35299000D01*
X67551000Y-35299000D01*
X67551000Y-36401000D01*
X67551000Y-36401000D01*
G37*
G36*
X63864499Y-34803445D02*
G01*
X63901995Y-34814820D01*
X63936554Y-34833292D01*
X63966847Y-34858153D01*
X63991708Y-34888446D01*
X64010180Y-34923005D01*
X64021555Y-34960501D01*
X64026000Y-35005638D01*
X64026000Y-35744362D01*
X64021555Y-35789499D01*
X64010180Y-35826995D01*
X63991708Y-35861554D01*
X63966847Y-35891847D01*
X63936554Y-35916708D01*
X63901995Y-35935180D01*
X63864499Y-35946555D01*
X63819362Y-35951000D01*
X63180638Y-35951000D01*
X63135501Y-35946555D01*
X63098005Y-35935180D01*
X63063446Y-35916708D01*
X63033153Y-35891847D01*
X63008292Y-35861554D01*
X62989820Y-35826995D01*
X62978445Y-35789499D01*
X62974000Y-35744362D01*
X62974000Y-35005638D01*
X62978445Y-34960501D01*
X62989820Y-34923005D01*
X63008292Y-34888446D01*
X63033153Y-34858153D01*
X63063446Y-34833292D01*
X63098005Y-34814820D01*
X63135501Y-34803445D01*
X63180638Y-34799000D01*
X63819362Y-34799000D01*
X63864499Y-34803445D01*
X63864499Y-34803445D01*
G37*
G36*
X59451000Y-34676000D02*
G01*
X46549000Y-34676000D01*
X46549000Y-33324000D01*
X59451000Y-33324000D01*
X59451000Y-34676000D01*
X59451000Y-34676000D01*
G37*
G36*
X63864499Y-33053445D02*
G01*
X63901995Y-33064820D01*
X63936554Y-33083292D01*
X63966847Y-33108153D01*
X63991708Y-33138446D01*
X64010180Y-33173005D01*
X64021555Y-33210501D01*
X64026000Y-33255638D01*
X64026000Y-33994362D01*
X64021555Y-34039499D01*
X64010180Y-34076995D01*
X63991708Y-34111554D01*
X63966847Y-34141847D01*
X63936554Y-34166708D01*
X63901995Y-34185180D01*
X63864499Y-34196555D01*
X63819362Y-34201000D01*
X63180638Y-34201000D01*
X63135501Y-34196555D01*
X63098005Y-34185180D01*
X63063446Y-34166708D01*
X63033153Y-34141847D01*
X63008292Y-34111554D01*
X62989820Y-34076995D01*
X62978445Y-34039499D01*
X62974000Y-33994362D01*
X62974000Y-33255638D01*
X62978445Y-33210501D01*
X62989820Y-33173005D01*
X63008292Y-33138446D01*
X63033153Y-33108153D01*
X63063446Y-33083292D01*
X63098005Y-33064820D01*
X63135501Y-33053445D01*
X63180638Y-33049000D01*
X63819362Y-33049000D01*
X63864499Y-33053445D01*
X63864499Y-33053445D01*
G37*
G36*
X83051000Y-33861000D02*
G01*
X80449000Y-33861000D01*
X80449000Y-32759000D01*
X83051000Y-32759000D01*
X83051000Y-33861000D01*
X83051000Y-33861000D01*
G37*
G36*
X67551000Y-33861000D02*
G01*
X64949000Y-33861000D01*
X64949000Y-32759000D01*
X67551000Y-32759000D01*
X67551000Y-33861000D01*
X67551000Y-33861000D01*
G37*
G36*
X56351000Y-31651000D02*
G01*
X55349000Y-31651000D01*
X55349000Y-30349000D01*
X56351000Y-30349000D01*
X56351000Y-31651000D01*
X56351000Y-31651000D01*
G37*
G36*
X59651000Y-31651000D02*
G01*
X58649000Y-31651000D01*
X58649000Y-30349000D01*
X59651000Y-30349000D01*
X59651000Y-31651000D01*
X59651000Y-31651000D01*
G37*
G36*
X48539499Y-30478445D02*
G01*
X48576995Y-30489820D01*
X48611554Y-30508292D01*
X48641847Y-30533153D01*
X48666708Y-30563446D01*
X48685180Y-30598005D01*
X48696555Y-30635501D01*
X48701000Y-30680638D01*
X48701000Y-31319362D01*
X48696555Y-31364499D01*
X48685180Y-31401995D01*
X48666708Y-31436554D01*
X48641847Y-31466847D01*
X48611554Y-31491708D01*
X48576995Y-31510180D01*
X48539499Y-31521555D01*
X48494362Y-31526000D01*
X47755638Y-31526000D01*
X47710501Y-31521555D01*
X47673005Y-31510180D01*
X47638446Y-31491708D01*
X47608153Y-31466847D01*
X47583292Y-31436554D01*
X47564820Y-31401995D01*
X47553445Y-31364499D01*
X47549000Y-31319362D01*
X47549000Y-30680638D01*
X47553445Y-30635501D01*
X47564820Y-30598005D01*
X47583292Y-30563446D01*
X47608153Y-30533153D01*
X47638446Y-30508292D01*
X47673005Y-30489820D01*
X47710501Y-30478445D01*
X47755638Y-30474000D01*
X48494362Y-30474000D01*
X48539499Y-30478445D01*
X48539499Y-30478445D01*
G37*
G36*
X50289499Y-30478445D02*
G01*
X50326995Y-30489820D01*
X50361554Y-30508292D01*
X50391847Y-30533153D01*
X50416708Y-30563446D01*
X50435180Y-30598005D01*
X50446555Y-30635501D01*
X50451000Y-30680638D01*
X50451000Y-31319362D01*
X50446555Y-31364499D01*
X50435180Y-31401995D01*
X50416708Y-31436554D01*
X50391847Y-31466847D01*
X50361554Y-31491708D01*
X50326995Y-31510180D01*
X50289499Y-31521555D01*
X50244362Y-31526000D01*
X49505638Y-31526000D01*
X49460501Y-31521555D01*
X49423005Y-31510180D01*
X49388446Y-31491708D01*
X49358153Y-31466847D01*
X49333292Y-31436554D01*
X49314820Y-31401995D01*
X49303445Y-31364499D01*
X49299000Y-31319362D01*
X49299000Y-30680638D01*
X49303445Y-30635501D01*
X49314820Y-30598005D01*
X49333292Y-30563446D01*
X49358153Y-30533153D01*
X49388446Y-30508292D01*
X49423005Y-30489820D01*
X49460501Y-30478445D01*
X49505638Y-30474000D01*
X50244362Y-30474000D01*
X50289499Y-30478445D01*
X50289499Y-30478445D01*
G37*
G36*
X54289499Y-30478445D02*
G01*
X54326995Y-30489820D01*
X54361554Y-30508292D01*
X54391847Y-30533153D01*
X54416708Y-30563446D01*
X54435180Y-30598005D01*
X54446555Y-30635501D01*
X54451000Y-30680638D01*
X54451000Y-31319362D01*
X54446555Y-31364499D01*
X54435180Y-31401995D01*
X54416708Y-31436554D01*
X54391847Y-31466847D01*
X54361554Y-31491708D01*
X54326995Y-31510180D01*
X54289499Y-31521555D01*
X54244362Y-31526000D01*
X53505638Y-31526000D01*
X53460501Y-31521555D01*
X53423005Y-31510180D01*
X53388446Y-31491708D01*
X53358153Y-31466847D01*
X53333292Y-31436554D01*
X53314820Y-31401995D01*
X53303445Y-31364499D01*
X53299000Y-31319362D01*
X53299000Y-30680638D01*
X53303445Y-30635501D01*
X53314820Y-30598005D01*
X53333292Y-30563446D01*
X53358153Y-30533153D01*
X53388446Y-30508292D01*
X53423005Y-30489820D01*
X53460501Y-30478445D01*
X53505638Y-30474000D01*
X54244362Y-30474000D01*
X54289499Y-30478445D01*
X54289499Y-30478445D01*
G37*
G36*
X52539499Y-30478445D02*
G01*
X52576995Y-30489820D01*
X52611554Y-30508292D01*
X52641847Y-30533153D01*
X52666708Y-30563446D01*
X52685180Y-30598005D01*
X52696555Y-30635501D01*
X52701000Y-30680638D01*
X52701000Y-31319362D01*
X52696555Y-31364499D01*
X52685180Y-31401995D01*
X52666708Y-31436554D01*
X52641847Y-31466847D01*
X52611554Y-31491708D01*
X52576995Y-31510180D01*
X52539499Y-31521555D01*
X52494362Y-31526000D01*
X51755638Y-31526000D01*
X51710501Y-31521555D01*
X51673005Y-31510180D01*
X51638446Y-31491708D01*
X51608153Y-31466847D01*
X51583292Y-31436554D01*
X51564820Y-31401995D01*
X51553445Y-31364499D01*
X51549000Y-31319362D01*
X51549000Y-30680638D01*
X51553445Y-30635501D01*
X51564820Y-30598005D01*
X51583292Y-30563446D01*
X51608153Y-30533153D01*
X51638446Y-30508292D01*
X51673005Y-30489820D01*
X51710501Y-30478445D01*
X51755638Y-30474000D01*
X52494362Y-30474000D01*
X52539499Y-30478445D01*
X52539499Y-30478445D01*
G37*
G36*
X37906032Y-27364207D02*
G01*
X38104146Y-27424305D01*
X38104149Y-27424306D01*
X38183737Y-27466847D01*
X38286729Y-27521897D01*
X38446765Y-27653235D01*
X38578103Y-27813271D01*
X38588804Y-27833292D01*
X38675694Y-27995851D01*
X38675695Y-27995854D01*
X38735793Y-28193968D01*
X38751000Y-28348370D01*
X38751000Y-30451630D01*
X38735793Y-30606032D01*
X38680397Y-30788646D01*
X38675694Y-30804149D01*
X38645010Y-30861554D01*
X38578103Y-30986729D01*
X38446765Y-31146765D01*
X38286729Y-31278103D01*
X38206473Y-31321000D01*
X38104148Y-31375694D01*
X38104145Y-31375695D01*
X37906031Y-31435793D01*
X37700000Y-31456085D01*
X37493968Y-31435793D01*
X37295854Y-31375695D01*
X37295851Y-31375694D01*
X37181008Y-31314309D01*
X37113271Y-31278103D01*
X36953235Y-31146765D01*
X36821897Y-30986729D01*
X36724307Y-30804149D01*
X36724306Y-30804148D01*
X36691483Y-30695947D01*
X36664207Y-30606031D01*
X36649000Y-30451629D01*
X36649001Y-28348370D01*
X36664208Y-28193968D01*
X36724306Y-27995854D01*
X36724307Y-27995851D01*
X36811197Y-27833292D01*
X36821898Y-27813271D01*
X36953236Y-27653235D01*
X37113272Y-27521897D01*
X37216264Y-27466847D01*
X37295852Y-27424306D01*
X37295855Y-27424305D01*
X37493969Y-27364207D01*
X37700000Y-27343915D01*
X37906032Y-27364207D01*
X37906032Y-27364207D01*
G37*
G36*
X31251000Y-31351000D02*
G01*
X29149000Y-31351000D01*
X29149000Y-29649000D01*
X31251000Y-29649000D01*
X31251000Y-31351000D01*
X31251000Y-31351000D01*
G37*
G36*
X25851000Y-31351000D02*
G01*
X23749000Y-31351000D01*
X23749000Y-29649000D01*
X25851000Y-29649000D01*
X25851000Y-31351000D01*
X25851000Y-31351000D01*
G37*
G36*
X67551000Y-31321000D02*
G01*
X64949000Y-31321000D01*
X64949000Y-30219000D01*
X67551000Y-30219000D01*
X67551000Y-31321000D01*
X67551000Y-31321000D01*
G37*
G36*
X83051000Y-31321000D02*
G01*
X80449000Y-31321000D01*
X80449000Y-30219000D01*
X83051000Y-30219000D01*
X83051000Y-31321000D01*
X83051000Y-31321000D01*
G37*
G36*
X61864499Y-29803445D02*
G01*
X61901995Y-29814820D01*
X61936554Y-29833292D01*
X61966847Y-29858153D01*
X61991708Y-29888446D01*
X62010180Y-29923005D01*
X62021555Y-29960501D01*
X62026000Y-30005638D01*
X62026000Y-30744362D01*
X62021555Y-30789499D01*
X62010180Y-30826995D01*
X61991708Y-30861554D01*
X61966847Y-30891847D01*
X61936554Y-30916708D01*
X61901995Y-30935180D01*
X61864499Y-30946555D01*
X61819362Y-30951000D01*
X61180638Y-30951000D01*
X61135501Y-30946555D01*
X61098005Y-30935180D01*
X61063446Y-30916708D01*
X61033153Y-30891847D01*
X61008292Y-30861554D01*
X60989820Y-30826995D01*
X60978445Y-30789499D01*
X60974000Y-30744362D01*
X60974000Y-30005638D01*
X60978445Y-29960501D01*
X60989820Y-29923005D01*
X61008292Y-29888446D01*
X61033153Y-29858153D01*
X61063446Y-29833292D01*
X61098005Y-29814820D01*
X61135501Y-29803445D01*
X61180638Y-29799000D01*
X61819362Y-29799000D01*
X61864499Y-29803445D01*
X61864499Y-29803445D01*
G37*
G36*
X63864499Y-29803445D02*
G01*
X63901995Y-29814820D01*
X63936554Y-29833292D01*
X63966847Y-29858153D01*
X63991708Y-29888446D01*
X64010180Y-29923005D01*
X64021555Y-29960501D01*
X64026000Y-30005638D01*
X64026000Y-30744362D01*
X64021555Y-30789499D01*
X64010180Y-30826995D01*
X63991708Y-30861554D01*
X63966847Y-30891847D01*
X63936554Y-30916708D01*
X63901995Y-30935180D01*
X63864499Y-30946555D01*
X63819362Y-30951000D01*
X63180638Y-30951000D01*
X63135501Y-30946555D01*
X63098005Y-30935180D01*
X63063446Y-30916708D01*
X63033153Y-30891847D01*
X63008292Y-30861554D01*
X62989820Y-30826995D01*
X62978445Y-30789499D01*
X62974000Y-30744362D01*
X62974000Y-30005638D01*
X62978445Y-29960501D01*
X62989820Y-29923005D01*
X63008292Y-29888446D01*
X63033153Y-29858153D01*
X63063446Y-29833292D01*
X63098005Y-29814820D01*
X63135501Y-29803445D01*
X63180638Y-29799000D01*
X63819362Y-29799000D01*
X63864499Y-29803445D01*
X63864499Y-29803445D01*
G37*
G36*
X84864499Y-29553445D02*
G01*
X84901995Y-29564820D01*
X84936554Y-29583292D01*
X84966847Y-29608153D01*
X84991708Y-29638446D01*
X85010180Y-29673005D01*
X85021555Y-29710501D01*
X85026000Y-29755638D01*
X85026000Y-30494362D01*
X85021555Y-30539499D01*
X85010180Y-30576995D01*
X84991708Y-30611554D01*
X84966847Y-30641847D01*
X84936554Y-30666708D01*
X84901995Y-30685180D01*
X84864499Y-30696555D01*
X84819362Y-30701000D01*
X84180638Y-30701000D01*
X84135501Y-30696555D01*
X84098005Y-30685180D01*
X84063446Y-30666708D01*
X84033153Y-30641847D01*
X84008292Y-30611554D01*
X83989820Y-30576995D01*
X83978445Y-30539499D01*
X83974000Y-30494362D01*
X83974000Y-29755638D01*
X83978445Y-29710501D01*
X83989820Y-29673005D01*
X84008292Y-29638446D01*
X84033153Y-29608153D01*
X84063446Y-29583292D01*
X84098005Y-29564820D01*
X84135501Y-29553445D01*
X84180638Y-29549000D01*
X84819362Y-29549000D01*
X84864499Y-29553445D01*
X84864499Y-29553445D01*
G37*
G36*
X63864499Y-28053445D02*
G01*
X63901995Y-28064820D01*
X63936554Y-28083292D01*
X63966847Y-28108153D01*
X63991708Y-28138446D01*
X64010180Y-28173005D01*
X64021555Y-28210501D01*
X64026000Y-28255638D01*
X64026000Y-28994362D01*
X64021555Y-29039499D01*
X64010180Y-29076995D01*
X63991708Y-29111554D01*
X63966847Y-29141847D01*
X63936554Y-29166708D01*
X63901995Y-29185180D01*
X63864499Y-29196555D01*
X63819362Y-29201000D01*
X63180638Y-29201000D01*
X63135501Y-29196555D01*
X63098005Y-29185180D01*
X63063446Y-29166708D01*
X63033153Y-29141847D01*
X63008292Y-29111554D01*
X62989820Y-29076995D01*
X62978445Y-29039499D01*
X62974000Y-28994362D01*
X62974000Y-28255638D01*
X62978445Y-28210501D01*
X62989820Y-28173005D01*
X63008292Y-28138446D01*
X63033153Y-28108153D01*
X63063446Y-28083292D01*
X63098005Y-28064820D01*
X63135501Y-28053445D01*
X63180638Y-28049000D01*
X63819362Y-28049000D01*
X63864499Y-28053445D01*
X63864499Y-28053445D01*
G37*
G36*
X61864499Y-28053445D02*
G01*
X61901995Y-28064820D01*
X61936554Y-28083292D01*
X61966847Y-28108153D01*
X61991708Y-28138446D01*
X62010180Y-28173005D01*
X62021555Y-28210501D01*
X62026000Y-28255638D01*
X62026000Y-28994362D01*
X62021555Y-29039499D01*
X62010180Y-29076995D01*
X61991708Y-29111554D01*
X61966847Y-29141847D01*
X61936554Y-29166708D01*
X61901995Y-29185180D01*
X61864499Y-29196555D01*
X61819362Y-29201000D01*
X61180638Y-29201000D01*
X61135501Y-29196555D01*
X61098005Y-29185180D01*
X61063446Y-29166708D01*
X61033153Y-29141847D01*
X61008292Y-29111554D01*
X60989820Y-29076995D01*
X60978445Y-29039499D01*
X60974000Y-28994362D01*
X60974000Y-28255638D01*
X60978445Y-28210501D01*
X60989820Y-28173005D01*
X61008292Y-28138446D01*
X61033153Y-28108153D01*
X61063446Y-28083292D01*
X61098005Y-28064820D01*
X61135501Y-28053445D01*
X61180638Y-28049000D01*
X61819362Y-28049000D01*
X61864499Y-28053445D01*
X61864499Y-28053445D01*
G37*
G36*
X84864499Y-27803445D02*
G01*
X84901995Y-27814820D01*
X84936554Y-27833292D01*
X84966847Y-27858153D01*
X84991708Y-27888446D01*
X85010180Y-27923005D01*
X85021555Y-27960501D01*
X85026000Y-28005638D01*
X85026000Y-28744362D01*
X85021555Y-28789499D01*
X85010180Y-28826995D01*
X84991708Y-28861554D01*
X84966847Y-28891847D01*
X84936554Y-28916708D01*
X84901995Y-28935180D01*
X84864499Y-28946555D01*
X84819362Y-28951000D01*
X84180638Y-28951000D01*
X84135501Y-28946555D01*
X84098005Y-28935180D01*
X84063446Y-28916708D01*
X84033153Y-28891847D01*
X84008292Y-28861554D01*
X83989820Y-28826995D01*
X83978445Y-28789499D01*
X83974000Y-28744362D01*
X83974000Y-28005638D01*
X83978445Y-27960501D01*
X83989820Y-27923005D01*
X84008292Y-27888446D01*
X84033153Y-27858153D01*
X84063446Y-27833292D01*
X84098005Y-27814820D01*
X84135501Y-27803445D01*
X84180638Y-27799000D01*
X84819362Y-27799000D01*
X84864499Y-27803445D01*
X84864499Y-27803445D01*
G37*
G36*
X83051000Y-28781000D02*
G01*
X80449000Y-28781000D01*
X80449000Y-27679000D01*
X83051000Y-27679000D01*
X83051000Y-28781000D01*
X83051000Y-28781000D01*
G37*
G36*
X67551000Y-28781000D02*
G01*
X64949000Y-28781000D01*
X64949000Y-27679000D01*
X67551000Y-27679000D01*
X67551000Y-28781000D01*
X67551000Y-28781000D01*
G37*
G36*
X46501000Y-28401000D02*
G01*
X44499000Y-28401000D01*
X44499000Y-27499000D01*
X46501000Y-27499000D01*
X46501000Y-28401000D01*
X46501000Y-28401000D01*
G37*
G36*
X56501000Y-28401000D02*
G01*
X54499000Y-28401000D01*
X54499000Y-27499000D01*
X56501000Y-27499000D01*
X56501000Y-28401000D01*
X56501000Y-28401000D01*
G37*
G36*
X51539499Y-26478445D02*
G01*
X51576995Y-26489820D01*
X51611554Y-26508292D01*
X51641847Y-26533153D01*
X51666708Y-26563446D01*
X51685180Y-26598005D01*
X51696555Y-26635501D01*
X51701000Y-26680638D01*
X51701000Y-27319362D01*
X51696555Y-27364499D01*
X51685180Y-27401995D01*
X51666708Y-27436554D01*
X51641847Y-27466847D01*
X51611554Y-27491708D01*
X51576995Y-27510180D01*
X51539499Y-27521555D01*
X51494362Y-27526000D01*
X50755638Y-27526000D01*
X50710501Y-27521555D01*
X50673005Y-27510180D01*
X50638446Y-27491708D01*
X50608153Y-27466847D01*
X50583292Y-27436554D01*
X50564820Y-27401995D01*
X50553445Y-27364499D01*
X50549000Y-27319362D01*
X50549000Y-26680638D01*
X50553445Y-26635501D01*
X50564820Y-26598005D01*
X50583292Y-26563446D01*
X50608153Y-26533153D01*
X50638446Y-26508292D01*
X50673005Y-26489820D01*
X50710501Y-26478445D01*
X50755638Y-26474000D01*
X51494362Y-26474000D01*
X51539499Y-26478445D01*
X51539499Y-26478445D01*
G37*
G36*
X53289499Y-26478445D02*
G01*
X53326995Y-26489820D01*
X53361554Y-26508292D01*
X53391847Y-26533153D01*
X53416708Y-26563446D01*
X53435180Y-26598005D01*
X53446555Y-26635501D01*
X53451000Y-26680638D01*
X53451000Y-27319362D01*
X53446555Y-27364499D01*
X53435180Y-27401995D01*
X53416708Y-27436554D01*
X53391847Y-27466847D01*
X53361554Y-27491708D01*
X53326995Y-27510180D01*
X53289499Y-27521555D01*
X53244362Y-27526000D01*
X52505638Y-27526000D01*
X52460501Y-27521555D01*
X52423005Y-27510180D01*
X52388446Y-27491708D01*
X52358153Y-27466847D01*
X52333292Y-27436554D01*
X52314820Y-27401995D01*
X52303445Y-27364499D01*
X52299000Y-27319362D01*
X52299000Y-26680638D01*
X52303445Y-26635501D01*
X52314820Y-26598005D01*
X52333292Y-26563446D01*
X52358153Y-26533153D01*
X52388446Y-26508292D01*
X52423005Y-26489820D01*
X52460501Y-26478445D01*
X52505638Y-26474000D01*
X53244362Y-26474000D01*
X53289499Y-26478445D01*
X53289499Y-26478445D01*
G37*
G36*
X59501000Y-27451000D02*
G01*
X57499000Y-27451000D01*
X57499000Y-26549000D01*
X59501000Y-26549000D01*
X59501000Y-27451000D01*
X59501000Y-27451000D01*
G37*
G36*
X49501000Y-27451000D02*
G01*
X47499000Y-27451000D01*
X47499000Y-26549000D01*
X49501000Y-26549000D01*
X49501000Y-27451000D01*
X49501000Y-27451000D01*
G37*
G36*
X22364499Y-25803445D02*
G01*
X22401995Y-25814820D01*
X22436554Y-25833292D01*
X22466847Y-25858153D01*
X22491708Y-25888446D01*
X22510180Y-25923005D01*
X22521555Y-25960501D01*
X22526000Y-26005638D01*
X22526000Y-26744362D01*
X22521555Y-26789499D01*
X22510180Y-26826995D01*
X22491708Y-26861554D01*
X22466847Y-26891847D01*
X22436554Y-26916708D01*
X22401995Y-26935180D01*
X22364499Y-26946555D01*
X22319362Y-26951000D01*
X21680638Y-26951000D01*
X21635501Y-26946555D01*
X21598005Y-26935180D01*
X21563446Y-26916708D01*
X21533153Y-26891847D01*
X21508292Y-26861554D01*
X21489820Y-26826995D01*
X21478445Y-26789499D01*
X21474000Y-26744362D01*
X21474000Y-26005638D01*
X21478445Y-25960501D01*
X21489820Y-25923005D01*
X21508292Y-25888446D01*
X21533153Y-25858153D01*
X21563446Y-25833292D01*
X21598005Y-25814820D01*
X21635501Y-25803445D01*
X21680638Y-25799000D01*
X22319362Y-25799000D01*
X22364499Y-25803445D01*
X22364499Y-25803445D01*
G37*
G36*
X41539499Y-25478445D02*
G01*
X41576995Y-25489820D01*
X41611554Y-25508292D01*
X41641847Y-25533153D01*
X41666708Y-25563446D01*
X41685180Y-25598005D01*
X41696555Y-25635501D01*
X41701000Y-25680638D01*
X41701000Y-26319362D01*
X41696555Y-26364499D01*
X41685180Y-26401995D01*
X41666708Y-26436554D01*
X41641847Y-26466847D01*
X41611554Y-26491708D01*
X41576995Y-26510180D01*
X41539499Y-26521555D01*
X41494362Y-26526000D01*
X40755638Y-26526000D01*
X40710501Y-26521555D01*
X40673005Y-26510180D01*
X40638446Y-26491708D01*
X40608153Y-26466847D01*
X40583292Y-26436554D01*
X40564820Y-26401995D01*
X40553445Y-26364499D01*
X40549000Y-26319362D01*
X40549000Y-25680638D01*
X40553445Y-25635501D01*
X40564820Y-25598005D01*
X40583292Y-25563446D01*
X40608153Y-25533153D01*
X40638446Y-25508292D01*
X40673005Y-25489820D01*
X40710501Y-25478445D01*
X40755638Y-25474000D01*
X41494362Y-25474000D01*
X41539499Y-25478445D01*
X41539499Y-25478445D01*
G37*
G36*
X43289499Y-25478445D02*
G01*
X43326995Y-25489820D01*
X43361554Y-25508292D01*
X43391847Y-25533153D01*
X43416708Y-25563446D01*
X43435180Y-25598005D01*
X43446555Y-25635501D01*
X43451000Y-25680638D01*
X43451000Y-26319362D01*
X43446555Y-26364499D01*
X43435180Y-26401995D01*
X43416708Y-26436554D01*
X43391847Y-26466847D01*
X43361554Y-26491708D01*
X43326995Y-26510180D01*
X43289499Y-26521555D01*
X43244362Y-26526000D01*
X42505638Y-26526000D01*
X42460501Y-26521555D01*
X42423005Y-26510180D01*
X42388446Y-26491708D01*
X42358153Y-26466847D01*
X42333292Y-26436554D01*
X42314820Y-26401995D01*
X42303445Y-26364499D01*
X42299000Y-26319362D01*
X42299000Y-25680638D01*
X42303445Y-25635501D01*
X42314820Y-25598005D01*
X42333292Y-25563446D01*
X42358153Y-25533153D01*
X42388446Y-25508292D01*
X42423005Y-25489820D01*
X42460501Y-25478445D01*
X42505638Y-25474000D01*
X43244362Y-25474000D01*
X43289499Y-25478445D01*
X43289499Y-25478445D01*
G37*
G36*
X46501000Y-26501000D02*
G01*
X44499000Y-26501000D01*
X44499000Y-25599000D01*
X46501000Y-25599000D01*
X46501000Y-26501000D01*
X46501000Y-26501000D01*
G37*
G36*
X56501000Y-26501000D02*
G01*
X54499000Y-26501000D01*
X54499000Y-25599000D01*
X56501000Y-25599000D01*
X56501000Y-26501000D01*
X56501000Y-26501000D01*
G37*
G36*
X67551000Y-26241000D02*
G01*
X64949000Y-26241000D01*
X64949000Y-25139000D01*
X67551000Y-25139000D01*
X67551000Y-26241000D01*
X67551000Y-26241000D01*
G37*
G36*
X83051000Y-26241000D02*
G01*
X80449000Y-26241000D01*
X80449000Y-25139000D01*
X83051000Y-25139000D01*
X83051000Y-26241000D01*
X83051000Y-26241000D01*
G37*
G36*
X25851000Y-25351000D02*
G01*
X23749000Y-25351000D01*
X23749000Y-23649000D01*
X25851000Y-23649000D01*
X25851000Y-25351000D01*
X25851000Y-25351000D01*
G37*
G36*
X31251000Y-25351000D02*
G01*
X29149000Y-25351000D01*
X29149000Y-23649000D01*
X31251000Y-23649000D01*
X31251000Y-25351000D01*
X31251000Y-25351000D01*
G37*
G36*
X22364499Y-24053445D02*
G01*
X22401995Y-24064820D01*
X22436554Y-24083292D01*
X22466847Y-24108153D01*
X22491708Y-24138446D01*
X22510180Y-24173005D01*
X22521555Y-24210501D01*
X22526000Y-24255638D01*
X22526000Y-24994362D01*
X22521555Y-25039499D01*
X22510180Y-25076995D01*
X22491708Y-25111554D01*
X22466847Y-25141847D01*
X22436554Y-25166708D01*
X22401995Y-25185180D01*
X22364499Y-25196555D01*
X22319362Y-25201000D01*
X21680638Y-25201000D01*
X21635501Y-25196555D01*
X21598005Y-25185180D01*
X21563446Y-25166708D01*
X21533153Y-25141847D01*
X21508292Y-25111554D01*
X21489820Y-25076995D01*
X21478445Y-25039499D01*
X21474000Y-24994362D01*
X21474000Y-24255638D01*
X21478445Y-24210501D01*
X21489820Y-24173005D01*
X21508292Y-24138446D01*
X21533153Y-24108153D01*
X21563446Y-24083292D01*
X21598005Y-24064820D01*
X21635501Y-24053445D01*
X21680638Y-24049000D01*
X22319362Y-24049000D01*
X22364499Y-24053445D01*
X22364499Y-24053445D01*
G37*
G36*
X83051000Y-23701000D02*
G01*
X80449000Y-23701000D01*
X80449000Y-22599000D01*
X83051000Y-22599000D01*
X83051000Y-23701000D01*
X83051000Y-23701000D01*
G37*
G36*
X67551000Y-23701000D02*
G01*
X64949000Y-23701000D01*
X64949000Y-22599000D01*
X67551000Y-22599000D01*
X67551000Y-23701000D01*
X67551000Y-23701000D01*
G37*
M02*
