M48
; DRILL file {KiCad (5.1.0-0)} date Wednesday, May 15, 2019 at 11:46:47 PM
; FORMAT={-:-/ absolute / inch / decimal}
; #@! TF.CreationDate,2019-05-15T23:46:47-04:00
; #@! TF.GenerationSoftware,Kicad,Pcbnew,(5.1.0-0)
; #@! TF.FileFunction,Plated,1,2,PTH
FMAT,2
INCH
T1C0.0079
T2C0.0157
T3C0.0236
T4C0.0256
T5C0.0390
T6C0.0394
T7C0.0512
T8C0.0551
T9C0.0630
T10C0.0787
T11C0.0866
T12C0.1575
%
G90
G05
T1
X2.5217Y-4.5341
X2.5217Y-4.5813
X2.5217Y-4.6285
X2.5768Y-4.5341
X2.5768Y-4.5813
X2.5768Y-4.6285
T2
X0.9006Y-2.7461
X0.9055Y-2.2283
X0.9055Y-3.2776
X0.9134Y-3.5197
X0.9213Y-3.622
X0.9252Y-4.0157
X0.9252Y-4.2126
X0.9252Y-4.2717
X0.9291Y-3.9291
X0.935Y-2.7165
X0.9449Y-3.248
X0.9469Y-3.8504
X0.9469Y-3.8937
X0.9469Y-2.4646
X0.9523Y-2.6383
X0.9764Y-2.3701
X0.9835Y-2.6764
X0.9843Y-2.7756
X1.0049Y-2.4331
X1.0236Y-2.6142
X1.0394Y-3.0945
X1.0472Y-2.4252
X1.0472Y-3.4646
X1.0709Y-1.9843
X1.0768Y-3.3563
X1.0827Y-3.3071
X1.093Y-2.4404
X1.1024Y-1.8012
X1.1024Y-4.2717
X1.1102Y-2.6929
X1.1181Y-3.7559
X1.122Y-3.1496
X1.126Y-3.8159
X1.126Y-3.9764
X1.1329Y-2.4409
X1.1417Y-3.5827
X1.1513Y-2.4757
X1.1614Y-2.7362
X1.1811Y-2.126
X1.2003Y-2.7751
X1.2008Y-3.7756
X1.2362Y-4.3002
X1.2362Y-4.3622
X1.2402Y-2.7756
X1.2402Y-3.7205
X1.2441Y-3.9843
X1.252Y-3.4646
X1.252Y-3.811
X1.2577Y-2.1203
X1.2697Y-2.3819
X1.2714Y-2.1572
X1.2756Y-3.0157
X1.2756Y-3.5787
X1.2835Y-3.7874
X1.2992Y-1.0827
X1.2992Y-2.185
X1.2992Y-2.5295
X1.2997Y-2.0477
X1.2998Y-3.9433
X1.3081Y-1.6634
X1.3091Y-1.4862
X1.3152Y-2.3856
X1.3307Y-3.4646
X1.3307Y-3.5118
X1.3484Y-3.0709
X1.3622Y-4.189
X1.3681Y-2.2835
X1.3696Y-1.8971
X1.3701Y-1.4882
X1.3701Y-1.6378
X1.3701Y-3.2835
X1.3701Y-3.622
X1.3858Y-3.8819
X1.4094Y-3.4094
X1.4094Y-3.4646
X1.4191Y-3.8563
X1.4409Y-3.5669
X1.4409Y-3.7717
X1.4409Y-4.2717
X1.4488Y-3.2362
X1.4488Y-4.189
X1.4567Y-3.1102
X1.4961Y-3.1496
X1.5276Y-3.252
X1.5354Y-3.1781
X1.5776Y-4.0472
X1.5889Y-3.9539
X1.5906Y-3.7953
X1.5906Y-4.1644
X1.5984Y-3.9921
X1.6142Y-1.4961
X1.6142Y-1.6284
X1.6178Y-3.3805
X1.622Y-3.4488
X1.6535Y-1.4961
X1.6535Y-1.6535
X1.6922Y-3.1509
X1.6924Y-3.1107
X1.6929Y-3.0709
X1.7146Y-3.2137
X1.7165Y-3.2756
X1.7559Y-3.7559
X1.7717Y-1.2205
X1.7775Y-3.317
X1.7795Y-3.378
X1.7874Y-3.9921
X1.8189Y-1.6614
X1.8189Y-3.4016
X1.8248Y-4.4528
X1.8602Y-3.9764
X1.8661Y-3.4882
X1.8898Y-4.2323
X1.8976Y-1.4094
X1.9291Y-4.1929
X1.9443Y-1.4016
X1.9528Y-1.1575
X1.9587Y-3.9764
X1.9685Y-3.1969
X1.9685Y-3.4646
X1.9764Y-3.748
X2.0079Y-1.4016
X2.0157Y-4.5512
X2.0315Y-4.4409
X2.0394Y-3.6535
X2.0472Y-3.5827
X2.1063Y-1.4764
X2.1102Y-1.9449
X2.1181Y-4.1496
X2.126Y-4.3518
X2.126Y-4.3931
X2.1294Y-3.7052
X2.1339Y-3.2283
X2.1339Y-3.4803
X2.1339Y-3.748
X2.1417Y-4.5512
X2.1457Y-1.437
X2.1654Y-1.5354
X2.1845Y-1.3971
X2.189Y-3.0945
X2.189Y-4.4409
X2.2205Y-4.3228
X2.2244Y-1.4961
X2.2638Y-1.4567
X2.2835Y-2.4114
X2.2913Y-4.622
X2.378Y-4.6929
X2.3937Y-4.5906
X2.4173Y-0.9213
X2.4409Y-1.5433
X2.4961Y-1.2598
X2.4961Y-4.4173
X2.5295Y-2.9528
X2.5709Y-2.563
X2.5827Y-4.4252
X2.5906Y-3.4724
X2.7087Y-3.1811
X2.7165Y-4.3819
X2.7439Y-3.1987
X2.7874Y-3.1417
X2.8307Y-2.563
X2.8819Y-4.6299
X2.8898Y-4.3307
X2.9134Y-1.3228
X2.9134Y-3.0394
X3.063Y-4.4252
X3.0709Y-2.6378
X3.1024Y-4.5354
X3.1417Y-4.6063
X3.1496Y-3.188
X3.189Y-3.1102
X3.252Y-4.6693
X3.2835Y-0.8583
X1.1089Y-1.6207
X1.128Y-1.5748
X2.979Y-2.4409
X3.0249Y-2.4219
X3.0709Y-2.4409
X0.998Y-1.5748
X2.96Y-2.4869
X2.979Y-2.5328
X3.0249Y-2.5518
X3.0709Y-2.5328
X3.0899Y-2.4869
X1.0171Y-1.5289
X1.0171Y-1.6207
X1.063Y-1.5098
X1.063Y-1.6398
X1.1089Y-1.5289
T4
X1.9728Y-4.5484
X2.2004Y-4.5484
T5
X3.2677Y-2.0472
X3.2677Y-2.2244
X3.2677Y-1.5748
X3.2677Y-1.752
X0.9055Y-1.8307
X0.9055Y-2.0079
T6
X2.7854Y-4.5591
X3.2972Y-4.4587
T7
X3.1697Y-1.998
X3.1697Y-2.274
X1.0035Y-1.7811
X1.0035Y-2.0571
X3.1697Y-1.5256
X3.1697Y-1.8016
T8
X1.4536Y-3.3565
X1.492Y-2.9232
X1.8289Y-2.9706
X1.9445Y-3.8642
X2.0429Y-3.272
X2.2287Y-2.5925
X2.3444Y-3.4861
X2.3444Y-2.9706
X2.6812Y-3.5335
T9
X1.9613Y-3.1031
X2.2119Y-3.3536
T11
X3.0249Y-2.4869
X1.063Y-1.5748
T12
X1.6689Y-2.8106
X1.6689Y-3.6461
X2.5043Y-2.8106
X2.5043Y-3.6461
T3
G00X1.9165Y-4.5492
M15
G01X1.9165Y-4.5059
M16
G05
G00X1.9165Y-4.7039
M15
G01X1.9165Y-4.6803
M16
G05
G00X2.2567Y-4.5492
M15
G01X2.2567Y-4.5059
M16
G05
G00X2.2567Y-4.7039
M15
G01X2.2567Y-4.6803
M16
G05
T10
G00X1.4843Y-1.1969
M15
G01X1.4843Y-1.1181
M16
G05
G00X2.689Y-1.748
M15
G01X2.689Y-1.6693
M16
G05
T0
M30
